<?xml version="1.0" standalone="no"?>
<!DOCTYPE svg PUBLIC "-//W3C//DTD SVG 20010904//EN"
 "http://www.w3.org/TR/2001/REC-SVG-20010904/DTD/svg10.dtd">
<svg version="1.0" xmlns="http://www.w3.org/2000/svg"
 width="700.000000pt" height="700.000000pt" viewBox="0 0 700.000000 700.000000"
 preserveAspectRatio="xMidYMid meet">
<metadata>
Created by potrace 1.11, written by Peter Selinger 2001-2013
</metadata>
<g transform="translate(0.000000,700.000000) scale(0.100000,-0.100000)"
fill="#000000" stroke="none">
<path d="M3318 6985 c-2 -1 -41 -6 -88 -9 -47 -4 -94 -9 -105 -11 -11 -3 -36
-7 -55 -9 -55 -8 -127 -23 -225 -46 -49 -12 -94 -23 -100 -24 -17 -4 -87 -27
-175 -58 -286 -102 -572 -260 -820 -452 -240 -187 -487 -449 -673 -713 -178
-253 -343 -579 -452 -894 -38 -107 -100 -318 -108 -364 -3 -16 -14 -70 -25
-120 -11 -49 -22 -108 -26 -130 -3 -22 -8 -50 -10 -62 -3 -12 -7 -50 -11 -84
-4 -35 -8 -66 -10 -69 -17 -28 -27 -586 -12 -755 25 -294 83 -601 165 -865
123 -394 363 -855 600 -1149 304 -378 613 -639 1017 -857 84 -45 281 -132 350
-154 22 -7 49 -16 60 -21 91 -36 338 -96 475 -115 25 -3 68 -10 95 -15 54 -9
624 -5 665 4 14 3 52 10 85 16 33 6 71 12 85 15 61 10 213 49 305 78 586 184
1123 574 1521 1103 64 85 184 261 184 269 0 3 15 29 34 58 165 259 370 787
430 1108 2 14 9 45 14 70 6 25 13 67 17 94 3 27 8 52 10 55 1 3 6 33 10 66 4
33 8 74 11 90 4 29 12 119 19 220 5 73 5 388 0 475 -6 94 -20 236 -31 310 -3
19 -7 49 -9 65 -5 45 -21 125 -60 307 -29 137 -140 470 -200 603 -110 243
-194 399 -311 576 -175 267 -438 558 -669 742 -33 27 -68 55 -78 63 -148 121
-481 310 -692 394 -145 58 -358 121 -480 144 -31 6 -98 18 -119 22 -10 2 -44
6 -75 9 -31 4 -67 9 -81 12 -27 5 -446 13 -452 8z"/>
</g>
</svg>
