<?xml version="1.0" standalone="no"?>
<!DOCTYPE svg PUBLIC "-//W3C//DTD SVG 20010904//EN"
 "http://www.w3.org/TR/2001/REC-SVG-20010904/DTD/svg10.dtd">
<svg version="1.0" xmlns="http://www.w3.org/2000/svg"
 width="700.000000pt" height="700.000000pt" viewBox="0 0 700.000000 700.000000"
 preserveAspectRatio="xMidYMid meet">
<metadata>
Created by potrace 1.11, written by Peter Selinger 2001-2013
</metadata>
<g transform="translate(0.000000,700.000000) scale(0.100000,-0.100000)"
fill="#000000" stroke="none">
<path d="M3818 6915 c-2 -2 -19 -6 -38 -9 -20 -3 -62 -17 -94 -32 -69 -32
-124 -37 -203 -18 -32 8 -90 14 -129 14 l-71 0 -38 -44 c-43 -51 -38 -50 -205
-14 -124 28 -211 26 -340 -5 -58 -14 -121 -28 -140 -31 -139 -21 -246 -90
-316 -203 -28 -44 -21 -74 26 -117 20 -18 40 -39 44 -45 11 -18 -45 -88 -89
-110 -54 -27 -85 -32 -190 -30 -222 4 -199 7 -248 -38 -53 -49 -75 -61 -118
-67 -67 -9 -72 -14 -84 -86 -3 -19 -10 -36 -15 -38 -25 -9 -54 -43 -83 -97
-21 -39 -47 -69 -77 -90 -25 -17 -46 -41 -48 -53 -4 -29 16 -98 33 -116 8 -8
15 -18 15 -21 0 -4 17 -23 37 -41 49 -45 113 -49 192 -12 71 34 83 31 101 -29
9 -29 21 -58 28 -65 16 -16 77 -11 172 12 52 13 127 19 248 23 l172 4 6 -24
c4 -13 3 -27 -1 -31 -3 -4 -41 -9 -82 -12 l-76 -5 -16 -40 -16 -40 -80 0
c-110 0 -270 -21 -390 -51 -55 -13 -111 -27 -124 -30 -37 -8 -185 -67 -209
-84 -19 -13 -23 -26 -26 -100 -3 -47 -5 -91 -5 -97 -1 -10 -26 -13 -91 -13
-173 0 -217 -51 -181 -211 10 -43 10 -43 -37 -87 -26 -24 -46 -46 -46 -50 1
-4 5 -43 8 -87 4 -44 9 -96 11 -116 4 -28 0 -40 -19 -56 -27 -24 -45 -98 -27
-116 6 -6 39 -13 73 -15 65 -5 78 -12 78 -48 0 -11 18 -45 41 -75 22 -30 44
-60 48 -67 4 -7 30 -15 57 -18 27 -3 62 -7 78 -9 42 -6 105 19 130 51 88 114
105 123 240 117 79 -4 94 -2 140 21 61 30 110 76 137 128 11 21 23 38 28 38 5
0 16 3 25 6 23 9 21 -30 -3 -80 -18 -37 -28 -76 -30 -117 -1 -8 -18 -25 -40
-37 -48 -27 -137 -117 -152 -155 -9 -22 -9 -37 1 -66 8 -27 10 -66 6 -124 -5
-63 -3 -87 6 -93 7 -4 43 -9 81 -10 67 -2 69 -3 108 -48 32 -36 47 -46 72 -46
43 0 89 30 129 83 33 44 34 45 88 44 54 -2 56 -3 52 -28 -3 -18 4 -35 22 -54
22 -24 24 -31 13 -42 -7 -8 -27 -16 -43 -19 -16 -3 -37 -13 -47 -22 -14 -12
-44 -16 -134 -19 -108 -3 -120 -5 -158 -30 -36 -25 -48 -28 -119 -26 -72 2
-81 0 -95 -20 -34 -48 -86 -99 -132 -129 -27 -17 -46 -35 -42 -41 3 -5 -3 -7
-14 -3 -29 9 -44 -14 -39 -60 10 -101 29 -133 95 -163 54 -24 65 -43 76 -133
8 -60 -1 -104 -23 -113 -9 -3 -44 -9 -77 -11 -121 -10 -179 -40 -259 -134 -63
-73 -76 -107 -76 -199 0 -42 -5 -94 -11 -116 -22 -77 -19 -116 15 -170 18 -27
51 -88 75 -135 90 -175 83 -167 148 -165 46 2 61 7 78 27 31 37 51 49 87 54
102 15 153 48 192 126 10 21 27 45 37 54 18 16 20 16 38 -5 10 -11 21 -43 25
-70 7 -50 30 -83 90 -127 l29 -21 -28 -19 c-15 -10 -38 -40 -51 -68 l-23 -49
40 -55 c21 -31 39 -63 39 -73 0 -9 8 -27 18 -39 16 -20 27 -22 94 -21 75 1 76
1 102 -33 14 -19 28 -52 32 -73 8 -56 15 -76 32 -95 23 -27 46 -22 84 17 30
31 38 35 60 26 19 -7 35 -5 68 10 113 51 211 64 271 37 73 -32 101 -22 209 80
19 18 32 22 55 17 17 -3 50 -9 75 -12 37 -5 49 -11 68 -40 12 -19 22 -42 22
-52 0 -30 -34 -52 -80 -53 -33 0 -47 -6 -67 -28 -14 -16 -35 -31 -47 -34 -24
-6 -46 -43 -46 -79 0 -17 15 -30 65 -56 36 -18 84 -50 107 -71 40 -35 41 -38
22 -48 -32 -17 -102 -24 -124 -12 -24 13 -46 54 -53 99 -7 41 -4 39 -55 45
-55 7 -58 9 -83 67 -12 27 -27 50 -33 50 -50 6 -64 5 -86 -5 -14 -6 -43 -23
-64 -38 -50 -36 -198 -84 -268 -87 -29 -2 -45 -28 -53 -88 -4 -31 -8 -64 -10
-73 -1 -8 -5 -36 -9 -61 l-7 -47 -74 -27 c-80 -29 -101 -45 -91 -72 4 -9 9
-32 12 -52 3 -20 10 -53 15 -73 9 -34 13 -38 42 -38 18 0 63 9 102 19 62 16
75 17 129 4 33 -7 61 -15 61 -16 1 -1 12 -31 26 -67 21 -56 28 -65 53 -68 33
-4 74 21 86 52 6 17 17 23 39 24 32 1 35 -5 31 -55 -1 -18 15 -33 76 -73 42
-27 83 -51 90 -51 58 -5 79 0 127 32 l47 31 44 -22 45 -21 -4 -108 c-7 -199
-31 -288 -84 -316 -17 -8 -59 -18 -94 -20 -186 -12 -272 -19 -299 -24 -5 0 -8
-10 -8 -21 0 -11 3 -20 8 -21 4 -1 370 -2 814 -2 761 -2 807 -1 812 16 3 11
-2 17 -12 18 -10 0 -24 2 -32 3 -8 2 -60 6 -115 10 -55 4 -129 9 -165 11 -36
3 -107 7 -158 9 -53 2 -99 9 -107 16 -9 7 -47 15 -85 18 l-70 5 -26 86 c-81
262 -79 322 13 357 47 18 103 74 103 103 0 23 -17 37 -53 46 -16 4 -31 13 -33
20 -6 15 12 62 39 102 20 30 27 33 72 33 88 0 119 33 100 107 -4 19 -11 24
-32 21 -21 -2 -28 2 -34 24 -6 25 -5 26 38 33 25 3 47 4 50 2 2 -3 6 -31 7
-63 6 -114 77 -226 156 -248 96 -28 244 -12 310 33 59 40 81 79 94 173 8 55
36 117 57 128 28 16 74 88 99 158 42 114 16 225 -85 367 -26 36 -51 68 -57 71
-6 4 -36 8 -67 10 -31 1 -78 3 -106 5 -38 1 -58 9 -82 29 -48 43 -116 60 -239
63 l-109 2 -23 45 c-25 50 -52 69 -99 70 -38 0 -39 1 -15 58 16 42 18 43 52
37 19 -4 45 -17 58 -31 13 -13 28 -24 35 -25 7 0 79 -2 160 -3 l148 -2 37 44
c61 74 113 121 143 127 34 8 67 50 84 108 11 39 15 42 47 43 44 1 54 7 73 48
9 19 39 53 66 76 l49 42 -3 61 c-3 53 -10 71 -48 128 -24 36 -48 73 -54 82
-11 19 -81 35 -169 38 -31 1 -59 6 -61 10 -3 4 -2 20 1 35 5 27 8 29 48 26 69
-6 76 14 30 90 -21 35 -48 74 -61 87 -13 13 -23 30 -23 39 0 22 122 12 150
-13 14 -13 38 -20 73 -21 33 -1 74 -12 111 -29 62 -29 129 -36 169 -18 227
104 281 115 411 84 135 -32 183 -35 256 -17 87 22 92 31 84 141 -11 153 -12
147 26 172 77 49 79 52 76 86 -7 60 -17 119 -26 141 -12 32 -137 154 -188 185
-30 18 -53 43 -74 81 -16 30 -34 57 -39 58 -5 2 -9 24 -9 48 l0 44 55 -4 c32
-3 89 -20 140 -41 118 -51 146 -53 273 -20 187 49 211 69 219 187 3 40 11 91
19 113 26 77 21 92 -63 176 l-78 77 -75 12 c-119 18 -113 15 -89 62 11 22 18
46 16 53 -3 7 -50 27 -104 45 -126 42 -219 46 -279 11 -75 -44 -87 -37 -98 62
-9 71 -21 107 -38 108 -47 3 -95 34 -121 79 -21 34 -73 46 -169 36 -72 -7
-115 9 -151 57 -39 53 -40 65 -8 98 55 55 117 29 191 -81 38 -56 42 -59 73
-53 44 8 74 28 92 63 14 26 31 35 58 31 18 -3 75 29 104 57 17 17 50 41 74 54
47 24 115 27 255 11 39 -5 85 -5 102 -1 29 8 31 12 27 41 -2 17 -7 59 -10 92
-3 33 -8 74 -10 90 -2 17 -7 52 -10 80 -8 68 -39 117 -74 115 -43 -3 -47 -2
-118 47 -95 65 -163 84 -293 83 -180 -2 -190 -1 -190 14 0 15 25 23 93 32 23
3 46 9 50 13 11 10 13 136 3 186 -9 45 -34 86 -83 133 -36 34 -37 34 -124 36
-49 1 -63 6 -98 34 -23 19 -55 37 -71 42 -29 8 -135 6 -168 -4 -69 -20 -186
-23 -238 -6 -57 19 -25 26 118 24 207 -3 232 16 219 157 -3 42 -13 84 -20 93
-18 21 -66 42 -120 51 -23 4 -41 12 -40 18 5 43 -4 79 -27 107 -37 44 -190
115 -289 134 -90 17 -186 31 -197 28 -4 -1 -19 16 -34 37 -14 22 -33 43 -42
47 -16 7 -178 14 -184 9z m1042 -1146 c0 -10 -6 -19 -14 -19 -15 0 -29 27 -21
40 9 15 35 -1 35 -21z m-1372 -241 c-2 -39 -7 -53 -18 -53 -17 0 -22 47 -9 83
15 41 30 24 27 -30z m-400 -8 c21 -33 18 -82 -5 -101 -20 -17 -32 -1 -36 51
-4 40 6 80 18 80 3 0 13 -13 23 -30z m662 -365 c0 -8 -6 -15 -14 -15 -17 0
-28 14 -19 24 12 12 33 6 33 -9z m266 -80 c1 -27 4 -58 8 -67 6 -12 0 -21 -23
-33 -37 -19 -40 -46 -7 -72 13 -10 27 -29 31 -42 l7 -24 -108 6 c-128 7 -184
20 -184 45 1 28 20 54 110 151 82 90 85 92 125 89 l40 -3 1 -50z m-506 -200
c17 -21 6 -84 -20 -109 l-21 -21 2 65 c3 85 11 99 39 65z m-310 -264 l75 -28
-1 -37 c-2 -41 -21 -61 -66 -71 -22 -5 -37 1 -75 31 -27 21 -49 39 -51 40 -8
5 22 94 32 93 6 0 45 -13 86 -28z m1003 -696 c15 -19 34 -35 41 -35 22 0 27
-39 6 -50 -9 -5 -20 -7 -23 -4 -3 3 -10 -3 -16 -14 -10 -19 -11 -19 -63 -1
-29 10 -60 18 -69 19 -21 0 -56 39 -64 71 -6 25 -5 26 57 36 99 16 101 16 131
-22z m-881 -61 c-4 -23 -5 -23 -17 -7 -10 13 -10 23 -3 37 13 24 27 4 20 -30z
m-169 -235 c7 -24 13 -60 12 -79 0 -28 -4 -35 -20 -35 -36 0 -75 17 -76 33 0
10 -2 26 -4 37 -7 32 15 86 39 95 27 10 34 3 49 -51z m746 -133 c11 -25 24
-47 29 -50 5 -3 39 -6 76 -7 37 -1 68 -5 70 -8 2 -3 0 -16 -4 -27 -8 -19 -16
-22 -73 -22 -51 0 -78 -6 -122 -27 l-56 -28 3 -58 c2 -37 -2 -63 -10 -71 -6
-6 -12 -21 -12 -33 0 -11 -20 20 -45 69 l-44 89 28 36 c16 20 47 69 70 109 23
39 48 72 55 72 8 0 23 -20 35 -44z m-309 2 c0 -16 -19 -47 -21 -33 0 6 -2 18
-4 28 -2 9 3 17 11 17 8 0 14 -6 14 -12z m383 -387 c154 2 161 1 175 -19 7
-12 11 -25 9 -29 -9 -15 -139 -21 -237 -11 -66 7 -97 -8 -126 -58 -54 -92 -2
-149 144 -159 20 -1 43 -3 50 -4 6 0 12 -7 12 -15 0 -28 -29 -38 -107 -36
-157 4 -171 -2 -199 -79 -12 -34 -24 -51 -36 -52 -10 -1 -24 -2 -30 -3 -42 -7
-74 87 -64 182 7 69 39 157 83 231 2 2 33 9 70 15 65 11 68 13 71 41 3 25 5
27 14 12 9 -17 25 -18 171 -16z m-729 -892 c-17 -29 -52 5 -39 39 6 15 8 15
26 -7 10 -12 16 -27 13 -32z m-295 -360 c17 -6 38 -24 46 -39 14 -27 13 -28
-13 -38 -26 -11 -60 -15 -94 -13 -16 1 -16 4 -3 42 15 40 24 59 29 59 2 0 17
-5 35 -11z m761 -183 c0 -8 -4 -17 -9 -21 -12 -7 -24 12 -16 25 9 15 25 12 25
-4z m-25 -294 c-18 -19 -27 51 -9 79 6 10 10 2 12 -30 2 -23 0 -46 -3 -49z"/>
</g>
</svg>
