<?xml version="1.0" standalone="no"?>
<!DOCTYPE svg PUBLIC "-//W3C//DTD SVG 20010904//EN"
 "http://www.w3.org/TR/2001/REC-SVG-20010904/DTD/svg10.dtd">
<svg version="1.0" xmlns="http://www.w3.org/2000/svg"
 width="1200.000000pt" height="1200.000000pt" viewBox="0 0 1200.000000 1200.000000"
 preserveAspectRatio="xMidYMid meet">
<metadata>
Created by potrace 1.11, written by Peter Selinger 2001-2013
</metadata>
<g transform="translate(0.000000,1200.000000) scale(0.100000,-0.100000)"
fill="#000000" stroke="none">
<path d="M689 8795 c0 -38 0 -180 -1 -315 l0 -245 314 0 313 0 2 315 1 315
-314 0 -314 0 -1 -70z"/>
<path d="M2210 8603 l0 -183 26 0 c14 0 23 4 19 9 -3 5 -1 12 5 16 5 3 10 2
10 -3 0 -14 51 -32 75 -28 11 3 27 5 35 5 26 2 61 65 64 118 5 87 -40 152
-102 148 -50 -3 -48 -3 -66 -21 -18 -17 -17 -19 -21 56 -3 66 -3 66 -25 66
-19 0 -20 -7 -20 -183z m168 22 c24 -31 27 -97 5 -142 -12 -27 -21 -33 -47
-33 -17 0 -38 6 -46 13 -19 15 -36 55 -34 82 1 11 2 30 3 42 0 12 11 31 23 43
30 28 72 26 96 -5z"/>
<path d="M2838 8782 c-15 -3 -17 -21 -16 -183 l1 -179 24 0 c13 0 22 4 18 9
-3 5 -1 12 4 16 5 3 14 -2 19 -11 16 -28 94 -25 126 5 47 44 56 131 20 196
-28 52 -78 66 -135 37 l-36 -19 2 58 c3 64 -2 77 -27 71z m151 -161 c28 -39
28 -109 0 -145 -26 -33 -70 -35 -99 -4 -19 21 -22 31 -22 83 0 48 2 55 22 75
30 30 74 26 99 -9z"/>
<path d="M3444 8782 c-8 -5 -12 -65 -12 -184 l0 -178 24 0 c14 0 23 4 19 9 -3
5 -1 12 5 16 5 3 10 2 10 -4 0 -6 17 -15 39 -22 71 -21 130 30 136 117 5 76
-31 138 -86 149 -30 6 -89 -13 -89 -27 0 -6 -3 -8 -7 -4 -4 4 -8 33 -9 64 -2
80 -3 82 -30 64z m153 -154 c29 -34 31 -115 3 -151 -21 -27 -61 -36 -86 -19
-22 14 -40 68 -37 107 7 75 76 111 120 63z"/>
<path d="M2588 8775 c-2 -2 -16 -6 -31 -9 -37 -7 -47 -14 -47 -37 0 -22 0 -22
35 -9 77 29 128 11 133 -48 2 -30 -39 -85 -130 -172 -22 -20 -38 -44 -38 -57
0 -22 3 -23 110 -23 103 0 110 1 110 20 0 18 -7 20 -82 20 l-81 0 65 68 c73
76 89 101 93 148 5 46 -36 90 -91 97 -23 4 -43 4 -46 2z"/>
<path d="M3163 8768 c-23 -6 -33 -14 -33 -28 0 -17 5 -19 25 -14 81 20 148 -3
139 -49 -6 -33 -28 -48 -72 -50 -35 -2 -42 -6 -42 -22 0 -17 8 -20 47 -22 32
-2 52 -8 60 -20 14 -19 17 -61 5 -80 -17 -27 -80 -36 -149 -19 -18 4 -23 0
-23 -14 0 -26 13 -32 84 -35 50 -2 70 2 95 18 58 36 68 102 22 147 l-28 29 23
20 c34 30 33 84 -2 116 -15 14 -32 25 -38 26 -59 5 -86 4 -113 -3z"/>
<path d="M1793 8762 c-6 -4 -14 -24 -18 -45 -8 -42 -25 -54 -71 -51 -27 2 -31
-1 -27 -17 4 -14 14 -19 40 -19 31 0 34 -2 28 -22 -4 -13 -9 -31 -11 -40 -4
-13 -15 -17 -40 -16 -38 1 -49 -5 -41 -25 3 -8 18 -13 37 -12 31 2 31 1 25
-32 -3 -19 -9 -41 -12 -49 -3 -9 2 -14 14 -14 15 0 23 12 34 48 13 42 17 47
44 47 18 0 29 -5 28 -12 -2 -6 -6 -30 -9 -53 -7 -41 -6 -42 15 -31 11 7 22 18
22 26 2 19 3 25 12 51 6 18 15 22 45 20 30 -1 38 3 40 20 3 18 -2 20 -34 18
-36 -3 -36 -3 -30 28 3 17 6 34 6 39 0 5 20 9 45 9 39 0 45 3 45 21 0 18 -5
20 -36 16 l-36 -5 7 35 c3 19 8 40 11 47 3 8 -2 16 -10 19 -17 7 -32 -15 -40
-56 -7 -38 -11 -43 -43 -41 -31 1 -34 12 -20 57 10 31 0 51 -20 39z m60 -139
c2 -5 0 -23 -5 -41 -8 -30 -12 -32 -43 -30 -30 2 -34 5 -29 21 3 11 8 27 9 36
2 9 4 17 4 19 2 6 60 1 64 -5z"/>
<path d="M3789 8658 c-90 -137 -92 -157 -16 -157 110 1 104 4 102 -41 -2 -36
1 -40 22 -40 24 0 26 6 23 53 -1 23 2 27 24 27 19 0 26 5 26 20 0 14 -7 20
-23 20 -23 0 -23 2 -24 108 -1 59 -2 110 -2 115 -1 4 -14 7 -30 7 -25 0 -36
-13 -102 -112z m86 -30 l-1 -83 -57 -2 c-31 -2 -57 0 -57 3 0 2 8 17 19 32 10
15 33 51 51 80 18 28 35 52 39 52 4 0 7 -37 6 -82z"/>
<path d="M5790 8654 c-68 -14 -185 -58 -210 -78 -8 -6 -27 -18 -42 -26 -16 -7
-28 -17 -28 -22 0 -4 -5 -8 -10 -8 -21 0 -123 -98 -187 -181 -77 -99 -163
-255 -163 -295 0 -8 -4 -14 -9 -14 -5 0 -11 -12 -15 -27 -3 -16 -15 -61 -25
-100 -20 -72 -23 -90 -39 -209 -9 -65 -7 -312 2 -356 l6 -26 -47 15 c-27 8
-77 15 -113 15 -110 1 -193 -40 -249 -122 -43 -63 -62 -137 -61 -244 l0 -89
-98 96 c-111 109 -132 126 -187 155 -103 52 -179 56 -294 15 -47 -16 -51 -20
-50 -48 3 -49 0 -53 -33 -60 -96 -21 -238 -173 -238 -254 0 -10 -9 -17 -22
-19 -23 -1 -23 1 -23 111 l0 112 -30 2 c-28 3 -35 -4 -100 -105 -38 -59 -70
-118 -70 -132 0 -27 -2 -26 113 -29 l42 -1 0 -40 c0 -36 2 -40 25 -40 14 0 24
3 24 8 -5 32 3 72 15 72 11 0 13 -16 9 -77 -3 -66 -1 -83 16 -110 39 -63 104
-56 156 15 18 26 44 53 57 61 53 32 166 44 251 27 15 -3 39 -8 55 -11 15 -3
83 -21 152 -40 129 -36 235 -58 330 -70 30 -4 75 -11 100 -15 25 -5 112 -9
194 -8 254 1 331 38 294 140 -12 31 -42 45 -123 53 -70 7 -88 11 -132 31 -31
14 -73 57 -73 75 0 5 31 24 68 43 38 19 83 46 99 60 38 32 50 32 59 4 6 -20
55 -107 97 -172 39 -61 154 -179 222 -228 63 -45 167 -99 220 -114 135 -38
296 -38 420 0 208 64 410 251 530 487 l28 57 46 -37 c26 -20 72 -47 104 -60
33 -14 57 -31 57 -39 0 -8 -16 -29 -35 -47 -36 -35 -92 -53 -182 -60 -57 -4
-112 -30 -114 -55 -4 -39 3 -76 16 -89 32 -32 140 -48 303 -45 87 1 173 5 192
8 19 3 55 9 80 12 80 10 272 52 380 83 137 38 179 45 270 44 95 -2 138 -20
187 -80 52 -66 63 -73 99 -69 42 5 51 11 70 48 23 45 14 202 -16 282 -29 77
-125 175 -196 201 -64 24 -69 29 -66 69 3 33 2 34 -62 56 -101 33 -170 29
-270 -18 -69 -33 -76 -39 -202 -163 l-91 -90 -1 88 c0 48 -5 108 -12 133 -32
119 -110 204 -206 226 -36 8 -152 8 -179 0 -11 -3 -30 -8 -41 -11 -22 -7 -22
-6 -21 152 2 151 -5 261 -17 293 -3 8 -7 31 -10 50 -7 45 -41 158 -72 238 -87
221 -257 421 -446 526 -136 75 -322 103 -478 70z m-2180 -1793 l0 -90 -60 0
-60 1 36 56 c49 78 79 122 82 122 1 0 2 -40 2 -89z"/>
<path d="M723 7992 c-18 -2 -33 -9 -34 -15 0 -7 -1 -147 -1 -312 l0 -300 188
-1 c104 -1 212 -2 239 -3 28 -1 84 0 125 1 l75 3 1 313 1 312 -46 1 c-211 3
-522 3 -548 1z"/>
<path d="M3162 7890 c-20 -9 -41 -59 -34 -82 1 -5 -7 -8 -17 -8 -11 0 -22 -4
-25 -8 -8 -13 9 -33 25 -30 11 2 14 -16 15 -92 3 -146 2 -142 22 -138 15 3 18
19 22 118 l5 115 33 -2 c25 -1 32 2 32 16 0 12 -8 18 -22 18 -44 1 -48 3 -48
28 0 27 22 42 58 39 15 -1 22 4 22 17 0 15 -7 19 -32 18 -18 0 -43 -4 -56 -9z"/>
<path d="M2337 7877 c-32 -27 -148 -217 -145 -239 3 -21 8 -22 81 -21 l77 2 0
-43 c0 -38 2 -42 24 -42 20 0 24 5 24 26 -1 56 1 62 21 57 12 -3 22 1 25 10
10 25 7 35 -9 29 -35 -13 -40 2 -39 114 1 61 -2 110 -5 111 -3 0 -14 2 -23 4
-9 2 -23 -2 -31 -8z m9 -214 c-8 -8 -111 -8 -109 0 1 4 26 45 55 90 l53 82 3
-84 c2 -46 1 -86 -2 -88z"/>
<path d="M2820 7797 c0 -83 1 -88 19 -82 62 19 125 4 139 -36 13 -35 2 -77
-25 -94 -23 -16 -85 -17 -132 -4 -22 6 -21 -30 1 -42 12 -6 49 -9 86 -7 58 4
68 8 93 36 55 62 31 166 -43 187 -5 2 -11 4 -15 5 -5 2 -24 3 -43 4 -34 1 -35
2 -35 41 l1 40 69 0 c63 0 70 2 70 20 0 18 -7 20 -92 20 l-93 0 0 -88z"/>
<path d="M3324 7871 c-18 -11 -34 -23 -37 -28 -11 -18 -15 -97 -6 -121 11 -30
45 -61 68 -63 55 -5 69 -2 94 14 l28 19 -7 -29 c-11 -45 -37 -83 -62 -90 -13
-3 -42 -3 -66 0 -37 5 -42 4 -42 -14 0 -37 110 -39 159 -3 48 35 73 144 53
231 -20 89 -108 129 -182 84z m127 -56 c0 -5 2 -19 4 -30 3 -11 0 -34 -6 -52
-8 -26 -17 -34 -46 -39 -32 -6 -40 -3 -60 20 -38 45 -28 111 21 131 26 11 35
11 58 -3 16 -9 28 -21 29 -27z"/>
<path d="M3649 7781 c-68 -103 -88 -146 -75 -158 3 -3 39 -6 81 -6 l75 1 0
-43 c0 -39 2 -43 24 -41 21 1 23 6 22 41 -1 25 4 40 12 41 6 1 19 2 27 3 25 2
17 29 -12 38 -26 9 -26 9 -27 118 l-1 109 -29 2 c-26 1 -35 -9 -97 -105z m76
-119 c-8 -9 -105 -8 -105 1 0 7 22 44 79 132 l26 40 3 -84 c2 -46 0 -86 -3
-89z"/>
<path d="M1780 7861 c0 -10 -5 -32 -11 -50 -9 -24 -16 -30 -32 -27 -32 5 -68
-11 -61 -27 3 -9 18 -13 39 -12 38 3 42 -5 25 -49 -7 -19 -17 -25 -47 -28 -28
-2 -39 -8 -41 -22 -3 -16 1 -18 32 -14 36 4 37 4 31 -26 -11 -61 -10 -71 4
-71 15 0 44 71 36 85 -7 12 13 17 47 12 19 -3 27 -9 24 -18 -3 -7 -8 -28 -11
-48 -6 -28 -4 -34 9 -32 8 1 18 4 20 7 5 5 17 54 18 77 1 10 35 18 62 13 14
-3 36 20 30 31 -3 5 -20 8 -37 6 -31 -3 -32 -1 -29 32 3 42 4 43 45 46 17 1
36 3 40 3 5 1 7 9 5 19 -3 13 -11 16 -37 14 -33 -4 -34 -3 -28 30 3 18 8 41
12 51 5 13 2 17 -13 17 -18 0 -22 -6 -37 -62 -2 -5 -3 -14 -4 -22 -1 -10 -12
-14 -33 -13 -35 2 -37 7 -23 70 4 22 2 27 -15 27 -13 0 -20 -7 -20 -19z m74
-136 c-3 -11 -8 -28 -10 -37 -4 -13 -15 -18 -39 -18 l-33 0 10 39 c9 36 12 39
44 38 29 -1 33 -4 28 -22z"/>
<path d="M2580 7800 c-45 -8 -60 -17 -60 -37 0 -10 5 -13 18 -8 44 18 132 8
132 -16 0 -4 3 -14 6 -22 4 -12 -8 -15 -62 -19 -57 -4 -70 -8 -90 -31 -29 -34
-26 -93 6 -119 31 -25 100 -24 127 2 22 20 22 20 28 0 7 -21 14 -24 30 -12 15
10 12 171 -4 209 -11 28 -31 42 -81 55 -8 2 -31 2 -50 -2z m98 -158 c5 -35
-48 -82 -84 -76 -60 10 -67 77 -10 93 55 15 91 9 94 -17z"/>
<path d="M728 7122 c-38 -3 -38 -3 -39 -50 0 -54 0 -563 0 -574 1 -5 142 -8
315 -8 l313 0 0 311 c1 237 -2 312 -12 315 -14 6 -521 11 -577 6z"/>
<path d="M2563 7007 c-5 -7 -9 -88 -8 -182 0 -168 1 -170 23 -173 15 -2 22 2
22 14 0 16 1 16 19 0 22 -20 77 -27 106 -14 70 32 88 172 30 234 -30 32 -100
41 -128 16 -9 -8 -20 -12 -24 -9 -5 6 -7 49 -3 72 8 37 -19 67 -37 42z m174
-174 c8 -24 9 -55 4 -99 -2 -22 -39 -54 -62 -54 -39 0 -67 26 -74 70 -10 59 2
99 38 120 27 17 33 17 58 5 15 -8 31 -27 36 -42z"/>
<path d="M2901 6996 c-35 -9 -45 -16 -46 -34 -2 -24 7 -27 35 -12 66 35 134
11 132 -47 -1 -35 -8 -45 -104 -146 -38 -38 -68 -78 -68 -88 0 -17 10 -19 109
-19 61 0 112 4 115 8 12 20 -15 31 -84 34 l-75 3 64 65 c69 71 101 127 93 165
-4 26 -47 74 -66 76 -6 0 -22 2 -36 4 -14 2 -45 -2 -69 -9z"/>
<path d="M1793 6992 c-6 -4 -14 -21 -18 -37 -14 -62 -13 -61 -52 -58 -38 3
-62 -15 -40 -29 7 -4 24 -8 40 -8 23 0 27 -4 23 -22 -9 -48 -17 -57 -46 -54
-16 2 -34 0 -40 -4 -21 -13 -5 -34 26 -35 31 0 35 -12 21 -67 -6 -23 -4 -28
12 -28 15 0 22 11 31 49 11 47 13 49 45 49 26 0 33 -4 30 -16 -18 -82 -18 -82
-1 -82 16 0 33 32 40 74 2 17 10 21 42 21 28 1 40 6 42 18 2 9 -2 17 -10 18
-7 1 -22 2 -33 3 -11 0 -20 7 -19 14 1 6 2 23 3 37 1 23 5 25 47 25 38 0 45 3
42 18 -3 17 -7 18 -49 21 -18 1 -21 6 -16 29 3 15 9 35 12 45 6 13 2 17 -14
17 -23 0 -27 -7 -35 -54 -6 -36 -9 -38 -41 -38 -35 0 -36 2 -24 46 11 39 3 61
-18 48z m57 -162 c-12 -43 -18 -49 -45 -47 -28 2 -30 5 -21 47 5 26 10 30 40
30 34 0 34 -1 26 -30z"/>
<path d="M3225 6899 c-62 -94 -93 -157 -77 -161 15 -3 59 -6 109 -7 l52 -1 -4
-40 c-3 -36 -2 -40 20 -40 21 0 24 5 27 43 2 30 7 41 17 39 8 -2 20 -1 28 2
22 9 -2 45 -26 39 -18 -5 -20 1 -20 78 1 156 2 149 -30 149 -25 0 -36 -12 -96
-101z m80 -41 l0 -83 -58 -3 c-31 -2 -57 0 -57 3 0 3 20 37 45 75 25 39 48 77
51 85 12 31 19 4 19 -77z"/>
<path d="M2044 6904 c-54 -28 -79 -112 -53 -181 12 -32 54 -72 78 -74 60 -5
79 -4 106 4 32 11 49 28 37 38 -4 4 -30 2 -57 -4 -63 -13 -103 3 -122 51 l-13
32 99 0 c95 0 99 1 103 23 5 28 -14 76 -39 100 -28 25 -101 30 -139 11z m108
-38 c10 -7 19 -24 20 -37 3 -22 1 -23 -69 -24 -60 -1 -73 2 -73 14 0 23 12 38
43 54 30 16 51 14 79 -7z"/>
<path d="M2341 6904 c-42 -22 -68 -77 -65 -136 2 -43 8 -57 37 -86 31 -30 41
-34 89 -36 57 -1 91 15 82 39 -4 10 -12 11 -35 3 -44 -15 -92 -3 -111 30 -17
30 -18 116 -1 133 20 20 87 37 105 28 20 -11 48 -12 48 -1 -1 34 -101 53 -149
26z"/>
<path d="M108 6321 c-7 -37 9 -119 28 -146 l22 -29 5832 -1 c3208 0 5837 3
5842 6 6 4 8 13 6 20 -3 8 -2 26 2 40 8 29 -7 73 -36 104 -19 20 -32 20 -5856
20 -5042 0 -5838 -2 -5840 -14z"/>
<path d="M2266 6120 c-9 -22 -80 -248 -171 -542 -44 -142 -82 -258 -85 -258
-3 0 -14 28 -24 63 -11 34 -23 69 -27 77 -38 77 -83 241 -74 270 6 19 13 21
80 24 18 1 20 9 23 86 l3 85 -36 35 c-35 34 -36 34 -41 12 l-6 -22 -446 -2
-446 -3 1 -93 c1 -52 3 -96 6 -98 2 -3 22 -5 43 -6 90 -2 106 -25 229 -318 42
-102 113 -270 157 -375 76 -179 176 -419 289 -690 82 -194 93 -219 105 -238
11 -17 13 -16 19 12 6 29 8 30 28 16 12 -8 25 -15 29 -15 4 0 19 39 33 88 15
48 41 128 57 177 17 50 31 95 32 100 9 49 110 337 114 325 8 -24 179 -524 185
-540 3 -8 13 -37 22 -65 10 -27 20 -57 23 -65 7 -20 9 -28 11 -40 2 -22 20 -8
26 20 7 32 14 37 33 18 6 -6 20 -13 29 -14 15 -2 31 36 92 219 41 122 87 256
102 297 l29 75 197 -1 c126 0 203 3 212 10 17 13 71 16 71 5 0 -5 136 -9 301
-9 l301 0 -18 -27 c-9 -15 -21 -32 -26 -38 -28 -34 -156 -215 -198 -280 -113
-175 -282 -502 -279 -540 0 -3 -2 -19 -6 -35 -6 -27 -10 -30 -48 -31 -95 -3
-128 -14 -148 -50 -20 -38 -17 -67 10 -99 37 -44 95 -52 245 -36 27 3 56 8 65
10 15 5 48 10 136 21 47 6 44 5 200 40 149 34 137 31 215 40 36 4 73 9 82 10
9 2 48 7 85 11 37 4 82 8 98 10 46 6 286 15 413 17 110 2 114 3 137 29 61 71
-44 154 -197 157 -21 1 -38 5 -38 11 0 5 22 34 49 62 27 29 62 67 78 84 25 28
63 54 77 54 3 0 2 -10 -3 -22 -12 -35 -6 -140 10 -166 29 -46 85 -48 166 -7
l61 32 29 -22 c41 -32 89 -46 118 -35 14 5 55 29 91 54 l66 44 28 -28 c34 -35
63 -31 100 11 l25 28 74 -37 c68 -34 83 -37 165 -39 110 -3 195 22 273 80 46
34 52 36 57 19 4 -10 22 -33 41 -52 31 -30 41 -34 93 -34 62 0 96 13 204 84
l61 39 29 -44 c28 -42 48 -55 93 -61 36 -5 110 28 155 67 24 22 47 39 50 39 3
0 23 -20 44 -45 l38 -46 -17 -47 c-8 -26 -18 -72 -21 -102 -5 -47 -3 -58 15
-77 28 -30 49 -29 85 2 16 14 26 25 22 25 -4 0 1 12 11 28 11 15 36 66 57 114
21 48 44 93 52 99 9 7 28 8 56 3 109 -21 174 4 286 112 42 40 80 74 83 74 3 0
6 -21 6 -47 1 -40 6 -52 32 -75 32 -29 67 -30 99 -5 6 5 12 7 12 3 0 -4 11 1
26 10 24 17 26 16 52 -15 25 -30 29 -31 57 -21 17 7 51 38 78 73 27 34 69 85
94 112 l45 50 -6 -40 c-14 -85 -14 -102 0 -133 28 -66 122 -72 191 -12 19 17
38 30 42 30 10 0 41 -45 41 -59 0 -5 -55 -37 -122 -71 -68 -34 -137 -70 -155
-81 -18 -12 -33 -17 -33 -12 0 4 -4 3 -8 -3 -4 -6 -26 -22 -48 -35 -127 -74
-159 -95 -195 -131 -41 -42 -65 -104 -53 -141 4 -12 7 -24 6 -27 -1 -11 57
-40 94 -46 65 -11 176 -6 234 11 30 8 62 17 70 19 109 29 250 140 358 281 26
33 50 62 54 63 4 2 8 9 8 15 1 23 70 107 108 130 44 28 141 64 197 73 22 3 45
7 50 8 29 4 56 36 57 65 2 58 -41 75 -139 57 -24 -4 -43 -4 -43 1 0 5 28 51
63 102 34 52 69 106 79 120 9 14 19 51 22 82 4 31 8 66 11 77 2 11 -3 31 -10
46 -13 24 -12 26 5 26 16 0 29 32 81 191 l61 191 -33 35 c-28 28 -36 32 -43
19 -9 -12 -17 -11 -59 10 -33 17 -52 22 -61 15 -9 -7 -11 30 -10 162 1 95 2
173 3 175 0 1 12 -5 25 -13 22 -14 28 -14 77 5 29 12 56 23 60 26 4 2 -3 30
-16 62 -12 31 -26 68 -29 82 l-7 25 21 -25 c18 -21 77 -137 110 -215 4 -11 17
-41 29 -67 12 -26 21 -52 21 -56 0 -5 14 -36 30 -70 17 -34 30 -65 30 -68 0
-8 79 -196 94 -224 8 -14 15 -28 15 -33 0 -4 8 -24 16 -45 86 -204 140 -334
155 -367 10 -22 34 -80 55 -130 20 -49 44 -106 52 -125 8 -19 19 -44 23 -55
25 -63 62 -137 66 -133 2 3 7 16 9 28 6 32 12 35 33 17 19 -18 41 -22 43 -9 2
19 10 46 50 167 24 72 44 133 45 138 1 4 2 8 4 10 1 1 3 9 5 17 7 37 108 340
112 337 4 -5 101 -277 113 -322 7 -25 121 -358 134 -390 2 -5 11 7 20 27 11
26 21 36 31 32 8 -4 15 -10 15 -15 0 -5 9 -9 20 -9 11 0 20 2 20 4 0 2 25 75
56 162 65 186 144 415 148 429 2 6 6 17 9 25 13 33 59 166 62 180 2 8 18 53
35 100 37 99 157 449 172 499 19 64 58 139 88 169 27 28 63 43 115 47 18 1 20
10 22 83 2 80 2 81 -28 103 -20 14 -33 18 -38 11 -4 -6 -97 -10 -267 -9 -143
0 -264 -2 -270 -5 -7 -5 -11 -155 -5 -189 0 -4 16 -7 35 -7 55 0 73 -10 78
-41 5 -36 -85 -326 -102 -326 -10 0 -73 172 -84 230 -4 20 -61 196 -73 225 -3
8 -7 20 -8 26 -7 29 -84 182 -104 204 -12 14 -21 21 -18 15 2 -5 18 -55 36
-110 18 -55 36 -109 41 -120 7 -16 30 -85 35 -105 1 -3 4 -12 8 -20 3 -8 24
-69 47 -135 22 -66 43 -127 47 -135 5 -14 9 -26 16 -55 1 -5 5 -14 9 -20 23
-39 30 -135 9 -135 -5 0 -72 187 -86 240 -1 3 -5 14 -9 25 -4 11 -12 31 -16
45 -4 14 -12 34 -16 45 -4 11 -8 23 -9 28 -2 4 -4 9 -5 12 -1 3 -4 10 -5 15
-1 6 -3 11 -5 13 -1 1 -3 9 -5 17 -2 8 -37 111 -77 227 -64 189 -84 229 -91
182 -2 -8 -8 -27 -14 -44 -9 -24 -208 -666 -216 -698 -3 -11 -20 23 -45 93
-11 30 -32 87 -46 126 -28 76 -39 129 -30 156 5 17 55 34 87 29 9 -1 17 1 18
6 1 4 2 40 4 78 3 67 2 71 -28 98 -26 24 -32 26 -39 12 -5 -8 -14 -12 -20 -9
-6 4 -202 7 -435 7 -399 0 -423 1 -423 18 0 10 -11 31 -26 46 l-25 28 5 -49
c6 -51 -1 -58 -10 -10 -9 47 -15 47 -63 -5 l-48 -51 -74 -1 c-41 0 -426 0
-857 -1 -576 0 -786 3 -796 11 -10 8 -15 8 -18 1 -2 -7 -105 -11 -318 -12
-181 0 -320 -5 -327 -10 -6 -5 -10 -15 -7 -22 4 -9 -12 -7 -53 8 -54 19 -81
21 -416 22 l-357 2 -4 -21 c-3 -12 -4 -35 -3 -52 1 -16 -3 -31 -8 -32 -6 -2
-10 26 -11 67 0 75 -12 105 -50 133 l-25 18 -53 -55 -53 -56 -224 -1 c-123 0
-281 -1 -352 -2 -96 -2 -127 1 -127 11 0 6 5 12 10 12 18 0 10 19 -15 36 -24
15 -26 15 -62 -13 -21 -16 -47 -33 -58 -37 -29 -11 -571 -7 -597 4 -13 5 -38
21 -55 36 -38 31 -36 36 -58 -105 -9 -58 -19 -114 -21 -125 -2 -12 -7 -41 -10
-66 -12 -90 -18 -82 -72 98 -59 193 -72 226 -110 259 l-25 23 -46 -42 c-25
-23 -48 -45 -51 -49 -8 -11 -153 -109 -162 -109 -4 0 -8 7 -8 15 0 8 7 15 15
15 9 0 27 7 41 17 l25 16 -38 34 c-35 32 -38 33 -41 14 -3 -20 -10 -21 -270
-23 l-266 -3 -1 -94 c0 -56 4 -95 10 -97 5 -1 30 -5 54 -8 49 -6 61 -18 55
-50 -2 -12 -6 -31 -8 -44 -8 -38 -100 -312 -106 -312 -3 0 -15 31 -27 68 -19
61 -153 448 -201 585 -20 55 -68 121 -83 112 -3 -3 7 -41 23 -86 16 -45 27
-86 26 -91 -2 -5 -20 40 -40 99 -21 63 -39 102 -42 93z m8598 -240 c-3 -60 -7
-64 -13 -10 -7 56 -2 87 8 57 3 -9 5 -30 5 -47z m-1208 -5 c0 -30 -3 -52 -5
-49 -9 8 -10 104 -2 104 4 0 7 -25 7 -55z m-7286 14 c0 -6 -4 -7 -10 -4 -5 3
-10 11 -10 16 0 6 5 7 10 4 6 -3 10 -11 10 -16z m25 -84 c9 -27 20 -57 23 -65
3 -8 6 -19 8 -25 1 -5 20 -61 42 -123 21 -62 35 -109 30 -104 -4 4 -34 84 -67
178 -32 93 -62 178 -66 189 -5 14 -5 17 2 10 6 -5 18 -32 28 -60z m3071 -65
l24 0 0 -276 c0 -181 -3 -273 -10 -269 -5 3 -10 3 -10 -2 0 -4 -4 -14 -9 -21
-6 -10 -22 -6 -73 18 -37 16 -69 30 -72 30 -3 0 -6 -10 -7 -22 0 -22 -1 -22
-8 -3 -5 11 -7 29 -4 40 2 11 4 84 3 163 0 120 2 142 15 142 8 0 15 -4 15 -10
0 -15 20 -12 81 13 60 24 61 26 29 102 -16 37 -18 43 -26 79 -6 25 -4 28 10
23 10 -4 29 -7 42 -7z m1369 -70 c15 -41 28 -82 30 -90 3 -8 11 -35 20 -59 9
-24 15 -51 13 -59 -3 -17 -98 253 -98 277 0 23 6 11 35 -69z m155 61 c0 -18
-14 -61 -45 -136 -4 -11 -7 -26 -6 -34 1 -7 -2 -10 -8 -6 -6 3 -11 10 -11 15
0 5 -5 21 -12 37 -6 15 -12 30 -13 33 -19 66 -25 86 -25 92 0 4 15 8 33 10 17
2 44 4 60 6 21 2 27 -2 27 -17z m398 -385 c1 -229 -2 -394 -7 -404 -5 -9 -22
-18 -38 -18 -61 -3 -59 1 -58 -76 l0 -71 -57 -60 c-32 -32 -58 -63 -58 -67 0
-5 -6 -15 -12 -22 -18 -19 -96 -133 -125 -182 -15 -25 -21 -31 -17 -16 4 14 9
50 10 80 1 30 5 66 8 80 14 62 -44 150 -100 150 -29 0 -28 15 6 100 21 52 90
241 131 360 11 30 24 64 28 75 10 22 105 277 107 285 3 14 27 70 47 110 25 51
76 84 111 71 21 -8 21 -10 24 -395z m604 193 c0 -474 1 -456 -24 -454 -13 1
-35 -6 -50 -16 -14 -11 -29 -19 -32 -19 -3 0 -6 39 -6 88 0 48 -1 193 -1 323
-1 157 2 243 10 257 13 24 68 34 89 16 10 -9 14 -55 14 -195z m834 104 c-7 -7
-46 76 -45 97 0 8 12 -9 26 -38 14 -29 22 -56 19 -59z m758 10 c16 -49 50
-148 77 -221 27 -74 49 -142 49 -152 0 -43 -18 -24 -42 43 -15 40 -45 124 -68
187 -71 197 -79 230 -57 230 7 0 25 -38 41 -87z m-4214 62 c0 -8 -2 -15 -4
-15 -2 0 -6 7 -10 15 -3 8 -1 15 4 15 6 0 10 -7 10 -15z m3218 -51 c17 -14 32
-29 32 -35 0 -5 -27 -9 -60 -9 -61 0 -68 -6 -61 -52 3 -23 -22 -57 -48 -66
-28 -10 -31 -9 -31 9 0 10 7 19 15 19 25 0 37 39 33 111 -2 40 1 70 7 72 15 5
75 -21 113 -49z m-3480 27 c20 -10 48 -31 61 -45 l24 -26 -66 0 -67 0 0 -42
c0 -24 -4 -49 -8 -55 -11 -17 -72 -29 -72 -15 0 16 21 28 55 31 11 1 14 18 12
86 -2 95 0 97 61 66z m847 -11 c27 -52 8 -149 -30 -150 -8 0 -13 162 -6 178 5
11 23 -3 36 -28z m-2943 -176 c-27 -82 -75 -230 -107 -328 -78 -241 -84 -251
-140 -258 -26 -3 -30 0 -33 25 -3 24 0 27 27 27 27 0 31 5 47 53 9 28 19 57
23 62 3 6 6 15 7 20 1 6 30 89 64 185 34 96 63 180 64 185 2 6 5 17 8 25 3 8
16 44 29 80 25 74 38 95 51 82 5 -5 -13 -73 -40 -158z m1368 18 c10 -32 18
-42 35 -42 11 0 27 6 33 12 10 10 15 10 22 -1 7 -13 14 -13 47 1 l39 15 -1
-284 c0 -304 0 -305 -50 -302 -56 3 -55 4 -55 -79 0 -77 0 -78 -30 -89 -18 -7
-32 -7 -36 -2 -3 5 -4 44 -3 87 1 42 -2 77 -7 77 -18 0 -34 17 -34 36 0 10 -5
19 -11 19 -8 0 60 92 82 110 3 3 14 20 24 39 37 72 11 150 -60 176 l-40 16 2
107 c3 205 1 189 17 167 8 -11 19 -39 26 -63z m-542 -593 c-18 -12 -77 -8 -87
5 -11 15 -42 96 -36 96 2 0 11 -13 20 -30 17 -33 63 -45 50 -12 -4 9 -11 31
-15 47 -5 17 -15 50 -23 75 -8 25 -29 90 -46 145 -17 55 -42 134 -55 175 -13
41 -22 77 -20 79 1 2 24 -5 49 -15 43 -16 48 -16 56 -1 8 14 13 14 44 1 19 -8
36 -14 38 -14 2 0 10 19 18 43 13 38 14 14 17 -272 2 -245 -1 -316 -10 -322z
m-1310 491 c6 -19 15 -50 21 -69 18 -58 -1 -24 -26 46 -26 74 -27 81 -14 68 5
-6 14 -26 19 -45z m3912 8 c7 -18 18 -46 25 -63 7 -16 52 -127 100 -245 48
-118 107 -262 131 -320 40 -97 42 -106 26 -118 -28 -21 -115 -106 -144 -141
-16 -18 -29 -30 -29 -27 -1 3 -2 9 -4 14 -1 4 -5 23 -9 42 -21 99 -105 121
-226 60 l-61 -31 25 38 c13 21 26 52 28 68 l3 30 135 6 c74 3 144 8 155 12 11
3 23 6 26 6 6 1 6 117 0 143 0 4 -16 21 -33 37 -33 31 -33 31 -38 8 -7 -27
-49 -31 -68 -5 -21 28 -43 88 -33 88 5 0 12 -11 15 -25 6 -22 44 -49 55 -39 7
6 -64 203 -101 279 -45 92 -59 117 -73 127 -6 4 6 22 28 44 20 20 37 41 37 46
0 18 18 -2 30 -34z m-114 -80 c36 -65 63 -128 63 -148 0 -8 -10 10 -23 41 -12
31 -37 80 -54 108 -18 28 -28 51 -23 51 4 0 21 -24 37 -52z m-3148 -41 c3 -12
-4 -17 -23 -17 -23 0 -25 2 -15 21 13 23 33 21 38 -4z m-602 -32 c6 -19 7 -32
3 -30 -10 7 -29 65 -21 65 4 0 12 -16 18 -35z m5918 -70 c2 -27 5 -51 5 -53 1
-1 13 -2 29 -1 90 3 182 -4 182 -14 0 -15 -54 -95 -78 -117 -83 -76 -193 -98
-213 -43 -7 20 -6 21 14 14 39 -14 42 -6 37 96 -6 117 -2 189 10 177 5 -5 11
-31 14 -59z m-3431 -42 c-5 -13 85 -19 190 -14 l38 2 -17 -32 c-9 -18 -20 -37
-25 -43 -5 -6 -20 -25 -34 -43 -68 -84 -211 -118 -228 -53 -5 18 -2 20 16 14
12 -3 27 -7 32 -8 6 0 11 42 12 109 2 155 4 168 13 120 4 -22 5 -45 3 -52z
m880 40 c39 -91 39 -91 8 -123 -15 -17 -30 -30 -33 -30 -2 0 -4 43 -4 95 0 52
3 95 6 95 3 0 14 -17 23 -37z m491 -119 c3 -8 2 -12 -4 -9 -6 3 -10 10 -10 16
0 14 7 11 14 -7z m-3186 -21 c14 -37 32 -95 37 -121 3 -18 -1 -20 -43 -19 -25
1 -47 -4 -49 -10 -2 -6 -20 5 -38 25 -33 33 -41 31 -36 -5 2 -13 -4 -15 -34
-15 -49 0 -55 2 -55 27 0 22 4 25 39 25 38 0 39 1 51 47 16 64 25 73 75 73 37
0 44 -3 53 -27z m2732 14 c0 -2 -10 -12 -22 -23 l-23 -19 19 23 c18 21 26 27
26 19z m-498 -139 c-6 -6 -26 -12 -46 -13 -30 -3 -36 -1 -36 16 0 21 15 30 55
33 14 0 26 6 26 11 1 6 4 -1 6 -14 3 -13 0 -28 -5 -33z m-105 -110 c-3 -7 -5
-2 -5 12 0 14 2 19 5 13 2 -7 2 -19 0 -25z m158 -88 l133 0 -19 -22 c-10 -13
-27 -34 -38 -48 l-19 -25 -42 24 c-45 25 -101 25 -151 -1 -50 -27 -169 -110
-169 -119 0 -22 -28 -7 -35 18 -10 41 -24 53 -59 53 -31 0 -141 -51 -199 -92
l-28 -20 -29 32 c-18 21 -38 32 -57 32 -52 2 -55 -2 -221 -198 -33 -39 -75
-83 -93 -97 -19 -15 -40 -32 -46 -38 -9 -7 -13 -6 -13 3 0 7 22 37 49 65 32
36 53 68 61 100 7 27 27 65 43 86 28 36 65 120 62 142 -5 38 -19 76 -32 87
-13 11 45 14 348 19 200 3 377 4 393 2 16 -2 88 -3 161 -3z m2248 -23 c23 -20
37 -25 70 -22 22 1 43 8 45 14 2 6 10 11 17 11 7 0 15 5 17 11 2 7 86 11 268
11 296 0 312 -1 290 -9 -12 -5 -101 -74 -120 -93 -3 -3 -16 -14 -29 -25 -17
-14 -22 -16 -19 -5 7 20 -17 67 -41 80 -33 17 -84 11 -136 -16 -36 -20 -50
-23 -53 -14 -8 24 -62 70 -82 70 -60 0 -101 -36 -184 -160 -72 -108 -85 -125
-90 -119 -2 2 10 29 28 59 17 30 33 69 34 86 4 44 -26 78 -74 80 -44 3 -72
-16 -117 -77 l-30 -40 -15 31 c-20 42 -84 79 -131 75 l-36 -3 3 42 4 41 177
-1 c175 -1 177 -1 204 -27z m-3480 -17 c-43 -23 -85 -48 -93 -57 -14 -16 -13
-16 5 -2 18 13 19 13 7 -3 -8 -10 -20 -14 -29 -11 -10 4 -14 2 -10 -4 4 -6 0
-14 -9 -17 -10 -4 -13 -2 -7 7 12 20 -128 -94 -177 -144 -131 -133 -209 -252
-247 -374 -14 -46 -6 -130 15 -169 12 -22 20 -41 19 -43 -4 -3 -138 -32 -180
-37 -18 -3 -41 -7 -52 -10 -11 -2 -27 -6 -35 -8 -40 -9 34 153 168 368 69 111
213 318 231 334 3 3 19 23 35 45 16 22 34 45 40 50 6 6 27 30 46 55 19 25 39
48 45 52 5 4 77 8 158 8 l148 0 -78 -40z m147 36 c0 -2 -7 -7 -16 -10 -8 -3
-12 -2 -9 4 6 10 25 14 25 6z m1470 0 c0 -3 -4 -8 -10 -11 -5 -3 -10 -1 -10 4
0 6 5 11 10 11 6 0 10 -2 10 -4z m50 1 c0 -2 -20 -18 -45 -36 -25 -18 -45 -30
-45 -27 0 4 81 66 87 66 2 0 3 -1 3 -3z m-2160 -31 c0 -2 -8 -10 -17 -17 -16
-13 -17 -12 -4 4 13 16 21 21 21 13z m525 -16 c-3 -5 -12 -10 -18 -10 -7 0 -6
4 3 10 19 12 23 12 15 0z m1325 -4 c0 -2 -8 -10 -17 -17 -16 -13 -17 -12 -4 4
13 16 21 21 21 13z m-1360 -10 c0 -2 -7 -7 -16 -10 -8 -3 -12 -2 -9 4 6 10 25
14 25 6z m1145 -16 c3 -5 1 -10 -4 -10 -6 0 -11 5 -11 10 0 6 2 10 4 10 3 0 8
-4 11 -10z m42 4 c-3 -3 -12 -4 -19 -1 -8 3 -5 6 6 6 11 1 17 -2 13 -5z m636
-19 c-3 -9 -8 -14 -10 -11 -3 3 -2 9 2 15 9 16 15 13 8 -4z m-282 -28 c-10 -9
-11 -8 -5 6 3 10 9 15 12 12 3 -3 0 -11 -7 -18z m-506 -15 c-53 -42 -60 -46
-33 -19 16 15 31 27 35 27 4 0 3 -3 -2 -8z m475 -12 c-6 -11 -15 -20 -20 -20
-6 0 -2 9 7 20 10 11 19 20 21 20 1 0 -2 -9 -8 -20z m238 6 c-78 -82 -99 -150
-56 -180 12 -9 30 -16 40 -16 16 0 14 -7 -11 -57 -16 -32 -33 -70 -36 -85 -8
-32 -28 -36 -55 -10 -10 9 -46 27 -79 40 -43 17 -61 29 -61 41 0 16 51 91 89
131 9 9 32 34 52 56 58 63 94 91 122 93 5 1 2 -5 -5 -13z m2550 -38 c-34 -48
-77 -96 -138 -156 -50 -49 -131 -112 -144 -112 -7 0 25 60 42 78 6 7 12 16 12
20 0 4 13 22 30 40 16 18 30 36 32 40 7 16 115 105 147 122 44 22 50 12 19
-32z m-3498 37 c0 -2 -10 -9 -22 -15 -22 -11 -22 -10 -4 4 21 17 26 19 26 11z
m-1404 -33 c-17 -16 -18 -16 -5 5 7 12 15 20 18 17 3 -2 -3 -12 -13 -22z m463
26 c-2 -2 -20 -16 -39 -33 l-35 -30 29 33 c17 17 34 32 40 32 5 0 7 -1 5 -2z
m1921 -1 c0 -2 -10 -12 -22 -23 l-23 -19 19 23 c18 21 26 27 26 19z m797 -14
c-2 -5 -13 -26 -23 -48 -10 -22 -22 -44 -26 -50 -4 -5 -19 -24 -33 -41 -14
-18 -25 -35 -25 -38 0 -15 -158 -185 -203 -218 l-29 -20 5 28 c14 89 152 271
276 366 34 26 68 38 58 21z m-2454 -53 c-32 -49 -97 -120 -152 -166 -29 -24
-85 -73 -125 -108 -39 -35 -87 -76 -106 -92 -19 -16 -37 -31 -40 -35 -9 -11
-52 -31 -57 -26 -5 5 6 25 56 102 37 58 133 152 231 227 176 135 236 165 193
98z m387 36 c0 -3 -4 -8 -10 -11 -5 -3 -10 -1 -10 4 0 6 5 11 10 11 6 0 10 -2
10 -4z m427 -40 c-15 -14 -27 -22 -27 -18 0 9 44 50 49 46 2 -2 -8 -15 -22
-28z m-484 -9 c-15 -19 -30 -32 -32 -30 -5 3 49 63 57 63 2 0 -9 -15 -25 -33z
m246 30 c-2 -1 -13 -9 -24 -17 -19 -14 -19 -14 -6 3 7 9 18 17 24 17 6 0 8 -1
6 -3z m1024 -21 c-10 -13 -20 -22 -22 -20 -4 4 29 44 36 44 2 0 -4 -11 -14
-24z m-292 -19 l-24 -22 19 27 c10 14 21 24 23 22 3 -3 -6 -15 -18 -27z
m-1656 13 c-3 -5 -12 -10 -18 -10 -7 0 -6 4 3 10 19 12 23 12 15 0z m865 -15
c-7 -8 -17 -15 -23 -15 -6 0 -2 7 9 15 25 19 30 19 14 0z m525 5 c7 -11 -21
-55 -67 -105 -37 -41 -68 -77 -82 -95 -32 -40 -166 -163 -172 -157 -16 16 106
179 218 290 78 77 91 86 103 67z m-1416 -13 c-2 -1 -15 -11 -29 -22 l-25 -20
19 23 c11 12 24 22 29 22 6 0 8 -1 6 -3z m1126 -35 l-28 -27 24 31 c13 17 26
30 28 27 3 -2 -8 -16 -24 -31z m2195 13 c-24 -64 -152 -215 -204 -240 -30 -15
-76 -20 -76 -9 0 22 195 224 215 224 6 0 28 17 48 37 20 20 27 15 17 -12z
m-3730 11 c0 -2 -8 -10 -17 -17 -16 -13 -17 -12 -4 4 13 16 21 21 21 13z
m2063 -21 c-3 -9 -8 -14 -10 -11 -3 3 -2 9 2 15 9 16 15 13 8 -4z m2487 -25
c-12 -17 -24 -29 -27 -26 -3 2 5 18 18 35 29 40 38 32 9 -9z m-3490 17 c0 -2
-10 -12 -22 -23 l-23 -19 19 23 c18 21 26 27 26 19z m1626 -24 c-4 -16 -8 -35
-10 -43 -5 -21 25 -80 41 -80 7 0 13 -3 13 -6 0 -10 -41 -43 -82 -66 -21 -12
-38 -25 -38 -30 0 -4 -6 -8 -13 -8 -7 0 -22 -8 -33 -17 -11 -10 -24 -19 -29
-19 -6 -1 -20 -5 -31 -8 -19 -6 -22 -3 -20 24 0 16 4 30 8 30 5 0 8 9 8 20 0
11 5 20 10 20 6 0 10 6 10 14 0 26 141 196 163 196 5 0 6 -12 3 -27z m-2331 7
c-3 -5 -12 -10 -18 -10 -7 0 -6 4 3 10 19 12 23 12 15 0z m1685 -4 c0 -2 -8
-10 -17 -17 -16 -13 -17 -12 -4 4 13 16 21 21 21 13z m-530 -10 c0 -2 -8 -10
-17 -17 -16 -13 -17 -12 -4 4 13 16 21 21 21 13z m-1180 -9 c0 -2 -12 -14 -27
-28 l-28 -24 24 28 c23 25 31 32 31 24z m3995 -9 c-11 -6 -27 -16 -35 -22 -9
-6 -5 -1 8 12 13 12 28 22 35 22 7 0 3 -6 -8 -12z m-2324 -31 c-10 -9 -11 -8
-5 6 3 10 9 15 12 12 3 -3 0 -11 -7 -18z m-521 10 c0 -2 -12 -14 -27 -28 l-28
-24 24 28 c23 25 31 32 31 24z m-1572 -34 c-8 -10 -20 -27 -26 -38 -6 -11 -12
-15 -12 -9 0 12 38 64 47 64 3 0 -1 -8 -9 -17z m3922 4 c0 -2 -10 -12 -22 -23
l-23 -19 19 23 c18 21 26 27 26 19z m430 0 c0 -2 -12 -14 -27 -28 l-28 -24 24
28 c23 25 31 32 31 24z m-2304 -32 c-9 -34 29 -98 69 -118 16 -9 48 -21 70
-28 53 -15 59 -19 47 -31 -6 -6 -45 -12 -89 -13 -67 -3 -85 0 -131 22 -30 14
-56 32 -59 40 -9 22 68 151 91 152 4 1 5 -10 2 -24z m-1046 -38 l-44 -42 40
46 c21 25 41 44 44 42 2 -2 -16 -23 -40 -46z m496 5 c-17 -16 -18 -16 -5 5 7
12 15 20 18 17 3 -2 -3 -12 -13 -22z m-1185 -5 c-10 -9 -11 -8 -5 6 3 10 9 15
12 12 3 -3 0 -11 -7 -18z m-351 -1 c0 -2 -8 -10 -17 -17 -16 -13 -17 -12 -4 4
13 16 21 21 21 13z m1485 -33 c-15 -37 -63 -88 -73 -78 -5 5 23 50 50 79 10
11 18 23 18 28 0 4 5 8 10 8 6 0 4 -16 -5 -37z m2826 14 c-10 -9 -11 -8 -5 6
3 10 9 15 12 12 3 -3 0 -11 -7 -18z m-4331 -21 c0 -2 -8 -10 -17 -17 -16 -13
-17 -12 -4 4 13 16 21 21 21 13z m1533 -11 c-3 -9 -8 -14 -10 -11 -3 3 -2 9 2
15 9 16 15 13 8 -4z m3127 1 c0 -2 -8 -10 -17 -17 -16 -13 -17 -12 -4 4 13 16
21 21 21 13z m40 -16 c6 -11 9 -20 8 -20 -2 0 -11 9 -21 20 -9 11 -13 20 -7
20 5 0 14 -9 20 -20z m545 0 c-3 -5 -18 -9 -33 -9 l-27 1 30 8 c17 4 31 8 33
9 2 0 0 -3 -3 -9z m-4922 -25 c-3 -9 -8 -14 -10 -11 -3 3 -2 9 2 15 9 16 15
13 8 -4z m637 12 c0 -2 -15 -16 -32 -33 l-33 -29 29 33 c28 30 36 37 36 29z
m3207 -17 c4 -11 2 -12 -5 -2 -5 7 -16 10 -25 6 -9 -3 -17 -2 -17 4 0 15 43 8
47 -8z m446 5 c-3 -9 -8 -14 -10 -11 -3 3 -2 9 2 15 9 16 15 13 8 -4z m567 11
c0 -2 -9 -6 -20 -9 -11 -3 -20 -1 -20 4 0 5 9 9 20 9 11 0 20 -2 20 -4z
m-3909 -29 c-10 -9 -11 -8 -5 6 3 10 9 15 12 12 3 -3 0 -11 -7 -18z m184 -32
c-33 -30 -64 -55 -68 -55 -5 0 20 25 55 55 82 71 91 71 13 0z m2581 17 c18 2
30 0 28 -4 -15 -24 -94 6 -94 36 0 6 7 0 16 -13 13 -18 24 -22 50 -19z m448
-2 c-6 -5 -24 21 -24 34 0 6 6 1 14 -10 8 -10 12 -21 10 -24z m641 30 c-3 -5
-14 -10 -23 -9 -14 0 -13 2 3 9 27 11 27 11 20 0z m-390 -20 c10 -11 16 -20
13 -20 -3 0 -13 9 -23 20 -10 11 -16 20 -13 20 3 0 13 -9 23 -20z m-1484 -7
c11 -15 11 -16 0 -6 -7 6 -21 9 -30 6 -14 -4 -14 -3 -1 6 8 6 16 11 16 11 1 0
8 -8 15 -17z m1329 7 c0 -5 -5 -10 -11 -10 -5 0 -7 5 -4 10 3 6 8 10 11 10 2
0 4 -4 4 -10z m-1661 -4 c-10 -9 -69 -36 -69 -32 0 7 52 35 64 36 5 0 7 -2 5
-4z m1307 -12 c9 3 12 1 9 -4 -9 -14 -28 -12 -51 6 -18 14 -18 15 4 4 13 -6
30 -9 38 -6z m324 0 c0 -2 -11 -4 -25 -4 -14 0 -25 4 -25 9 0 4 11 6 25 3 14
-2 25 -6 25 -8z m-4616 -19 c-9 -14 -18 -25 -21 -25 -5 0 5 18 20 38 17 22 18
13 1 -13z m3846 21 c0 -3 -4 -8 -10 -11 -5 -3 -10 -1 -10 4 0 6 5 11 10 11 6
0 10 -2 10 -4z m1260 -3 c-8 -3 -35 -21 -60 -40 l-45 -35 45 41 c25 23 52 41
60 40 13 0 13 -1 0 -6z m-1840 -6 c0 -2 -10 -12 -22 -23 l-23 -19 19 23 c18
21 26 27 26 19z m85 -33 c9 -15 12 -23 6 -20 -11 7 -35 46 -28 46 3 0 12 -12
22 -26z m-970 6 c-3 -5 -12 -10 -18 -10 -7 0 -6 4 3 10 19 12 23 12 15 0z
m525 5 c0 -2 -20 -18 -45 -35 -25 -17 -45 -29 -45 -26 0 4 80 64 88 66 1 0 2
-2 2 -5z m797 -9 c31 0 38 -3 26 -10 -10 -6 -40 -4 -80 4 -52 10 -66 10 -81
-1 -16 -13 -16 -12 -2 4 12 16 21 18 55 11 22 -4 59 -8 82 -8z m83 10 c0 -2
-7 -7 -16 -10 -8 -3 -12 -2 -9 4 6 10 25 14 25 6z m-1440 -10 c0 -2 -7 -7 -16
-10 -8 -3 -12 -2 -9 4 6 10 25 14 25 6z m725 -60 c16 -4 15 -4 -4 -3 -14 1
-33 16 -49 37 l-25 35 29 -32 c16 -17 38 -34 49 -37z m-828 48 c-3 -3 -12 -4
-19 -1 -8 3 -5 6 6 6 11 1 17 -2 13 -5z m56 -1 c-7 -2 -19 -2 -25 0 -7 3 -2 5
12 5 14 0 19 -2 13 -5z m302 -13 c3 -5 1 -10 -4 -10 -6 0 -11 5 -11 10 0 6 2
10 4 10 3 0 8 -4 11 -10z m551 -25 c-11 -8 -25 -15 -30 -15 -6 1 0 7 14 15 32
19 40 18 16 0z m-346 -5 c0 -12 -65 -30 -112 -30 -43 0 -68 8 -68 22 0 6 7 5
15 -2 18 -15 131 -8 148 9 13 13 17 14 17 1z m-2857 -25 c-3 -9 -8 -14 -10
-11 -3 3 -2 9 2 15 9 16 15 13 8 -4z m783 -40 c19 -40 16 -47 -23 -50 -16 -1
-47 -4 -70 -6 -24 -2 -44 1 -45 6 -2 10 98 85 113 85 5 0 16 -16 25 -35z m237
-19 c4 -10 1 -13 -8 -9 -8 3 -12 9 -9 14 7 12 11 11 17 -5z m-1062 -29 c-10
-9 -11 -8 -5 6 3 10 9 15 12 12 3 -3 0 -11 -7 -18z m4845 -18 c-78 -112 -191
-179 -331 -195 -22 -3 -46 -7 -52 -9 -21 -7 -15 15 10 36 55 47 262 165 332
189 54 19 65 13 41 -21z m-3836 5 c0 -8 -19 -13 -24 -6 -3 5 1 9 9 9 8 0 15
-2 15 -3z m37 0 c-3 -3 -12 -4 -19 -1 -8 3 -5 6 6 6 11 1 17 -2 13 -5z m-1064
-44 c-3 -12 -8 -19 -11 -16 -5 6 5 36 12 36 2 0 2 -9 -1 -20z m3525 -65 c3 -3
-4 -5 -16 -5 -11 0 -23 4 -27 9 -6 10 33 6 43 -4z m1347 -55 c-10 -11 -22 -20
-28 -20 -5 0 1 9 14 20 31 25 37 25 14 0z m-84 -60 c-30 -17 -56 -29 -58 -27
-4 5 89 56 102 57 6 0 -14 -14 -44 -30z m-453 -69 c9 -6 12 -11 5 -11 -15 0
-43 28 -43 43 0 7 5 4 11 -5 5 -10 17 -22 27 -27z m381 34 c-12 -11 -79 -34
-79 -27 0 4 15 13 33 19 38 12 52 15 46 8z m-124 -40 c-45 -14 -235 -20 -235
-8 0 5 35 7 78 5 42 -2 97 1 122 6 64 14 82 12 35 -3z"/>
<path d="M5938 3463 c-5541 -3 -5828 -4 -5829 -21 -3 -66 5 -110 26 -137 l23
-31 5838 1 5839 0 2 64 c1 61 -1 66 -33 98 -19 18 -35 32 -37 31 -1 -2 -2624
-4 -5829 -5z"/>
</g>
</svg>
