<?xml version="1.0" encoding="utf-8"?>
<!-- Generator: Adobe Illustrator 19.2.1, SVG Export Plug-In . SVG Version: 6.00 Build 0)  -->
<svg version="1.1" id="Layer_1" xmlns="http://www.w3.org/2000/svg" xmlns:xlink="http://www.w3.org/1999/xlink" x="0px" y="0px"
	 viewBox="0 0 790.1 329.9" style="enable-background:new 0 0 790.1 329.9;" xml:space="preserve">
<style type="text/css">
	.st0{fill-rule:evenodd;clip-rule:evenodd;fill:#4A5F94;}
	.st1{fill-rule:evenodd;clip-rule:evenodd;fill:#B2B3B4;}
	.st2{fill-rule:evenodd;clip-rule:evenodd;fill:#FFFFFF;}
	.st3{fill-rule:evenodd;clip-rule:evenodd;fill:#B1B1B1;}
	.st4{fill-rule:evenodd;clip-rule:evenodd;fill:#ECB244;stroke:#000000;stroke-miterlimit:10;}
</style>
<g>
	<polygon class="st0" points="5.3,319.2 787.6,319.2 787.6,326.5 5.3,326.5 2.1,322.6 2.1,315.3 5.3,319.2 	"/>
	<polygon class="st1" points="2.1,315.3 784.4,315.3 784.4,322.6 2.1,322.6 2.1,315.3 	"/>
	<polygon class="st0" points="787.6,319.2 787.6,326.5 784.4,322.6 784.4,315.3 787.6,319.2 	"/>
	<polygon class="st0" points="5.3,146.5 787.6,146.5 787.6,153.9 5.3,153.9 2.1,150 2.1,142.7 5.3,146.5 	"/>
	<polygon class="st1" points="2.1,142.7 784.4,142.7 784.4,150 2.1,150 2.1,142.7 	"/>
	<polygon class="st0" points="787.6,146.5 787.6,153.9 784.4,150 784.4,142.7 787.6,146.5 	"/>
	<path class="st1" d="M392,4.5c-31.4,0-56.8,29.9-56.8,66.7S360.6,138,392,138c31.4,0,56.8-29.9,56.8-66.7S423.4,4.5,392,4.5
		L392,4.5z"/>
	<path class="st2" d="M195.7,179.5c-0.1,0-0.1,0.1-0.2,0.1c-2.5,1.9-4.1,5.9-5.1,8.7L156,277.1L136.4,226l-17.8,50.5l-41.1-87.9
		c-1.5-3.2-4.3-9-7.8-10.4c-0.8-0.3-1.6-0.4-2.5-0.4c-0.1,0-0.2,0-0.3,0h-4.2v-12.2h61.4v12.1l-4.1,0.1c-0.6,0-2.7,0.2-3.2,0.8
		c-0.1,0.2-0.1,0.6-0.1,0.8c0,1.4,0.6,3.2,1.2,4.4l9.9,24.8l18.9-54.3l20.7,54.4l8.8-23.6c0.6-1.6,0.8-3.6,0.8-5.3
		c0-0.3,0-0.8-0.2-1c-0.5-0.8-3.1-1.1-3.8-1.1l-3.9-0.3v-11.9h35.6v5.8c4.7-2,9.2-5.2,12.9-8.1l4.7-3.7l15.6,45.1l4.1,1.1l-0.9,4
		c-0.1,0.4-0.2,0.9-0.4,1.3l-0.3,0.8l3,8.6c0.4,1.2,1.9,5.9,2.9,6.7c0.3,0.3,1.1,0.3,1.5,0.3l1.3,0l0.2,0c0.5,0,2.4-0.2,2.9-0.6
		c0.3-0.5,0.4-2.5,0.4-3.1v-42.4c-3.2,2-5.3,5.3-6.9,9.2l-1.5,3.7l-9.2-3.3l5.4-28.4l5.3,3.5c1.2,0.8,4.3,0.9,5.7,0.9h30.7
		c1.4,0,4.4-0.1,5.6-0.9l5.3-3.5l0.9,4.4H337c1.3,0,5.1-0.1,6.1-1.1l5.5-5.5l1.6,7.6c1.1,5.2,2.5,10.9,4.9,15.7l2.1,4.2l-10.2,3.9
		l-1.9-2.8c-0.1-0.2-0.3-0.4-0.4-0.6v25.7H334l-0.3-3.9c-0.1-1.1-0.4-2.5-1.1-3.4c-0.9-1-2.5-1.5-4.1-1.8v14.5c0,1.1,0,5.4,0.9,6.3
		c0.5,0.5,2.4,0.6,3,0.6c7.7,0,13.9-6.4,16.9-13l1.7-3.8l10,4.3l-4.9,13.8l3.3-0.2c0.5,0,2.3-0.2,2.8-0.5c0.3-0.5,0.4-2.6,0.4-3.1
		v-42.2c0-0.6,0-2.6-0.4-3.1c-0.5-0.3-2.3-0.5-2.8-0.5l-3.9-0.3V167h40.3c5.1,0,10.8,0.6,15.7,2.7V167h43.2v10.9l-4.1,0.1
		c-0.1,0-0.3,0-0.5,0c0.1,0.5,0.3,1,0.5,1.3l6.4,16.6l6.2-15.4c0.3-0.7,0.5-1.6,0.5-2.4c-0.3-0.1-0.8-0.1-1-0.1l-4.1-0.1V167h108.8
		c1.3,0,5.1-0.1,6.1-1.1l5.5-5.5l1.1,5.2H641v12.1l-4.1,0.1c-0.6,0-2.7,0.2-3.2,0.8c-0.1,0.2-0.1,0.6-0.1,0.8c0,1.4,0.6,3.2,1.2,4.4
		l9.9,24.8l18.9-54.3l20.7,54.4l8.8-23.6c0.6-1.6,0.8-3.6,0.8-5.3c0-0.3,0-0.8-0.2-1c-0.5-0.8-3.1-1.1-3.8-1.1l-3.9-0.3v-11.9h35.6
		v11.8l-3.8,0.4c-1.9,0.2-3.9,0.6-5.5,1.8c-2.5,1.9-4.1,5.9-5.1,8.7l-34.5,88.9L653.2,226l-17.8,50.5l-41.1-87.9
		c-1.5-3.2-4.3-9-7.8-10.4c-0.8-0.3-1.6-0.4-2.5-0.4c-0.1,0-0.2,0-0.3,0h-0.9c0.7,2,1.5,4,2.4,5.9l2.1,4.2l-10.2,3.9l-1.9-2.8
		c-0.1-0.2-0.3-0.4-0.4-0.6v25.7h-10.8l-0.3-3.9c-0.1-1.1-0.4-2.5-1.1-3.4c-0.9-1-2.5-1.5-4.1-1.8v14.5c0,1.1,0,5.4,0.9,6.3
		c0.5,0.5,2.4,0.6,3,0.6c7.7,0,13.9-6.4,16.9-13l1.7-3.8l10,4.3l-8.7,24.6h-99.3v-10.7l3.9-0.3c0.5,0,2.3-0.2,2.8-0.5
		c0.3-0.5,0.4-2.6,0.4-3.1v-42.2c0-0.6,0-2.6-0.4-3.1c-0.5-0.3-2.3-0.5-2.8-0.5l-2.9-0.2v0l-4,0.2c-2.9,0.1-4.6,3.7-5.5,6
		l-25.8,62.7L422,188.2c-0.6,4.6-3.1,8.3-6.8,10.7c5.6,6.1,8,13.9,11.1,22.1c0.5,1.3,1.8,5.2,3,6c0.5,0.3,1.4,0.4,1.9,0.4l4.1,0.1
		v10.8h-79.9v-8.8l-3.1,8.8h-59.4v-10.7l3.9-0.3c0.5,0,2.3-0.2,2.8-0.5c0.3-0.5,0.4-2.6,0.4-3.1v-42.2c0-0.6,0-2.6-0.4-3.1
		c-0.5-0.3-2.3-0.5-2.8-0.5l-0.7,0l2.5,13l-9.2,3.3l-1.5-3.7c-1.6-3.9-3.7-7.2-6.9-9.2v42.5c0,0.6,0,2.6,0.4,3.1
		c0.5,0.3,2.3,0.5,2.8,0.5l3.9,0.3v10.7h-79.6v-11h4.2c0.2,0,0.5,0,0.7,0c0.3,0,1.1,0,1.6-0.2c0,0,0,0,0,0c0-0.7-0.3-1.6-0.5-2.3
		l-2.6-7.6h-11.7l-1.9,5.7c-0.3,0.9-0.6,2.1-0.6,3.1c0,0.1,0,0.7,0.1,0.8c0.2,0.3,1.6,0.4,2,0.5l4,0.2v10.8h-28.3v-10.7l3.9-0.3
		c1.1-0.1,2.2-0.3,3.1-0.9c1.8-1.2,3.1-4.5,3.8-6.4l13.4-37c-0.6-0.9-1.3-1.7-2.2-2.3L195.7,179.5L195.7,179.5z M524.3,227.6
		l2.6-0.2c0.5,0,2.3-0.2,2.8-0.5c0.3-0.5,0.4-2.6,0.4-3.1v-42.2c0-0.6,0-2.6-0.4-3.1c-0.5-0.3-2.3-0.5-2.8-0.5l-2.5-0.2l-2.6,0.2
		c-0.5,0-2.3,0.2-2.8,0.5c-0.3,0.5-0.4,2.6-0.4,3.1v42.2c0,0.6,0,2.6,0.4,3.1c0.5,0.3,2.3,0.5,2.8,0.5L524.3,227.6L524.3,227.6z
		 M572.7,185.5c-3.7-4.2-7.9-6-14.2-6.1V193c2-0.3,4-0.8,4.7-1.8c0.4-0.5,0.5-1.2,0.5-1.8l0.3-3.9H572.7L572.7,185.5z M394.7,227.8
		l2.8-0.4c0.2,0,0.5-0.1,0.7-0.1c0-0.3,0-0.7,0-0.9c0-4.5-3.8-12.8-5.7-16.7c-0.4-0.7-0.9-1.8-1.6-2.8v16.8c0,0.5,0,2.7,0.3,3.1
		c0.3,0.3,1.4,0.5,1.7,0.6L394.7,227.8L394.7,227.8z M342.7,185.5c-3.7-4.2-7.9-6-14.2-6.1V193c2-0.3,4-0.8,4.7-1.8
		c0.4-0.5,0.5-1.2,0.5-1.8l0.3-3.9H342.7L342.7,185.5z M390.9,191.3c2.6-0.6,3.5-2.4,3.5-6.2c0-3.2-1.2-4.8-3.5-5.5V191.3
		L390.9,191.3z M204.5,205.4h3.5l-1.7-5L204.5,205.4L204.5,205.4z"/>
	<path class="st0" d="M238,206.3l-0.2,0.6C237.9,206.8,238,206.6,238,206.3L238,206.3z M635.8,263l18.2-51.6l19.8,51.6l30.5-78.7
		c3.2-8.3,6.2-12.4,14.1-13.2v-3.8h-27.2v3.8c5.4,0.4,7.9,2.4,7.9,6.3c0,2.4-0.4,4.8-1.1,6.7l-12.8,34l-20.6-54.1l-18.8,54.1
		L631.8,183c-0.9-2.3-1.5-4.3-1.5-6.1c0-3.6,2.6-5.6,7.4-5.8v-3.8h-53v3.8c0.1,0,0.1,0,0.3,0c6.2,0,9.8,4.3,14.1,13.3L635.8,263
		L635.8,263z M528,231.7h52.2l6.4-18.1l-2.6-1.1c-4.5,9.9-12.7,15.5-20.7,15.5c-6.9,0-8.1-3.3-8.1-11v-19c0.3,0,0.5,0,0.8,0
		c8.3,0,12.3,2.8,12.9,9.2h2.7v-20.1h-2.7c-0.4,5.6-4.7,7.8-13.7,7.8v-22.4h3.7c9.3,0,15.4,3.2,20.8,11.4l2.6-1
		c-2.3-4.6-3.9-10.2-5.3-16.7c-1.6,1.6-4.7,2.4-9.1,2.4h-40v2.6c5.7,0.4,7.1,2.1,7.1,7.8v42.2c0,5.7-1.4,7.5-7.1,7.8V231.7
		L528,231.7z M522.4,168.8h-34.3v2.6c5.7,0.4,7.1,2.2,7.1,7.8v42.2c0,5.7-1.4,7.5-7.1,7.8v2.6h34.3v-2.6c-5.7-0.4-7.1-2.2-7.1-7.8
		v-42.2c0-5.7,1.4-7.5,7.1-7.8V168.8L522.4,168.8z M480.7,168.8h-17.2v2.6c3.5,0.1,5.1,1.5,5.1,4.2c0,1.2-0.3,2.6-0.8,4L457.5,205
		l-10.2-26.6c-0.5-1.6-0.9-2.7-0.9-3.6c0-2.3,1.6-3.3,4.8-3.4v-2.6h-34.8v2.6c3.3,0.3,5.6,2.1,7.2,5.7l25.7,56.6l22.1-53.7
		c2.3-5.6,5.3-8.4,9.2-8.6V168.8L480.7,168.8z M387.6,220.5v-22.7c0.3,0,0.5,0,0.7,0c3.6,0,6.2,2.5,8.8,7.6c0.7,1.4,1.3,2.7,1.9,4
		c1.5-1.1,3-2.1,4.8-2.7c2-0.6,4.1-0.5,6.1,0.3c1.8,0.7,3.4,1.8,3.9,3.8c0.9,3.3-1.9,6.9-3.9,9.2c-1.6,1.8-3.6,3.6-5.6,5.1
		c-2,1.6-2.1,1.7-4.7,4.1c0,0-0.1,0.1-0.1,0.1c-0.1,0.1-0.1,0.4-0.2,0.5l-0.1,0.4l-0.2,0.2v1.4H432v-2.6c-5.1-0.2-6.3-2.9-8.7-9.2
		c-3.6-9.9-6.3-18.9-14.9-24.7c6.8-1.6,10.5-5.9,10.5-11.8c0-9.3-7.7-14.7-22.4-14.7h-36.1v2.6c5.7,0.4,7.1,2.2,7.1,7.8v42.2
		c0,5.7-1.4,7.5-7.1,7.8v2.6h17.1C382.2,227.7,384.1,224.1,387.6,220.5L387.6,220.5z M401,213.8c0.9,2.4,1.5,4.5,1.9,6.2
		c0.7-0.5,1.4-1.1,2-1.7c1.2-1.1,2.6-2.4,3.5-3.8c0.3-0.5,1-1.5,0.9-2.2c-0.6-0.7-1.2-1.2-2.1-1.3
		C405.2,210.7,402.8,212.3,401,213.8L401,213.8z M383.9,231.7h6.9l1.2-1.3c0.3-0.4,0.7-0.7,1.1-1.1v-0.2c-2.3-0.5-3.7-1.2-4.5-2.5
		L383.9,231.7L383.9,231.7z M387.6,193.3v-20.6c0.5,0,1-0.1,1.5-0.1c6.8,0,10.5,3.7,10.5,10c0,7.3-3.4,10.7-10.8,10.7
		C388.5,193.3,388,193.3,387.6,193.3L387.6,193.3z M297.9,231.7h52.2l6.4-18.1l-2.6-1.1c-4.5,9.9-12.7,15.5-20.7,15.5
		c-6.9,0-8.1-3.3-8.1-11v-19c0.3,0,0.5,0,0.8,0c8.3,0,12.3,2.8,12.9,9.2h2.7v-20.1h-2.7c-0.4,5.6-4.7,7.8-13.7,7.8v-22.4h3.7
		c9.3,0,15.4,3.2,20.8,11.4l2.6-1c-2.3-4.6-3.9-10.2-5.3-16.7c-1.6,1.6-4.7,2.4-9.1,2.4h-40v2.6c5.7,0.4,7.1,2.1,7.1,7.8v42.2
		c0,5.7-1.4,7.5-7.1,7.8V231.7L297.9,231.7z M257.7,172.9v48.4c0,5.7-1.5,7.5-7.2,7.8v2.6h34.3v-2.6c-5.7-0.4-7.1-2.2-7.1-7.8v-48.4
		c6.7,1.1,11.5,5.3,15,13.6l2-0.7l-3.6-18.6c-1.6,1.1-4.3,1.6-7.9,1.6h-30.7c-3.6,0-6.4-0.5-8-1.6l-3.6,18.6l2,0.7
		C246,178.5,250.9,174.1,257.7,172.9L257.7,172.9z M180.7,231.7h19.9v-2.6c-4-0.2-6.1-2-6.1-5.5c0-1.5,0.4-3.1,0.8-4.5l2.9-8.6h17.7
		l3.6,10.5c0.5,1.4,0.7,2.6,0.7,3.6c0,2.9-1.9,4.4-5.8,4.4c-0.3,0-0.5,0-0.7,0v2.6h35v-2.6c-5.2-0.1-6-3.4-8.3-9.9l-19.1-55.2
		c-7.4,5.9-14.3,9.6-20.3,10.8c2.1,1.5,3.5,3.3,4.4,5.6l-14,38.7c-2.5,6.8-4.9,9.7-10.6,10V231.7L180.7,231.7z M199.5,207.2l7.8-22
		l7.6,22H199.5L199.5,207.2z M119,263l18.2-51.6l19.8,51.6l30.5-78.7c3.2-8.3,6.2-12.4,14.1-13.2v-3.8h-27.2v3.8
		c5.4,0.4,7.9,2.4,7.9,6.3c0,2.4-0.4,4.8-1.1,6.7l-12.8,34l-20.6-54.1l-18.8,54.1L115,183c-0.9-2.3-1.5-4.3-1.5-6.1
		c0-3.6,2.6-5.6,7.4-5.8v-3.8h-53v3.8c0.1,0,0.1,0,0.3,0c6.2,0,9.8,4.3,14.1,13.3L119,263L119,263z"/>
	<path class="st1" d="M267.8,103.3c-1.8,0.4-3.2,0.2-5.1,0.3c-10.2,0.5-19,12.3-16,23.7c0.5-0.6,0.9-1.2,1.3-1.8
		c0.7-1,0.9-1.1,1.7-1.9c1.1-1.1,2.8-2.3,4.4-3c3.9-1.7,6.9-2.6,12.3-2.5c8.3,0.1,17.7,2.1,24.9,4.3c7.6,2.3,16.3,3.6,24.5,4.4
		c6.5,0.7,22,0.5,27.5-1.1c-9-0.9-12.9-0.4-19.8-7c-0.9-0.9-0.3-0.4-0.9-1.3c-0.8-1.2-0.5-0.1-1.7-2.7c-4.1-9.2,2.1-16.9,7.6-14.6
		c2.5,1,2.3,3.1,2.4,6c3.8-1.2,5.9-3.1,6.1-7.6c0.3-8.4-8.2-13-16.7-11.6c-13.2,2.2-17.9,19.1-6.5,30.1c2.4,2.3,5.1,4.5,8.3,6l5,2.2
		c-10.6,1.2-22-6.3-29.2-13.1c-0.6-0.6-0.9-0.9-1.5-1.4c-0.9-0.8-1.8-1.7-2.9-2.6c-2.4-2.1-6.9-6.4-9.4-7.9
		c-4.2-2.5-12.1-5.9-18-2.8C266.6,100.4,267.2,101.3,267.8,103.3L267.8,103.3z"/>
	<path class="st1" d="M516.2,103.3c1.9,0.4,3.2,0.2,5.1,0.3c10.2,0.5,19,12.3,16,23.7c-0.5-0.6-0.9-1.2-1.3-1.8
		c-0.7-1-0.9-1.1-1.7-1.9c-1.1-1.1-2.8-2.3-4.4-3c-3.9-1.7-6.9-2.6-12.3-2.5c-8.3,0.1-17.7,2.1-24.9,4.3c-7.6,2.3-16.3,3.6-24.5,4.4
		c-6.5,0.7-22,0.5-27.5-1.1c9-0.9,12.9-0.4,19.8-7c0.9-0.9,0.3-0.4,0.9-1.3c0.8-1.2,0.5-0.1,1.7-2.7c4.1-9.2-2.1-16.9-7.6-14.6
		c-2.5,1-2.3,3.1-2.4,6c-3.8-1.2-5.9-3.1-6.1-7.6c-0.3-8.4,8.2-13,16.7-11.6c13.2,2.2,17.9,19.1,6.5,30.1c-2.4,2.3-5.1,4.5-8.3,6
		l-5,2.2c10.6,1.2,22-6.3,29.2-13.1c0.6-0.6,0.9-0.9,1.5-1.4c0.9-0.8,1.8-1.7,2.9-2.6c2.4-2.1,6.9-6.4,9.4-7.9
		c4.2-2.5,12.1-5.9,18-2.8C517.3,100.4,516.8,101.3,516.2,103.3L516.2,103.3z"/>
	<path class="st1" d="M156.2,270.5c0.7,1.1,1.6,1.6,2.7,2.5c1.3,1,1.4,1.6,3.6,1.6c0.8-3.4,2.6-6.7,3.8-10.1c0.7-1.8,1.2-3.3,1.9-5
		c0.4-1,0.5-1.6,0.9-2.4l6.9-17.7c0.7-1.7,1.5-3.3,1.9-5.1c2.1,0.6,3.7,3.3,5.1,3.3h25.7c0-8.6,1.6-8.3-5.1-12.8v8.8h-26
		c0.8-1.6,0.3-4.9,0.2-6.7c-0.1-1.3,0.1-0.6,0.2-2.1h3.7c1.7-3.2,11.5-30.2,14.8-37.6c2.7-6.3,2.1-4,4.7-7.8c-1.3-1.9-3.1-3-5.1-4
		c-3.2,4.8-3.5,4.1-5.9,11c-0.7,2-1.5,3.9-2.4,6.1c-0.9,2.2-1.5,4-2.4,6.1c-0.8,2.1-1.6,3.9-2.4,6l-2.3,6.1
		c-2.9,8.7-8.4,21.2-11.7,30.4l-10.5,27.2C157.6,269.9,158,270.3,156.2,270.5L156.2,270.5z"/>
	<path class="st1" d="M722.2,173.4c-10.6,0-12.3,5-16.5,16.8c-4.9,13.8-11.3,28.3-16.3,42.3l-15.2,38.7l1.3,0.9
		c0.1,0,0.1,0.1,0.2,0.2c1.3,1.1,1.5,1.7,3.3,1.8c0.2-1,0.8-2.2,1.2-3.2l21.3-54.9c3.3-7.8,6.7-17.9,9.9-26
		c1.4-3.4,3.6-9.3,6.6-11.3c2.6-1.8,5.2-2,8.6-2v-9.9c-1.9-0.5-2.5-2.4-4.4-2.9V173.4L722.2,173.4z"/>
	<path class="st1" d="M451.9,242.3c1.8-0.3,3.6-1,5.5-1.2l-1.1-0.3c0.1-1.4,2.8-7.2,3.4-8.7c0.3-0.8,0.6-1.3,0.9-2.1l4.3-10.7
		c2.6-6.4,14.5-36.5,16.8-39.2c0.8-0.9,1.7-1.4,3-1.8c1.8-0.5,4.1-0.2,6-0.2c-0.1-1.4-0.4-1.4-0.4-3.3c-1.2-0.3-2-0.6-3.3-0.7
		c-0.7-0.1-1.3-0.1-2-0.1l-1.2-0.2l-0.4,0.4c-3.9,0-5.6-0.4-8.2,4.3l-18.3,44c-0.5,1.4-1.2,2.9-1.8,4.4c-0.6,1.5-1.2,2.9-1.8,4.4
		l-2.6,6.5c-0.9,2.1-0.2,0.4-1.3,2c0.8,0.6,2,1.6,2.9,1.8L451.9,242.3L451.9,242.3z"/>
	<path class="st1" d="M531.1,232.8l-0.7,0.7c1,0.6,2.6,1.9,3.6,2.7c2,1.8,1.2,1.4,4.9,1.4l35.9,0c0.8,0.1-0.1-0.1,0.6,0.1
		c0.8,0.2,0.4,0,0.8,0.3l2.2,0.3c-0.5-1-0.8-0.4,0.7-0.6l6.6,0c0.5-2.2,1.3-3.5,2-5.7c0.6-2.2,1.4-3.9,2-5.7l4.1-11.3
		c-0.7-0.4-1.7-1.3-2.5-1.9c-1.1-1-1.5-1.3-2.7-2.1l-4,11c-0.9,2.5-3.5,9.2-3.7,11.3c-3.9,0.9-35.8,0.3-44.7,0.4l-4.3-0.1
		C531.1,233.1,531.8,233.8,531.1,232.8L531.1,232.8z"/>
	<path class="st1" d="M375.2,238c0.8-0.4,0.4-0.2,1-0.9c0.3-0.3,0.7-0.9,1-1.2c0.5-0.7,1.2-1.7,1.6-2.3c-1.2,0-2.2,0-3.4-0.1
		l-18.5,0.1c-2.7,0-2.2,0.1-2.2-5.5l-1.8,5.5H296c0.4,0.6,3.7,3.3,4.4,3.7c1.7,0.9,5.7,0.4,8.1,0.4l46.2,0c2.2,0,2.9,0.5,3.3-1.1
		c1.3,0.7,1.3,1.1,3.3,1.1C365,237.8,373.2,237,375.2,238L375.2,238z"/>
	<path class="st1" d="M356.2,184.4c-1.5,0.3-2.7,0.9-4.1,1.4c-1.3,0.5-2.9,1.4-4.4,1.5c-0.8-1.5-1.5-3.2-3.3-3.7v25.7l-5.4,0.1
		c-1.1,0.1-1.6,0.2-3,0.3c0.6,0.9,1.5,1.5,2.5,2.3c2.7,2.4,3.9,1.7,8.9,1.7c1,0,1-0.2,1.8-0.4c1-4.4,0.4-18.4,0.4-24.2
		c3.4,0.9,0.5,3.8,7.4,0.8c1.4-0.6,2.1-1.1,3.9-1.2c-0.1-2.6-1.1-3-2.3-6.1c-0.6-1.6-1.9-4.7-2.1-6.3c2.2,0.6,0.8,1.8,4.4,1.8
		c0-5.5-2.3-3.3-7-4.4v-9.9c-1.7-1.1-3.8-2.6-5.1-4c0,1.7,0.7,5,1.1,6.6C352,177.2,355.9,183.3,356.2,184.4L356.2,184.4z"/>
	<path class="st1" d="M118.1,270.5c1,1.6,3.8,4,5.9,4c1.2-5.4,15.8-43.6,15.8-45.8c0-1.8-2.4-6.2-2.9-8.4c-1.1,0.8-1.6,3.7-2.5,6
		l-14.5,41.5C119.3,269.4,119.5,270.1,118.1,270.5L118.1,270.5z"/>
	<path class="st1" d="M586.1,184.4l-8.1,2.9c-0.9-1.7-1.6-3.2-3.7-3.7c0,2,0.4,2.8,0.4,4.4l-0.1,20.7c-0.3,1.4-0.3,0.7-3.1,0.5
		c-1.8-0.1-3.7,0-5.5,0l1.4,1.6c0.7,0.6,1,0.7,1.7,1.3c2.6,2.1,3.6,1.6,8.7,1.6c1,0,1-0.2,1.8-0.4v-24.2c4.5,1.2,0.1,3.7,7.7,0.7
		c1.2-0.5,2.9-0.9,4-1.5c-0.2-0.9-3.6-7.9-4.4-11.4c1.1,0,2.3-0.1,3.3,0c1.6,0.1,1.3,0.3,2.9,0.4c-1.2-4.3-6.8-4.4-10.6-4.4
		c0-7.2,1.3-11.5-3.7-12.8c2,8.8,1.4,9.6,5,18.5C584.5,180.4,586,182.7,586.1,184.4L586.1,184.4z"/>
	<path class="st1" d="M522.5,225.7l0.6-0.6c-0.7-1.9-0.9-36.3-0.6-42.1c0.2-5.2,0.8-4.8,9.5-4.8c-0.4-4.4-1.2-3.7-5.4-4.1
		c-2.1-0.2-6.4-0.2-8.5,0.8c-0.9,3.9-0.4,33.3-0.4,41.4C517.8,227.3,517.4,222.5,522.5,225.7L522.5,225.7z"/>
	<path class="st1" d="M636.4,271.2c1.4,0.9,2.5,2.5,4.4,2.9c1.2-5,15.8-43.8,15.8-45.4c0-0.6-1-2.9-1.3-3.8c-0.3-1-0.3-1-0.7-1.8
		l-0.9-1.7c-0.3,1.3-0.7,2-1,3l-14.1,40.5C637.7,267.1,636.9,268.9,636.4,271.2L636.4,271.2z"/>
	<path class="st1" d="M248.6,224.7l-19.1-55.6c-0.4-1.3-1-2.7-1.5-4.4c-0.9-2.8-3.2-4.6-5.7-6c0.4,1.5,1,2.7,1.4,4.1
		c0.5,1.5,1,3,1.5,4.4c1,2.9,2,5.7,3,8.7l8.9,25.6c1.7,4.4,5.7,18,7.8,21.2C245.8,224.2,246.2,224.7,248.6,224.7L248.6,224.7z"/>
	<path class="st1" d="M122.9,167.9v5.1c-3.4,0-7.3-0.4-7.3,2.9c0,2.5,3,9.5,4.3,12.6l6.5,16.2c0.7,1.7,0.7,2.9,2,3.9
		c0.4-5.1,2.9-0.1-1-10c-2-5.1-6.7-14.7-6.7-19.3c0-2.4,5.2-2.2,7.3-2.2v-9.5c0-1-3-3.3-3.6-3.8
		C123.2,162.9,122.9,161.9,122.9,167.9L122.9,167.9z"/>
	<path class="st1" d="M421.5,181.8c0,4.9-0.6,8.3-4.7,11.8c-1,0.9-1.9,1.1-2.7,2.1c2.8,4.2,3.6,4.1,6.8,10.4
		c2.5,4.9,5,13.3,6.9,16.6c0.9,1.6,1.5,2,3.9,2l-5.3-13.4c-1.2-2.3-2.1-4-3.3-6.2c-1.3-2.4-3.5-4.5-3.9-5.6
		c4.5-2.4,7.9-8.3,7.1-11.9l-3-6.6c-1.2-2.6-1.5-4.6-3.8-6.1c0.3,1.4,0.7,1.6,1.2,3.2C421.1,179.2,421.5,180.2,421.5,181.8
		L421.5,181.8z"/>
	<path class="st1" d="M398.1,233.5c0.5,1.3,0,0.2,1,1.2c0.7,0.7,0.7,0.6,1.2,1.3c1.4,0.4,1.1,0.1,0.7,1.1c1.3-0.2,1.7-0.6,2.9-0.7
		c1.2-0.2,2.8-0.2,4-0.2c3.5,0.1,3.9,0.4,6.2,1.7c0.1-0.1,0.2-0.2,0.3-0.1l24.3-0.3c0-1.7,0.3-7.4-0.2-8.6c-0.3-0.8-4.2-3.7-5-4.2
		v8.8H398.1L398.1,233.5z"/>
	<path class="st1" d="M149.6,156.5l-1.5,0.1c1.1,1.7,8.7,22.4,10.2,26.1l8.7,22.8c0.6,1.6,0.4,2.3,1.6,3.1c0.9-3.8,2-2.8,0.6-6.8
		l-15.4-40C152.5,157.8,151.2,159.1,149.6,156.5L149.6,156.5z"/>
	<path class="st1" d="M252.2,238.3c0.9-0.6,1.4-1.4,2.2-2.2c0.9-1,1.6-1.5,2.2-2.6h-46.5c0.6,0.9,2,1.9,2.9,2.6
		c1.8,1.4,1.2,1.5,4.4,1.5l34.8,0V238.3L252.2,238.3z"/>
	<path class="st1" d="M641.4,168.6v4.8c-10.6,0-7.6,2.3-4.4,11c1.1,3.1,8.4,22.2,9.6,23c0.3-3.9,2.2-0.7-1.5-8.8l-4.7-11.8
		c-1.5-3.8-1.9-3.4-1.9-8c0-2.3,5.5-2.2,7.3-2.2l0.4-9.5c-1.8-0.9-2.8-2.3-4.4-3.3C641.8,165.9,641.4,166.4,641.4,168.6L641.4,168.6
		z"/>
	<path class="st1" d="M280.1,208.6c2.8-0.3,3.6,0.1,5.5,0.9c-1.2-4.8,0-20.9-0.3-27.8c-0.1-1.9-0.6-1.9-1.8-3c-1-0.9-1.6-1.4-3-1.7
		C280.5,182,281.2,206.2,280.1,208.6L280.1,208.6z"/>
	<path class="st1" d="M454.5,174.1h-4.8c0.2,2.4,2.8,8,3.7,10.6c0.7,1.8,1.3,3.3,2,5.3c0.4,1.3,1.4,4.3,2.3,5c1-4.4,2.5-1,0.5-7.1
		c-0.8-2.5-3.3-7.7-3.4-9.8c5.6,0,4.8,0.5,4.8-4c0-1.7,0-3.4,0-5.1c-1.1-0.3-3.4-2.5-5.1-3.7V174.1L454.5,174.1z"/>
	<path class="st1" d="M667.4,157.3c0.5,2,1.5,4.4,2.2,6.2l15.7,41.1c0.5,1.5,0.4,2,1.5,2.9c0.3-4,2.3-1-1.5-9.5
		c-0.5-1.1-0.9-2.2-1.3-3.4C680.9,186.3,673.7,161.5,667.4,157.3L667.4,157.3z"/>
	<path class="st1" d="M515.1,233.5h-31.3c0.3,0.5,4,3.6,4.6,3.8c1.2,0.5,22.7,0.2,25.1,0.2C513.7,238.6,514.8,234.8,515.1,233.5
		L515.1,233.5z"/>
	<path class="st1" d="M327.8,217c0,6.1,1.1,6.6,5.1,6.6v-19.1l1.5,0.4c-0.3-3.4-3.6-4.4-6.6-4.4V217L327.8,217z"/>
	<path class="st1" d="M556.7,210c0,1.9,0.2,10.9,1,12.2c0.8,1.5,2.9,1.3,4.5,1.3c0-1.8-0.4-2.3-0.4-4.4l0-14.7
		c1.7,0.1,0.7,0.5,1.8,0c-0.7-3.1-4.3-4-7-4V210L556.7,210z"/>
	<path class="st1" d="M297.4,187.3c-2.3,0.5-4.6,2-7,2.2c0.4,1.3,1.2,1.5,2.1,2.3c0.5,0.4,0.7,0.6,1.2,1l1.1,1.1
		c1.2-0.3,2.3-0.7,3.3-1.1c1.2-0.4,2.4-1,3.6-1.1c0-5.9-0.7-8.9-1.8-13.6h1.8c0-5.9-3.4-2.9-6.6-4.4
		C295.2,177.7,297.4,184.1,297.4,187.3L297.4,187.3z"/>
	<path class="st1" d="M245,189.9c-2.1-1-4.6-1.5-6.6-2.6c0.3,1.2-0.1,0.4,0.9,1.3l4,2.9l6.8,2.3c0.9-1.9,1.7-4.9,3.4-7.2
		c2.1-2.8,1.4-4,1.4-9.6C249.6,177.5,246.4,186.9,245,189.9L245,189.9z"/>
	<path class="st1" d="M327.8,191c1.3,0,4.2-0.7,5.1-1.1c0-2.7,0.6-8.3-0.4-10.3c7.9,0,7.8,1.6,10.6,1.8c-2.1-3.1-8.3-5.9-12.8-5.9
		h-2.6V191L327.8,191z"/>
	<path class="st1" d="M197.6,221.4c0,3.2-0.3,3.3,5.1,3.3c0.1-1.1,2-7,2.8-7.5c1.7-1.2,7.9-0.3,9-0.2c-0.1-0.9-1.1-3.7-1.5-4.4
		c-1.4,0.8-9.5,0.4-11.7,0.4c-1.4,0-0.1,0.1-1.1-0.4c-0.4,1.8-0.8,2.5-1.3,4.2C198.4,218.1,197.6,219.9,197.6,221.4L197.6,221.4z"/>
	<path class="st1" d="M557.1,191c6.1-0.1,4.8-1.1,4.8-11.4l6.1,0.5c2.1,0.4,2.4,1.2,4.2,1.3c-1.6-2.4-5.6-4.7-8.6-5.3
		c-3.3-0.7-3.1-0.6-6.4-0.6V191L557.1,191z"/>
	<path class="st1" d="M356.3,224.7c3,0,3.2-0.2,5.5-0.7c0.8-3.3,0.4-8.2,0.4-11.7c0-1-0.5-1.1-1.1-1.5
		C360.3,214.2,357.2,221,356.3,224.7L356.3,224.7z"/>
	<path class="st1" d="M203.9,203.1h5.9c-0.2-2.6-2.4-6.3-2.6-8.4h-0.7C206.2,197.5,204.1,200.1,203.9,203.1L203.9,203.1z"/>
	<path class="st1" d="M73.4,177.4c-0.4-1.7-2.3-3-3.7-3.6c-2.1-0.9-3.6-0.8-6.5-0.8c0.4,1,3,3,3.8,3.5c1.1,0.7,1.6,0.5,3.2,0.5
		C72,177.1,72,177.3,73.4,177.4L73.4,177.4z"/>
	<path class="st1" d="M205,165.3c0,1.3-0.1,3.2,0.4,4.4l4.8-2.2c-0.4-1.6-1.3-1.6-3.1-3.1c-1-0.8-0.9-1-2-1.3V165.3L205,165.3z"/>
	<path class="st1" d="M176.7,177h2.6c0-4-2.7-4-7.7-4C172.1,173.7,175.9,177,176.7,177L176.7,177z"/>
	<path class="st1" d="M294.4,172.3l0.4-7h2.2c-0.4-0.5-3.5-3-4.4-3.3L294.4,172.3L294.4,172.3z"/>
	<path class="st1" d="M695.6,176.7h1.5c-0.1-3.3-3.6-3.3-6.2-3.3C691.2,173.9,693.9,176.7,695.6,176.7L695.6,176.7z"/>
	<path class="st1" d="M280.9,227.1c2.5,0,3,0.4,4.8,0v-2.6c-2.3,0-1.8-0.2-3.7,1.5L280.9,227.1L280.9,227.1z"/>
	<path class="st1" d="M464.8,177.4c2.5-4.4-4.3-3.3-4.4-3.3c0.1,0.1,0.2,0.1,0.2,0.2C460.6,174.3,463.7,177.1,464.8,177.4
		L464.8,177.4z"/>
	<polygon class="st1" points="400.3,236 399.9,236 400.2,236.5 400.3,236 	"/>
	<polygon class="st3" points="397.5,231.6 397.1,231.6 397.4,232.1 397.5,231.6 	"/>
	<path class="st2" d="M289,205.4c1.3,0.5,2.5,1.7,3.1,3c0.8,1.5,1.2,3.3,0.7,4.9c-1.5,5.5-12.4,13.8-17,18.5h-6.6
		c0.8-0.6,1.5-1.3,2.2-2c4.5-4.3,9.3-8.5,13.6-13.1c0.5-0.6,1.2-1.1,1.7-1.7c1-1.2,2.3-3.3,1.3-4.9c-0.6-0.9-1.6-1.4-2.7-1.5
		c-0.3-0.1-1.2,0.3-1.5,0.5c-1.1,0.5-2.1,1.3-3.1,2c-2.7,2-5.3,4.4-7.8,6.8c-3.8,3.6-7.4,7.3-10.9,11.1l-2.6,2.9h-6
		c0.2-0.2,0.3-0.4,0.5-0.6c0.8-0.9,1.3-1.3,2-2.3c2.8-4.2,13-13.9,17.5-17.6l0.9-0.8c0.8-0.7,1.6-1.4,2.4-2.2
		c1.8-1.7,3.5-2.9,5.9-3.8l0.2-0.1l0.2,0C285.7,204.1,286.7,204.3,289,205.4L289,205.4z"/>
	<path class="st1" d="M258.4,289.4c-0.1-1.2,0.2-1.4,1-2.1c1.4-1.3,11.6-8.2,13.6-8.2c2.2,3,0.3,5.5,7,7.7c-1.1,1.3-3.5,1.2-5.1,1.4
		C271.7,288.7,260.2,289.8,258.4,289.4L258.4,289.4z M360.4,250.2c3.2-1,3.1,1.3,2.2,3.7c-1.2,3.4-3.8,5.1-6.3,7.6
		c-1.4,1.4-2.1,2.2-3.3,3.6c-1.4,1.6-12.8,11.7-15.1,12.8c-3.1,1.5-2.8-1.2-1.7-3.2C340,267.9,353.2,252.5,360.4,250.2L360.4,250.2z
		 M255.8,281c-0.2-3.5,4.8-9.5,6.6-11.6c1.3-1.5,2.6-2.9,4.4-4.8c4.5-4.7,10.2-8,15.5-11.6c4.7-3.2,7.7-5.8,12.7-5.3
		c-0.2,1.9-0.6,2-1.6,3.2c-7,8.2-5.9,7.8-16.2,15.3c-1.9,1.4-3.4,2.6-5.2,4l-13.1,9.6C257.8,280.6,257.4,280.9,255.8,281L255.8,281z
		 M226.2,294.9c-1.2-4,8-17.6,10.2-21.1c2.1-3.4,4.2-6,6.5-9.3c5.4-7.8,19-24,25.4-29.9c1.3-1.2,2.8-2.3,4.1-3.6
		c4.6-4.4,9.9-9,14.2-13.7c0.6-0.7,1.1-1.1,1.8-1.9c3.9-4.7,1.7-8.4-2.3-9.1c-4.5-0.7-21.8,17.7-25.5,21.6l-14.8,16.7
		c-1.2,1.3-2.2,2.8-3.5,4.2l-6.9,8.9c-5.8,7.3-17.8,26.6-19.9,35.1c-0.7,3-0.5,4-3.8,4.2c-3,0.2-12.2-0.3-10,5.3
		c2,5,15.8,1.9,19.2,1.5c4.6-0.6,9.4-0.9,13.8-1.6c2.3-0.4,4.1-1,6.6-1.5c6.6-1.2,13.5-2.5,20.3-3.2c16.1-1.6,28.6-2.3,44.7-2.6
		c2.3,0,5.9,0.5,6.4-1.6c0.5-2.1-1.7-3.3-3.3-4c-9.2-4.5-22.6-0.4-28.1-2.3c1-1.6,6.3-4.6,7.9-5l2.8,2.7c4.5,0.4,8.3-6.7,11.6-9
		c2.7-1.8,8.4-8,11.9-8.3c0,2.7-5.5,9.7-2.2,15.4c3,5.2,11.9-2.6,13.9-2.2c1.9,0.9,2.3,2.6,4.7,3.4c6.2,2.1,11.6-5.5,16.1-6.2
		c1.6,1.2,2.6,4.2,5.2,3.2c1.5-0.6,2.9-3.5,4.4-4.5c1.4,0.6,2.5,1.8,4,2.7c4.9,2.9,11.2,3.3,16.9,2.8c6.2-0.5,15.8-4.7,16.9-9.1
		c-0.2-2.9-8.5-5.8-11.2-6.7c-2.4-0.8-2.3-0.6-3.7-2.1c-1.3-3.3,8-11.3,10.2-13.5c3.2-3.1,6.1-5.2,10.5-7.5c1.6-0.8,2.2-1.7,4.4-1.2
		c-0.1,2.1-4,5.2-5.5,7.1c-2.6,3.4-4.9,4.3-2.8,7.8c5.7,0.4,8.3-3.8,10.9-6.6c2-2.2,6.6-7.6,6.8-10.5c0.3-5.3-6.8-6.4-11.7-5
		c-4.5,1.2-10.8,4.1-14,7.6c-2.4,2.6-5.1,3.8-11.1,10.9c-8.2,9.7-10.7,14.8,2.5,18.2c2.2,0.6,4.8,1.3,5.3,3.1
		c-2.3,2.7-9.2,2.6-13.6,2.6c-3.5,0-10-3-11.4-4.8c-0.2-2.9,5.4-9.5,6.8-10.9c2.3-2.3,13-15,15.6-18.8l16.7-18.1
		c17.8-12.6,9-16.8,2.8-13.4c-4.6,2.5-11.1,11-15.4,15c-0.9,0.8-1.4,1.5-2.2,2.2l-12.3,13.7c-4.7,7.1-4.9,0.4-10.8,0.6
		c-7.9,0.2-16.4,8.1-21.4,13.4c-1.5,1.6-2.4,3.1-3.8,4.6c-1.5,1.6-2.9,2.7-4,4.8c-1.1,2.1-1.6,3.6-3,5.4c-1.2,1.6-7.6,7.2-9.8,7.3
		c-0.5-3.3,7.6-13.3,10.5-16c2.4-2.2,4.9-4,7.2-6.4c1.4-1.5,5.8-5.8,2.1-8.5c-6.5-1.8-13,6.7-17.7,6.8c-1.4-1.5-3.2-8.2-9.5-1.8
		c-3.3,3.4-4.9,5.1-8.1,8.4c-1.4,1.5-2.2,2.8-3.9,4.5c-2.1,2.1-6.9,4.9-9.5,6.9c-1.6,1.2-2.9,2.8-5.2,2.8c0.4-2.5,2.9-5.1,4.2-6.8
		c1.5-2,3-4.2,4.8-5.8c2.9-2.6,2.8-3.4,4.1-6.9c1.1-2.9,2.9-3.9,4.4-6.2c4.1-6.2,0.2-10.4-6.9-10.9c-3.8-0.3-6.2,0.6-9.2,1.8
		c-4.2,1.7-11,4-14.5,7.1c-3.7,3.3-8.2,6.3-11.7,9.9c-3.5,3.6-7.6,7-10,11.7c-3,5.8-7.9,13.3-1.8,19.2c1.3,1.3,2.1,0.8,3.1,2
		C250.8,291,229,295.4,226.2,294.9L226.2,294.9z"/>
	<path class="st1" d="M512.9,300.9c0.1-2.4,4.6-5.3,6.6-6.3c6.5-3.1,18.7-11.2,26.9-10.9c-0.5,2.8-3.5,6-5.1,7.8
		C533.8,299.8,516,302.8,512.9,300.9L512.9,300.9z M403.5,276.2c-3.8-6.2,12.2-23.3,16.8-23c3,0.2,0.5,3.6-0.2,5
		c-1.1,2.2-0.7,4.6,1.5,5.2c2.2,0.6,3.6-1.8,5.7-2.1C426,266.3,408.7,277,403.5,276.2L403.5,276.2z M491.3,250.8
		c1.8,5.2-16.6,26-22.8,21c-3.5-2.8,6.9-11.1,8.7-12.6c3.3-2.8,6.5-4.7,10.1-7.1C488.5,251.2,489.4,250.4,491.3,250.8L491.3,250.8z
		 M431.2,274.9c-2.3-7.5,11.4-21.2,17-25.1c1.5-1,2.6-1.8,4.2-2.7c5-2.7,6.9-2.6,3.7,4.1c-0.7,1.5-1.7,2.7-2.8,4.2
		c-4.9,6.6-4.3,6.4-9.9,11.7C441,269.4,434.5,275.8,431.2,274.9L431.2,274.9z M574.3,244.7c1.1,2.6-3.2,6.1-4.4,7.5
		c-6.7,7.7-6,6.6-14.8,13l-3.4,2.5c-2.3,1.2-2,0.1-2,0.1c-1.6-1.7,2.6-7.5,3.3-8.4C556.3,254.7,568.5,243.8,574.3,244.7L574.3,244.7
		z M500.9,252.4c-1.9-2.7,0.8-4.9-4.7-7.6c-1.6-0.8-2.7-1.2-4.8-0.7c-0.7,0.2-2.1,0.7-2.7,0.7c-4,0.4,0.3-3.2-0.5-5.5
		c-0.6-1.5-2.4-2.2-4.4-1.7c-2,0.4-5.4,4.5-6.7,5.8c-2,2.3-3.4,4.6-5.2,7.2c-1,1.4-1.8,2-2.9,3.3c-1.6,2.1-9.2,15.4-14.4,16
		c-0.3-1.7,0.7-2.8,1.6-3.9c0.5-0.6,1-1.2,1.3-1.6c0.4-0.5,0.7-1.1,1.2-1.8c5.3-7.1,4.6-7.2,4.7-11.9c0-1.8,0.6-3.1,0.7-4.8
		c0.3-3.4-2.1-5.7-5-6.5c-8-2.4-14.5,4.3-19.3,8c-3.8,2.8-7.5,8.8-8.4,8c-1.4-2.2,2.4-8.8-3.7-11c-4.4-1.6-7.9,0.8-11,2.6
		c-7.6,4.3-3.8,2.3-9,6.4c-5.2,4.1-10.9,11.9-11.8,18.6c-0.5,3.9,3,8.4,5.7,9c10.1,2.3,18.5-7.5,21.9-7.6c1.3,1.3,1.7,3.9,3.6,5.5
		c3.5,3,9.6,0.1,12.8-2.4c7.6-6,4.3-3.3,8.9,0.7c1.3,1.1,3.4,1.7,2.6,4.6c-2.1,7.7-3.9,8.1-1.6,12c2.2,0,2.5,0.2,3.6-1.5
		c1.8-2.6,3.7-6.4,5.2-9.5c0.9-1.9,2.4-4.9,3.7-6.2c2-1.9,5,0.1,7.6,0.3c13.1,0.9,20.7-14,24.6-14.6c0.8,3.3-2.3,8.9,1.2,11.2
		c4,2.6,7.1-2.4,10.5-2.4c1.2,1.3,1.1,2,2.5,3c2.8,2,3.6-1.1,6.1-3.6c4.6-4.5,9.7-11.4,14.1-12.2c0.1,1.7-1.3,3.7-2.3,7.6
		c-2.6,10.7,6.6,8.5,9,6.8c1.7-1.3,3-3.5,6.1-3.3c1.3,1.3,1.4,2.2,2.4,3.4c1,1.1,2.2,1.4,2.3,3.5c-1.2,1-6.5,2.6-8.5,3.5
		c-3.1,1.3-5,2.5-7.9,3.8c-7.8,3.5-16.7,7.4-23.1,12.9c-1.8,1.6-4.6,5.1-2.2,8.1c2.4,3,16.3,1.7,20.5,0.7c1.9-0.5,3.2-0.5,5-1.2
		c11.8-4.7,14.6-7.9,23.2-17.8c5.2-6,5.4-9.1,12-11.8c2.5-1.1,6.2-2.5,8.6-3.1c3.2-0.9,7.1-0.3,9.1-2.6c0.1-3.5-3.5-2.9-6.5-2.4
		c-1.3,0.2-2.8,0.4-4,0.7c-1.5,0.3-3.7,1.1-3.6-0.5c0-0.9,4.8-7.4,5.5-8.3l5-6.4c0.6-0.7,1.1-1.1,1.6-2c0-0.1,3-9.3-0.2-12.1
		c-4.3-3.7-13.1-0.1-17.3,2.3c-2.4,1.4-11.2,8-12.6,9.7c-1.2,1.4-2.3,2.3-3.6,4.1c-3.3,4.7-1.7,3.6-6.7,7.9
		c-2.6,2.3-2.9,2.8-4.7,2.6c1-4.9,8.6-12.9,12.2-16.6c3.8-4,0.5-6.7-4.7-5.4c-3.4,0.9-7.4,4.1-10.2,4.2c0.1-2.2,1.6-4.2-0.9-5.5
		c-1.9-1-4.5-0.5-5.8,0.5c-3.1,2.2-7.6,9.2-9.9,12.4c-2.2,3.1-8.6,8.5-11.9,10.1c0.2-3.4,9.3-13.5,10.1-17.1
		c0.9-4.3-4.9-4.5-7.8-1.5C506.1,246.7,502.2,251.9,500.9,252.4L500.9,252.4z"/>
	<path class="st0" d="M289.4,285.5h-2.6C287.6,284.5,288.9,283.5,289.4,285.5L289.4,285.5z M323.9,273.4L323.9,273.4L323.9,273.4z
		 M323.9,273.4c0.4-1.6,4.7-6.9,6.2-7.7C330,268.8,326.3,272.8,323.9,273.4L323.9,273.4z M369.3,265.3c-0.1,0.8,1.5,3.1,2,3.6
		c4.1,4.5,9.9,3,11.6,5.6c-10.6,2.6-13.6,0.9-20.2-2.6c0-1.7,1-2.7,2.6-5.1c0.3-0.5,1.1-1.5,1.6-2.1c0.9-1,1.4-1,1.7-2.3h1.1
		L369.3,265.3L369.3,265.3z M461.7,261.3L461.7,261.3L461.7,261.3z M461.7,261.3c0.3-1.2,1.4-2.7,2.2-3.3
		C463.6,259.2,462.5,260.7,461.7,261.3L461.7,261.3z M511.5,256.2c0,0,0.1,0.1,0.1,0.1L511.5,256.2L511.5,256.2z M541.1,258.8
		c-0.2-0.2,2-2.8,2.2-3.1c1-1.4,0.9-1.5,1.9-1.8c-0.5,1-0.6,1.3-1.3,2.3C543.2,257.2,541.6,259,541.1,258.8L541.1,258.8z
		 M545.2,253.3c0,0,0.1,0.1,0.1,0.1h0C545.3,253.4,545.2,253.3,545.2,253.3L545.2,253.3z M394.6,254.3c0,4.4,2.5,4.4,5.5,4.4
		c-0.9,1.8-2,2.8-2.9,4.8c-0.5,1.1-2.1,4.6-2.2,5.9c-1-0.3-1.9-1-2.9-1.5c-1.9-1.2-5.8-2.6-8.1-3.3c-1.4-0.5-2.6-0.9-0.6-3.8
		c1.3-2,9.7-10.4,11.4-11.7c2.2-1.7,3.3-2.2,5.7-3.4c-0.3,1.1-0.8,1.3-1.5,2.2c-0.6,0.8-1,1.1-1.7,2
		C396.4,250.9,394.6,252.7,394.6,254.3L394.6,254.3z M500.9,252.4c1.3-0.6,5.2-5.7,6.4-7.1c2.8-3,8.6-2.8,7.8,1.5
		c-0.7,3.6-9.9,13.7-10.1,17.1c3.3-1.7,9.6-7.1,11.9-10.1c2.3-3.2,6.9-10.2,9.9-12.4c1.3-0.9,3.9-1.5,5.8-0.5c2.5,1.3,1,3.2,0.9,5.5
		c2.8-0.1,6.8-3.4,10.2-4.2c5.2-1.3,8.5,1.4,4.7,5.4c-3.6,3.8-11.2,11.8-12.2,16.6c1.7,0.3,2-0.3,4.7-2.6c5.1-4.3,3.4-3.3,6.7-7.9
		c1.3-1.8,2.4-2.7,3.6-4.1c1.5-1.8,10.3-8.4,12.6-9.7c4.1-2.4,13-6.1,17.3-2.3c3.2,2.8,0.3,12,0.2,12.1c-0.5,1-1.1,1.3-1.6,2l-5,6.4
		c-0.6,0.9-5.4,7.5-5.5,8.3c-0.1,1.6,2.1,0.8,3.6,0.5c1.2-0.3,2.7-0.5,4-0.7c3-0.5,6.6-1,6.5,2.4c-2,2.3-5.9,1.8-9.1,2.6
		c-2.4,0.6-6,2.1-8.6,3.1c-6.6,2.8-6.8,5.8-12,11.8c-8.6,9.9-11.4,13.1-23.2,17.8c-1.8,0.7-3.1,0.8-5,1.2c-4.3,1-18.2,2.3-20.5-0.7
		c-2.4-3,0.4-6.5,2.2-8.1c6.3-5.5,15.3-9.4,23.1-12.9c2.9-1.3,4.9-2.5,7.9-3.8c2-0.8,7.3-2.5,8.5-3.5c-0.1-2.1-1.3-2.4-2.3-3.5
		c-1-1.2-1.1-2.1-2.4-3.4c-3.1-0.2-4.4,2.1-6.1,3.3c-2.4,1.7-11.5,3.9-9-6.8c0.9-3.9,2.4-5.9,2.3-7.6c-4.5,0.8-9.5,7.7-14.1,12.2
		c-2.5,2.5-3.4,5.6-6.1,3.6c-1.4-1-1.2-1.8-2.5-3c-3.3,0-6.5,5-10.5,2.4c-3.5-2.3-0.4-7.9-1.2-11.2c-3.9,0.7-11.5,15.5-24.6,14.6
		c-2.6-0.2-5.7-2.2-7.6-0.3c-1.3,1.2-2.8,4.3-3.7,6.2c-1.6,3.1-3.4,6.8-5.2,9.5c-1.2,1.7-1.1,1.6-3.6,1.5c-2.2-3.9-0.5-4.3,1.6-12
		c0.8-2.8-1.3-3.5-2.6-4.6c-4.7-4-1.3-6.7-8.9-0.7c-3.2,2.5-9.3,5.3-12.8,2.4c-1.9-1.6-2.2-4.2-3.6-5.5c-3.5,0.1-11.9,9.9-21.9,7.6
		c-2.7-0.6-6.2-5.2-5.7-9c0.9-6.6,6.6-14.4,11.8-18.6c5.2-4.1,1.3-2.1,9-6.4c3.1-1.8,6.6-4.2,11-2.6c6.1,2.1,2.3,8.8,3.7,11
		c0.9,0.8,4.8-4.7,8.5-7.5c4.7-4.4,12.1-10.5,19.1-8.5c2.9,0.8,5.4,3.1,5,6.5c-0.2,1.7-0.7,3-0.7,4.8c-0.1,4.7,0.6,4.8-4.7,11.9
		c-0.5,0.6-0.8,1.2-1.2,1.8c-0.3,0.5-0.8,1-1.3,1.6c-0.8,1.1-1.8,2.2-1.6,3.9c5.2-0.6,12.7-14,14.4-16c1.1-1.3,1.9-2,2.9-3.3
		c1.8-2.6,3.2-5,5.2-7.2c1.2-1.4,4.6-5.4,6.7-5.8c2-0.4,3.9,0.2,4.4,1.7c0.8,2.3-3.5,5.9,0.5,5.5c0.7-0.1,2-0.6,2.7-0.7
		c2.1-0.5,3.2-0.1,4.8,0.7C501.7,247.6,499,249.7,500.9,252.4L500.9,252.4z M226.2,294.9c2.9,0.5,24.7-3.9,26.2-5
		c-1.1-1.2-1.8-0.7-3.1-2c-6.1-5.9-1.2-13.4,1.8-19.2c2.4-4.6,6.5-8,10-11.7c3.5-3.6,8-6.7,11.7-9.9c3.5-3.1,10.3-5.4,14.5-7.1
		c2.9-1.2,5.4-2,9.2-1.8c7.1,0.5,11,4.6,6.9,10.9c-1.5,2.3-3.3,3.3-4.4,6.2c-1.3,3.5-1.2,4.3-4.1,6.9c-1.8,1.6-3.3,3.8-4.8,5.8
		c-1.2,1.7-3.8,4.3-4.2,6.8c2.3,0,3.6-1.6,5.2-2.8c2.7-2.1,7.4-4.8,9.5-6.9c1.7-1.7,2.5-3,3.9-4.5c3.2-3.3,4.8-5,8.1-8.4
		c6.3-6.4,8.1,0.3,9.5,1.8c4.8-0.1,11.2-8.6,17.7-6.8c3.7,2.6-0.6,7-2.1,8.5c-2.3,2.4-4.8,4.2-7.2,6.4c-2.9,2.7-11.1,12.7-10.5,16
		c2.2-0.1,8.5-5.6,9.8-7.3c1.4-1.9,1.9-3.3,3-5.4c1.1-2.1,2.5-3.2,4-4.8c1.4-1.5,2.3-3,3.8-4.6c5-5.3,13.5-13.1,21.4-13.4
		c5.9-0.2,6.1,6.6,10.8-0.6l12.3-13.7c0.8-0.8,1.3-1.4,2.2-2.2c4.3-4,10.8-12.5,15.4-15c6.3-3.4,15,0.8-2.8,13.4l-16.7,18.1
		c-2.6,3.8-13.3,16.5-15.6,18.8c-1.4,1.4-7,8-6.8,10.9c1.4,1.8,7.9,4.7,11.4,4.8c4.4,0.1,11.3,0.1,13.6-2.6
		c-0.5-1.9-3.1-2.6-5.3-3.1c-13.3-3.4-10.7-8.5-2.5-18.2c6-7.1,8.7-8.3,11.1-10.9c3.2-3.5,9.5-6.4,14-7.6c5-1.4,12-0.3,11.7,5
		c-0.2,2.9-4.8,8.3-6.8,10.5c-2.5,2.9-5.2,7-10.9,6.6c-2.2-3.5,0.1-4.4,2.8-7.8c1.4-1.8,5.4-5,5.5-7.1c-2.2-0.5-2.7,0.3-4.4,1.2
		c-4.4,2.3-7.3,4.4-10.5,7.5c-2.3,2.3-11.5,10.2-10.2,13.5c1.4,1.5,1.3,1.3,3.7,2.1c2.7,0.9,11,3.8,11.2,6.7
		c-1.1,4.5-10.6,8.6-16.9,9.1c-5.7,0.5-12,0.1-16.9-2.8c-1.4-0.8-2.6-2.1-4-2.7c-1.5,0.9-2.8,3.9-4.4,4.5c-2.6,1-3.6-2.1-5.2-3.2
		c-4.5,0.7-9.9,8.3-16.1,6.2c-2.4-0.8-2.9-2.4-4.7-3.4c-1.9-0.4-10.8,7.5-13.9,2.2c-3.3-5.7,2.2-12.6,2.2-15.4
		c-3.5,0.3-9.3,6.5-11.9,8.3c-3.3,2.3-7.1,9.3-11.6,9l-2.8-2.7c-1.5,0.4-6.9,3.3-7.9,5c5.4,1.9,18.9-2.2,28.1,2.3
		c1.5,0.7,3.7,2,3.3,4c-0.5,2.1-4.1,1.6-6.4,1.6c-16.1,0.3-28.5,1-44.7,2.6c-6.8,0.7-13.7,2-20.3,3.2c-2.4,0.5-4.2,1.1-6.6,1.5
		c-4.4,0.7-9.2,0.9-13.8,1.6c-3.4,0.5-17.2,3.6-19.2-1.5c-2.2-5.6,7-5.1,10-5.3c3.3-0.2,3.1-1.2,3.8-4.2
		c2.1-8.5,14.1-27.8,19.9-35.1l6.9-8.9c1.3-1.4,2.3-2.9,3.5-4.2l14.8-16.7c3.7-4,20.9-22.4,25.5-21.6c4,0.6,6.2,4.4,2.3,9.1
		c-0.6,0.8-1.2,1.2-1.8,1.9c-4.3,4.7-9.6,9.3-14.2,13.7c-1.3,1.3-2.8,2.4-4.1,3.6c-6.5,5.9-20,22.1-25.4,29.9
		c-2.3,3.2-4.3,5.9-6.5,9.3C234.1,277.3,225,290.9,226.2,294.9L226.2,294.9z M256.5,229.8c-0.5,1-3.5,4.1-4.4,4.8
		c-11.5,13.5-20.4,24.6-29.7,39.9c-1,1.9-2,3.4-3.1,5.4c-2,4-4.4,7.6-5.4,12.1c-1.1,4.9-0.3,2.8-5.3,3.5c-2.8,0.4-4.7,0-6.8,1.7
		c-1.6,1.3-2.9,3.5-1.6,6.1c3.4,7.1,21.6,2.1,28.8,1.6c10.2-0.8,19.7-4.2,29.7-5.1c10.6-1,21.6-2.5,32.2-2.6l8.4-0.4
		c5.2,0,13.4,1.2,15-2.6c0.9-2.3-0.6-4.5-2.4-5.5c-4.2-2.4-7.9-3.2-14.4-3.2c0.1-1.6,0.9-1.9,1.9-2.8c0.1-0.1,0.1-0.1,0.2-0.2
		c0.1-0.1,0.1-0.1,0.2-0.2c2.5-2.3,8.8-9.8,12-10c-1.7,3.6-1.8,11.5,1.7,13.3c3.4,1.7,7.6,0.2,10.5-1.5c1-0.6,1.8-1,2.9-1.5
		c10.7,7.2,10.1,3.1,20.9-2.6c3.5,5.2,7.3,3.8,9.9-1.1c1,0.5,0.9,0.6,1.8,1.1c8.4,5.9,23.7,5.2,32-0.3l3.6-2.6
		c3.1,4.7,6,7.8,14.2,5.7c4.3-1.1,11.1-6.6,14.1-6.8c1.1,4.7,5.9,7.4,10.6,5.8c2.2-0.7,4.1-1.6,6-2.8c1.9-1.2,3.2-2.6,5-3.8
		c1,1.5,3.2,4.6,5.1,5.1c-1.1,4.6-5.4,12.1-1,14.9c5,3.2,8.4-5.5,10-8.8c0.8-1.6,1.4-2.9,2.2-4.4l2.7-4.3c1.6,0,2.7,0.5,4.3,0.8
		c1.3,0.2,3.1,0.4,4.8,0.3c4.7-0.4,7.4-2.3,10.7-4.6c4.1-2.9,6.5-6.5,8.7-7.1c0,2.2-0.2,4.1,0.5,5.7c3.2,6.6,10.8,1.1,12.7,0.2
		c4.4,8.4,8.9,0.5,10.4-0.9l7.5-7.9c0.7-0.7,1.1-1.2,2.2-1.5c-1,4.4-3.3,10.2,2.3,12.7c2.3,1,5.9,0.5,7.7-0.5c2.2-1.2,3-3.4,5.7-3.4
		c0.7,2.9,2.1,1.5,2.2,4.4c-5.5,1.7-30.4,13.5-36.1,17.8c-1.4,1-2.6,1.7-3.5,3.1c-1.8,2.5-3.1,6.6-0.5,9.3c1.2,1.2,3,1.5,5.1,1.9
		c9.9,1.8,24.3-1.4,32.5-7.4c6.4-4.7,12.1-10.4,16.8-17c1-1.4,1.9-2.6,3-4c3.3-3.9,8.5-5,13.2-6.5c2.7-0.9,8.7-0.5,10.4-3.2
		c1.1-1.8,0.5-4.2-1-5c-3.7-2.1-7.1,0-11.4,0c2.4-3.6,4.8-7.4,7.6-10.7c0.8-0.9,2.1-2.4,2.8-3.4c1.2-1.8,0.7-2.8,1-5.2
		c0.3-2.5,1.3-4.9,0.1-7.2c-1.2-2.2-3-3.6-5.7-4l-2.2-0.3c-7.6,0-15.3,5.2-21,9.8c-0.8,0.7-1.8,1.6-2.8,1.9c0-0.1,0-0.2,0-0.2
		c0,0,0.2-5.6-5.8-5.7c-2.3-0.1-3.8,0.5-5.4,1.3c-0.9,0.4-1.3,0.7-2.2,1.1c-0.1,0-0.9,0.5-1,0.5c-1.8,0.7-1.6-0.5-2.1-1.3
		c-1.2-2-3-3.2-5.8-3c-4.4,0.3-7.2,4.2-9.7,7.5l-2.6,3.2c-0.9,1.2-1.4,2.3-2.3,3.6c-1.3,1.7-1.3,1.7-3,2.9c0.8-3.4,5.5-6.8,4.7-10.5
		c-0.6-3-3.2-4.1-6.5-3.7c-2.5,0.3-5.7,3.6-7.2,5.6c-0.8,1.1-0.2,0.9-1.6,1.3c-0.7-2.9-1.8-3.7-4.1-5c-3.4-1.8-4-1.2-7.9-0.8
		c0.3-1.1,2.3-4.5-2.2-6.6c-0.9-0.4-1.9-0.5-3.3-0.4c-2.2,0.2-3.3,1.2-4.5,2.5c-2.7,2.7-4.4,4.3-6.6,7.6l-4.4,5.9
		c-3.1,3.2-3,5.2-4.6,6.4c0.6-2.7,1.8-2.4,1.2-6.4c-0.3-2.4,1-4.5,0.9-6.8c-1.7-11-16.8-8.3-24.6-0.8l-6.4,5.7
		c-0.9,1.1-0.7,1.3-1.9,2.1c-1-15.8-16-7.6-19.8-5.1c1.3-2.4,2.7-3.1,3.4-6.2c1.5-7-7.9-8.4-12.9-7.7c-1.2,0.2-1.7,0.6-2.9,0.7
		c-3.2,0.7-10.4,5.5-11.7,5.9c0.2-0.9,4.8-5.7,6.3-7.2c3-3.1,4.3-5,8-7.8c16.7-12.6,6-17.5,1-15.8c-7.1,2.3-21.8,21.3-31.2,30.4
		c-0.9,0.9-1.3,1.3-2.1,2.3c-4.7,6.5-2.9-5.2-16.6,1.7c-2.3,1.2-3.9,2.2-6.1,3.5c-2.3,1.4-2.4,1.8-3.9,3c-0.8,0.7-0.5,0.6-1.7,0.9
		c0-12.7-17.3,1.2-20.2,1.5c-0.9-3.3-5.3-5.3-8.9-3c-5.4,3.5-12.9,14.5-17.6,17.2l-4.3,2.6c0.3-1.1,1.3-2.1,2.1-3
		c3.6-4,4.9-3.4,6.3-9.1c0.5-2.2,0.5-1.8,1.9-3.2c2.2-2.2,5.5-7.2,4.4-10.8c-5.8-18.1-39.5,6-46.9,13.4
		c-6.5,6.5-19.2,20.2-14.2,30.1c0.8,1.6,1.6,1.9,2,3.5l-9.8,1.9c-1.6,0.3-3.2,0.6-5,0.9c-1.6,0.3-3.9,0.4-5,0.9
		c0.2-1,0.9-2.3,1.4-3.4c0.5-1.2,1-2.1,1.6-3.2c2.6-5.1,5.9-10,9.1-14.7c7.1-10.4,11.4-15.5,19.2-24.7c0.4-0.5,0.7-0.6,1.1-1.1
		l8.2-9c1.1-1.1,1.4-1.3,2.6-2.2c0.9-0.7,1.6-1.5,2.4-2.4c1.8-1.8,3.1-3.2,5.1-4.8c3.3-2.6,12.7-11.5,13.7-15.2
		c0.8-2.8-1.3-5.8-3.2-6.5c-1.9-0.9-2.7-1.2-5.5-0.9c-3.8,1.6-5.6,3.8-8.2,6l-1,0.8c-0.7,0.6-1,0.9-1.7,1.6
		C269.9,216.1,257.4,228.3,256.5,229.8L256.5,229.8z"/>
	<path class="st0" d="M258.3,277.8c7-13.2,17.5-18.7,28.5-26.1c0.8-0.5,4.4-3,5.2-2.2c0.6,0.6,0.5-0.1-0.1,1l-2.7,3.3
		c-5.3,6.5-7.3,6.7-12.5,11l-8.8,6.9C265.7,273.3,260.5,277.6,258.3,277.8L258.3,277.8z M255.8,281c1.7-0.1,2-0.4,3.1-1.2l13.1-9.6
		c1.8-1.4,3.3-2.6,5.2-4c10.3-7.6,9.2-7.1,16.2-15.3c1-1.2,1.4-1.3,1.6-3.2c-5.1-0.5-8,2.1-12.7,5.3c-5.3,3.6-11.1,6.9-15.5,11.6
		c-1.8,1.9-3.1,3.2-4.4,4.8C260.5,271.5,255.6,277.5,255.8,281L255.8,281z"/>
	<path class="st0" d="M432.7,273c0-4.2,2.5-7.1,4.9-10.2l1-1.2c4.5-4.4,5.2-7.2,12.9-12.1c1.2-0.8,2.7-1.9,4.3-1.9
		c-0.7,1.3-1.2,2.6-2,3.9l-5.2,6.9c-3.2,4.6-7.7,8.6-12.1,12.1C435.4,271.5,434.2,272.7,432.7,273L432.7,273z M431.2,274.9
		c3.3,0.9,9.8-5.5,12.3-7.9c5.6-5.3,5-5.1,9.9-11.7c1.1-1.4,2.1-2.6,2.8-4.2c3.2-6.7,1.2-6.8-3.7-4.1c-1.6,0.9-2.8,1.7-4.2,2.7
		C442.6,253.7,428.9,267.4,431.2,274.9L431.2,274.9z"/>
	<path class="st0" d="M338.9,274.9c0.1-4.6,22.2-27.3,22.1-21.8c0,0.8-1.1,2.3-1.5,2.8c-0.5,0.6-4.5,4.3-7.2,7.5l-1,1.2
		c-1.1,1.2-1.8,1.5-2.9,2.6l-3.1,2.8C343.6,271.3,340.7,273.9,338.9,274.9L338.9,274.9z M360.4,250.2c-7.3,2.3-20.4,17.7-24.1,24.6
		c-1.1,2-1.4,4.7,1.7,3.2c2.3-1.1,13.7-11.2,15.1-12.8c1.3-1.4,1.9-2.3,3.3-3.6c2.6-2.5,5.1-4.2,6.3-7.6
		C363.5,251.4,363.6,249.1,360.4,250.2L360.4,250.2z"/>
	<path class="st0" d="M417.7,259.8c0,2.5,0.9,4.9,3.7,5.1c-0.3,1.3-0.2,0.9-1.3,1.6l-10.3,6.2c-1.9,0.9-2.7,1.2-4.9,1.7
		c0-3.1,0.7-4.3,1.8-6.2c2.1-3.6,8.9-12,12.4-12.8C419,257.6,417.7,258,417.7,259.8L417.7,259.8z M403.5,276.2
		c5.2,0.8,22.4-9.9,23.7-14.9c-2.1,0.2-3.5,2.7-5.7,2.1c-2.2-0.6-2.6-3-1.5-5.2c0.7-1.4,3.2-4.8,0.2-5
		C415.7,252.9,399.7,270,403.5,276.2L403.5,276.2z"/>
	<path class="st0" d="M489.1,253.3c-0.8,3.4-8.8,12.5-12.5,15c-2.2,1.5-3.7,2.3-7.3,2.3c0.5-1.9,2.6-3.9,3.9-5.2
		c2.9-3,6.5-6.2,9.9-8.4C484.4,256.1,488,253.6,489.1,253.3L489.1,253.3z M489.1,253.3L489.1,253.3L489.1,253.3z M491.3,250.8
		c-1.9-0.4-2.8,0.4-4.1,1.3c-3.6,2.4-6.9,4.3-10.1,7.1c-1.7,1.5-12.1,9.8-8.7,12.6C474.7,276.7,493.1,255.9,491.3,250.8L491.3,250.8
		z"/>
	<path class="st0" d="M515.2,299.8c1.3-1.9,7.7-5.6,9.4-6.3c3.6-1.6,2.5-1.8,7-3.6c3.8-1.5,7.7-4,12.1-4.3c-0.4,1.6-1,1.9-2,3.1
		c-2.1,2.7-5.7,5.6-8.8,7.3C528.8,298.3,520.1,299.8,515.2,299.8L515.2,299.8z M512.9,300.9c3,1.9,20.9-1,28.3-9.5
		c1.6-1.8,4.6-5,5.1-7.8c-8.2-0.2-20.4,7.8-26.9,10.9C517.5,295.6,513,298.5,512.9,300.9L512.9,300.9z"/>
	<path class="st0" d="M551.1,266.1c3.6-7.5,13.3-17.8,21.6-19.8c-0.2,0.6-0.2,0.4-0.4,0.7c-4.6,6.9-13.2,14.6-20.3,18.5
		C551.4,265.9,551.8,265.8,551.1,266.1L551.1,266.1z M574.3,244.7c-5.8-0.9-18,10-21.4,14.8c-0.7,1-4.8,6.7-3.3,8.4
		c0,0-0.3,1.1,2-0.1l3.4-2.5c8.8-6.4,8.1-5.3,14.8-13C571.1,250.8,575.4,247.3,574.3,244.7L574.3,244.7z"/>
	<path class="st0" d="M531,225.8c-1.7,3.4-5.5,6.7-7.5,8.7c-1.3,1.4-2.4,3.3-5,3.1c-2.4-0.2-3.9-2.1-2.9-4.8
		c1.1-3,7.6-12.7,12.2-11.6C529.8,221.7,532.2,223.3,531,225.8L531,225.8z M522,221.4l-0.6,0.6c-1.1,1-2.7,2.4-3.5,3.6
		c-1,1.4-1.9,3.2-2.9,4.3c-0.7,3-1.8,1.7-1.3,5.9c1.4,4.5,6.1,4.9,9.2,2.2l1.8-1.9c0.8-0.8,1.2-1.2,2.1-1.9c1.3-1,2.7-2.9,3.5-4.2
		l0.7-0.7c0.8-1.3,2-2.1,2.2-4.1c0.5-4.1-4.4-5.9-6.6-5.9C524.2,219.2,523.5,220.3,522,221.4L522,221.4z"/>
	<path class="st0" d="M263,287.3c0.5-1.5,7.7-5.7,9.2-5.9c0.2,3,2,2.9,2.2,5.1C270.6,286.6,267.1,287.3,263,287.3L263,287.3z
		 M258.4,289.4c1.8,0.4,13.3-0.7,16.5-1.2c1.6-0.2,3.9-0.1,5.1-1.4c-6.7-2.3-4.8-4.7-7-7.7c-2,0-12.2,7-13.6,8.2
		C258.6,288,258.3,288.2,258.4,289.4L258.4,289.4z"/>
	<polygon class="st1" points="400.1,232.4 399.7,232.4 400,232.8 400.1,232.4 	"/>
	<path class="st4" d="M396.4,111.1c0,1.4-0.2,0.5-0.5,0.8c-0.3-0.3-0.6,0.7-0.5-1.1c0-1.8,0-0.2,0.5-0.9
		C396.2,110.3,396.5,109.1,396.4,111.1L396.4,111.1z M408.3,132.7c-10.3,0-20.5,0-30.8,0c2.9-0.3,5.9-0.5,9-0.6
		c-0.1,0-0.1-0.1-0.1-0.1c0.5-0.3,1.5-0.3,1.8-3c0.2-1.5,0.4-3,0.2-4.5c-0.9-0.6-1-0.5-2-0.8c-1.7,1.5-2.7,1.4-4.6,0
		c-1.2-0.8-0.7,0-0.8-1.8c-3.5-0.4-0.4,0.9-3.3,1.3l-0.9-2.2c-3.6-1.2-3,0.1-5.7,0.1l-0.6-2.8l2.9-1l0.7-4.1c6.8-1,5.1-2.6,7.7-2.3
		c1.1,1.7,0.1,1.9,2.7,2c0.4,2.9,2,2.8,4.3,1.9c-0.6-1-1.8-1.8-2.9-2.2l-1.1-0.5c0.7-2.1,0.7-0.3,1.9-2.1c0.5,0,1,0.1,1.5-0.1
		c1.3-0.5,0.6-0.4,1-0.8c-0.2-2-0.1-1-0.3-1c-0.1,0-0.2-0.2-0.5-0.9c-1.9,0-1.7-0.3-3.1-0.4c-4,3.8-2.4,1-5.9,1.5
		c-1.2,0.2-2.7,0.7-3.4,1.1c-1-0.2-0.4,0.1-1.1-0.5c-2.3,3.3-2.1-0.2-2.5-1c0,0-0.9-1-1-1.2c-4.7,0.1-1.9,0.1-3.9-2.1
		c-0.5-0.5-0.1,0-0.5-0.7c0.6-1.5,0.8-1.5,2-2.2c-4.3-2.5-0.9-2.5-3.4-4.1c-1.7,0.7-1.1,2.2-2.7,2.8c-2.1,0.8-2.1-0.2-3.8,1.7
		l-1.7,0l-2-3.5c-0.9-1.8-1.7-1.4-0.9-3.9c0.8-2.5-1.1-2.4,2-5.5c3.1-3,6.5,0.6,5.7-4.2c-0.6-3.4-2.7-0.1-3-4.9
		c0.1-0.1,0.2-0.3,0.2-0.2c0,0,2.5-0.9,3.9-3.1c2.8,0.1,2.2,0.5,4.1-0.8c1.1-0.1,2.4,0.1,3.4,0c2-0.2,0.5-0.6,2.4-0.7
		c0.6-0.3,0.6-0.7,0.7-0.9l-0.6-0.6c-0.2-0.3-0.3,0-0.2-0.7c0-0.1,0.1-0.4,0.2-0.6l-2.4-0.1c-2.3,2.9-3.1,2.6-4.5,0.6l-2.8-0.1
		c0-0.7,0.2-1.9,0.2-2.2c0-2.2-1.4-1.3,1.1-3.7c1.2-1.2,0.8-0.4,2-1.3c0.2-0.9,0.1-1.1,0.4-1.8c0.6-1.5,0.5,0.5,0.6-2
		c-2,0-1.2,0.2-2.2,1.5c-0.5,0.6-0.1,0.2-0.8,0.7c-1.6,1.1-2.1,1.1-4.3,0.9c-1.8-0.1-2.4,0.6-3.2,1.7c-1.1,1.5-1.9,1.1-4.4,0.9
		l-1.6-1.9c-0.2-0.4-0.2-0.9-0.2-1.3l-2.7-0.2c0.1-1.6,0.1-1.3,1.1-1.9l-0.4-4.2c0.9-0.5,1.1-0.7,1.7-1.4c-1.9-5.2,2.6-3.2,4.6-3.9
		l0.1-3.3c3.9-1.7,9.7-2.9,14.5-2.6l0.5-1.4c1.4,0,1.8,0.2,3-0.3c-0.3-2.3-0.2-0.9-4.9-1.2c-2.7-0.2-3.5,0.9-5.9,0.7l-0.7-2.1
		c-2.7,0-1,1-4.2,0.8c-0.1,0-2.3-1.5-2.1-3.3c1-0.8,1.2-0.2,2-1.7c0.6-1.1,0.4-1.5,1.8-1.9c0.3-3.5,0.8-0.3,4-3.5
		c1-0.9,7.6,1.6,9.1-2.8c-0.4-0.3-0.5-0.4-1-0.8c-0.6-0.5-0.5-0.3-0.8-1.1c2-3.9,5.8-3.6,7.5-4c5-1.4,5.5-0.1,9.6,0.2l1.4-1.4
		c3.9-0.4,3.9,1.3,7.3-0.3c0.9-0.4,2.3-0.6,3.6-0.6c1.8,0,1.7,0.3,2.5,1.5c3.9,0.5,5.5,0.6,8.1,2.1c1.1,0.6,1.1,1.1,1.1,2.5
		c3.8,0.3,3,1.4,3.1,3c0,0.5,0.5-0.2,0,0.8c-0.6,1.2-3.4,0.3-7.1,0.8c2.6,2.4,6.4-0.3,9.1,0.8c2.8,2.4,2.6,0.2,4.3,1.4
		c2.1,1.5,1.7,2.8,1.7,5c-0.2,0-1.5,0.1-1.6,0.2c-1.9,0.7-0.6,0.1-1.2,1.2c3,0.3,5.7-0.6,8.3,1c0.1,0,0.2,0.1,0.2,0.2
		c0.1,0,0.1,0.1,0.2,0.2c2.6,1.9,2.1-0.3,3.1,1.7c0.1,0.2,0.7,5.1,0.7,5.4c-2.8,0.2-3.9-0.6-5.8-0.1c-2.9,0.8-1.7,2.2-4.6,2
		c-0.8,1.1-0.6,1.5-2.3,1.6c-0.2-0.2-2.4-4.1-4.3-2.2c0,0-1.3,0.4-0.1,1.9c1.6,1.9,2.5,0.9,4.3,1.1c1.9,0.2,1.1,0.4,1.8,1.1
		c2.6,2.2,1.8-1.3,2.5,3.8c1.7,0.9,1.4-0.7,3.9-0.6c1.7,0.1,3.2,0.7,4.5,1.1l-1,1.7c4.2,0.8,3.1-0.1,5.5,2.3l0.6,0.6v0.9
		c-1.3,2.4,0.8,4.1-3,4.9c-1,0.2-2.7,0.7-3.3,0.7c-2.5-0.2-3-1.7-6.4-1.4l0.1,1.7c1.1,0.9,0.5,0.8,1.3,1.8c0.8,0.9,1.3,0.5,2.2,1.5
		c1.9,2.1,2,0.6,2.4,4.7c-1.3,0.6-0.9,0.2-2,1.1l0.3,4.1c-4.2,1.9-5.6-1.1-9.6,0.2c-3.5,1.1-3.9,2.2-6.5,0.9
		c-1.2-0.6-1.1-0.4-2.6-0.4c-0.5-0.5-0.5-0.6-1.5-0.8l-1.9,0c0.2,1.7-0.3,0.5,0.8,1.5l1.4,2.2l-2,0l-0.3,1.6c5.4,0.3,3.9,0.4,5,1.7
		c1,1.4,1.1,0.5,1,3c-1.5,1.3-1.4,0.6-2.3,2.5c-1-0.2-0.8-0.3-1.6,0.1c-0.2,0.6-0.1,0.9-0.5,1.5c-1.3,2-0.3-1-4.1,3.6
		c-9.7,0.1-2.9-0.4-7.7-1.1c-0.4,0.7-0.7,1.2-0.9,2.1c1.4,0.5,0.7-0.2,1.7,0.2c1,0.5,0.1,0.1,1.3,1.8c1.8,0.3,2.9-0.3,5,0.4
		c2.9,0.9-1.1,1.1,5.6,1.3c2.1,2.6,3.6,4.4,2.1,7.5c-0.8,1.6-1.3,1.5-1.7,2c-1.5,1.9-0.1,3.5-2.6,4.8c-1.2,0.6-5.7,1.3-6.7-1.1
		c-0.8-1.8-0.7-1.9-0.7-3.7l-2.4,0.3c0.5,3.3,1.5-0.4,1.4,2.6c-1,0.5-1.3,0.2-2.5,0.4c-0.7,0.9-1.3,1.3-1.4,2.7l1.7,0.6
		c-0.5,2.3-3.2,0.8-3.1,3.8c0,1.3,1.3,4.4,1.6,5.6c0.3,0,1.4-0.1,1.7,0c1.8,0.2,0.4,0,1,0.4c-0.1,0-0.1,0.1-0.2,0.1
		C401,132.2,404.6,132.4,408.3,132.7L408.3,132.7z M367.4,87.5l1.1,0.2l-0.1-1.5l0.4,0.7c0.7,1.4,0.1-0.4,0.1,0.8
		C367.2,88.6,367.6,87.8,367.4,87.5L367.4,87.5z M394.5,78c-1.4,0.5-0.7,0.8-0.9-0.9c0.5-0.5,0.1,0,1.2-0.2L394.5,78L394.5,78z
		 M392.9,45.3c-1,0.4,0,0.4-1.4,0.1l0.3-2l1-0.3L392.9,45.3L392.9,45.3z M389.2,47.3l0.7,0.1l-0.6,0.8L389.2,47.3L389.2,47.3z
		 M381.9,73.6c-0.6,0.9-0.8,1.1-1.7,1.5l0.1,1.3l-0.7-0.6c0.4-1.2,0.1-0.5,0.9-1.3c0.1-0.1,0.6-0.5,0.6-0.5
		C381.7,73.5,380.9,74,381.9,73.6L381.9,73.6z M387.1,61.8c-1.5-1.1-1.5-1.1-1.5-1.1c-0.4-0.5-1,0.9,0.1-2.4l3.5,1.2
		C389.3,61.3,388.7,61.5,387.1,61.8L387.1,61.8z M396.3,107.6c-1.2-0.7-0.8-0.9,0.3-1.6C396.8,107.1,397.1,106.6,396.3,107.6
		L396.3,107.6z M382.1,103.4c1.1,0.1,1.9,0.3,2.4,1.6c-0.8,0.6-1.8,0.7-3.2,0.6L382.1,103.4L382.1,103.4z M388.7,98.1
		c-1.5,0.9-1.3,0.1-1.5,0C386.7,97,387.9,96.2,388.7,98.1L388.7,98.1z M394.4,94.2c-1-0.7-0.3-0.6,0-1c0.1,0.1,0.2,0.2,0.2,0.2
		C395.3,95.6,395,93.4,394.4,94.2L394.4,94.2z M388.5,89.9c-1.5-0.6-0.4-0.5,0-1c0.1,0.1,0.2,0.2,0.2,0.2v0.5v0c0,0,0,0,0,0
		C388.7,89.5,388.5,89.8,388.5,89.9L388.5,89.9z M396.1,80c2-1.2,2.7-6.3,4.3-2l2.9,0.2c-0.4,2.9-1.2,0.1-4.6,2.2
		c0.4,3-0.5,1.3-0.3,3.1l5.8-0.1c0.6,0.7,0.5,0.5,0.7,1.4c-1.5,0.3-2.4,0.4-3.4,0.3c-0.9-0.1-2.4-0.5-3,0.4
		c-2.1,2.8,2.7,2.5,2.7,2.5c1.1,0.3,0.7,0.6,0.8,1c-1.7,1.1-2.6,0.1-4.9,0.5c-1.1,1.5-0.3,2.2-2.6,2.1c-1.6-1.9-0.8-4.9,0.8-7.3
		l2.3-0.3c0.1-1.8,0.1-0.7-0.5-1.7C396.7,81.4,396.5,80.8,396.1,80L396.1,80z M385.5,74.1l1-0.1c0.8,1.1,0.8,1.7,0.8,3.5
		c-1.2-0.4-0.8,0.2-2.2-0.6C384.7,75.7,384.7,75.2,385.5,74.1L385.5,74.1z M389.6,70.2c0.7,1.2,0.4,0.9-0.1,2.1
		C388.6,71.2,388.5,71.3,389.6,70.2L389.6,70.2z M406.6,71.7c-1.6,1.3-0.8-0.3-1.3,1.2l-0.9-0.4c-0.1,0-0.2-0.1-0.2-0.1l-1.9-0.4
		c-0.5-0.9-0.8-1-0.9-1.9c2.2-0.4,1.5-0.3,3.2-1C406.3,72.3,405.7,69.4,406.6,71.7L406.6,71.7z M387.6,66.5l1.1-0.2
		c0-0.1,0.2,0.1,0.3,0.2C388.4,67,388.4,67.1,387.6,66.5L387.6,66.5z M392.1,54.3c2.6,0.5,1.1,2.8-0.2,3.4L392.1,54.3L392.1,54.3z
		 M396.5,55.1c0.2-0.7,0.2-1,0.8-1.6l3-2.9l1.7,0.2c0.5,2-0.6,0.8,0.4,2.5l-1.3,0.6c1,1.3,0.8-0.2,1.3,2
		C400.6,55.8,398,55.9,396.5,55.1L396.5,55.1z M397.5,49.8c-0.1,1.3,0.4,0.5-0.5,1.3C395.4,50.3,396.2,50,397.5,49.8L397.5,49.8z
		 M384.5,45.3c-0.1-1,0.1-1.1,0.6-1.6c1,0.8,1.4,1.9,0.4,3.1C384.7,46.4,384.5,46.4,384.5,45.3L384.5,45.3z M417,41.1
		c-1.4-0.1-1.3-0.1-1.3-1.3C417,39.9,416.9,39.6,417,41.1L417,41.1z"/>
	<path class="st0" d="M392,7c-14.9,0-28.5,7.1-38.3,18.7c-9.9,11.6-16,27.8-16,45.6c0,17.8,6.1,34,16,45.6
		c9.8,11.5,23.4,18.7,38.3,18.7c14.9,0,28.5-7.1,38.3-18.7c9.9-11.6,16-27.8,16-45.6c0-17.8-6.1-34-16-45.6C420.5,14.1,407,7,392,7
		L392,7z M350,22.5c10.7-12.6,25.6-20.4,42-20.4c16.4,0,31.3,7.8,42,20.4c10.6,12.5,17.2,29.7,17.2,48.7c0,4.2-0.3,8.3-0.9,12.3
		c12.1-4.8,34.8-2.4,31,25.5c1.2-0.3,1.4-0.9,2.3-1.7l6.4-5.7c2.6-2.5,5.6-5.2,8.9-6.9c1.9-1,3.3-1.6,5.7-2.3
		c9.4-2.8,13.6,0.3,19.2,1.6c0,2.2-0.4,2.9-0.4,4.8c0.9,0.2,1.6,0.5,2.3,0.7c4.8,1,8.4,3.9,11.7,7.3c5,5,5.8,12.2,5.8,19.2
		c0,6.1-7.3,8.7-10.9,3.9l-2.2-2.9c-9.2-9-31.4-0.4-41.2,1.5c-8.7,1.7-17.5,2.6-26.4,3.7c-7.1,0-19,0.4-24.8-2c-4.8-2-4-8.3,1.4-9.4
		c2.2-0.4,16.2,0.4,18.3-7.3c-6.4-2.8-8.8-3.2-14.2-7.6c-2.6,5.2-5.7,9.9-9.3,14.2c-10.7,12.6-25.6,20.4-42,20.4
		c-16.4,0-31.3-7.8-42-20.4c-3.6-4.2-6.7-9-9.3-14.2c-5.5,4.5-7.9,4.8-14.2,7.7c2.1,7.8,16.1,6.9,18.3,7.3c5.3,1.1,6.1,7.4,1.4,9.4
		c-5.8,2.4-17.7,2-24.8,2c-8.8-1.1-17.6-2-26.4-3.7c-9.8-1.9-32-10.5-41.2-1.5l-2.2,2.9c-3.6,4.8-10.9,2.2-10.9-3.9
		c0-7,0.8-14.1,5.8-19.2c3.4-3.4,6.9-6.3,11.7-7.3c0.7-0.2,1.4-0.5,2.3-0.7c0-1.8-0.4-2.5-0.4-4.8c5.6-1.3,9.8-4.4,19.2-1.6
		c2.4,0.7,3.8,1.4,5.7,2.3c3.3,1.7,6.3,4.4,8.9,6.9l6.4,5.7c0.9,0.9,1.1,1.4,2.3,1.7c-3.7-27.9,19-30.3,31.1-25.5
		c-0.6-4-0.9-8.1-0.9-12.4C332.8,52.3,339.4,35,350,22.5L350,22.5z M320.3,86.8c-13.2,2.2-17.9,19.1-6.5,30.1c2.4,2.3,5.1,4.5,8.3,6
		l5,2.2c-10.6,1.2-22-6.3-29.2-13.1c-0.6-0.6-0.9-0.9-1.5-1.4c-0.9-0.8-1.8-1.7-2.9-2.6c-2.4-2.1-6.9-6.4-9.4-7.9
		c-4.2-2.5-12.1-5.9-18-2.8c0.5,3,1,4,1.7,5.9c-1.8,0.4-3.2,0.2-5.1,0.3c-10.2,0.5-19,12.3-16,23.7c0.5-0.6,0.9-1.2,1.3-1.8
		c0.7-1,0.9-1.1,1.7-1.9c1.1-1.1,2.8-2.3,4.4-3c3.9-1.7,6.9-2.6,12.3-2.5c8.3,0.1,17.7,2.1,24.9,4.3c7.6,2.3,16.3,3.6,24.5,4.4
		c6.5,0.7,22,0.5,27.5-1.1c-9-0.9-12.9-0.4-19.8-7c-0.9-0.9-0.3-0.4-0.9-1.3c-0.8-1.2-0.5-0.1-1.7-2.7c-4.1-9.2,2.1-16.9,7.6-14.6
		c2.5,1,2.3,3.1,2.4,6c3.8-1.2,5.9-3.1,6.1-7.6C337.3,89.8,327.8,85.6,320.3,86.8L320.3,86.8z M447,98.4c0.2,4.5,2.3,6.4,6.1,7.6
		c0.2-2.9-0.1-4.9,2.4-6c5.5-2.3,11.7,5.3,7.6,14.6c-1.1,2.6-0.9,1.5-1.7,2.7c-0.6,1,0,0.4-0.9,1.3c-6.8,6.6-10.8,6.1-19.8,7
		c5.5,1.6,21,1.8,27.5,1.1c8.1-0.8,16.8-2.1,24.5-4.4c7.2-2.2,16.5-4.2,24.9-4.3c5.4,0,8.4,0.9,12.3,2.5c1.6,0.7,3.3,1.9,4.4,3
		c0.8,0.8,1.1,0.9,1.7,1.9c0.4,0.6,0.8,1.3,1.3,1.8c3-11.4-5.8-23.3-16-23.7c-1.9-0.1-3.3,0.2-5.1-0.3c0.7-1.9,1.2-2.9,1.7-5.9
		c-5.9-3.1-13.8,0.3-18,2.8c-2.5,1.5-7,5.7-9.4,7.9c-1,0.9-2,1.9-2.9,2.6c-0.7,0.6-0.9,0.8-1.5,1.4c-7.2,6.8-18.7,14.2-29.2,13.1
		l5-2.2c3.2-1.5,5.8-3.6,8.3-6c11.4-11,6.7-27.9-6.5-30.1C456.1,85.6,446.7,89.8,447,98.4L447,98.4z"/>
	<path class="st2" d="M532.9,230.9c-1,1.5-2.4,3.3-3.8,4.4c-0.7,0.6-1.3,1.1-1.9,1.8l-1.8,1.9l-0.1,0c-4.1,3.7-10.2,2.6-11.9-2.9
		l0-0.2l0-0.2c-0.2-1.5-0.3-3.1,0.5-4.5c1.3-2.3,1.4-2.7,2.9-5.1c0.4-0.6,0.7-1.2,1.2-1.7c1-1.3,2.4-2.6,3.7-3.8l0.7-0.7l0.1-0.1
		c0.6-0.4,1.2-0.9,1.8-1.4c1.1-0.8,2.3-1.1,3.6-1.1c1.8,0,4,0.7,5.5,1.8c2,1.4,3.1,3.5,2.8,5.9c-0.2,1.4-0.6,2.4-1.5,3.5
		c-0.3,0.4-0.7,0.9-1,1.3l-0.1,0.2L532.9,230.9L532.9,230.9z M530.9,225c0.1-0.3,0.2-0.6,0.1-0.8c-0.3-0.7-1.5-1.2-2.2-1.4
		c-1.9-0.5-5,2.9-6.1,4.1c-1,1.2-1.9,2.4-2.7,3.7c-0.5,0.8-1.1,1.8-1.5,2.7c-0.5,1.4-0.1,2.5,1.5,2.6c1.8,0.1,2.6-1.5,3.7-2.6
		C526.1,230.8,529.3,228.2,530.9,225L530.9,225z"/>
	<path class="st0" d="M532.4,225.8c-1.7,3.4-5.5,6.7-7.5,8.7c-1.3,1.4-2.4,3.3-5,3.1c-2.4-0.2-3.9-2.1-2.9-4.8
		c1.1-3,7.6-12.7,12.2-11.6C531.2,221.7,533.6,223.3,532.4,225.8L532.4,225.8z M523.4,221.4l-0.6,0.6c-1.1,1-2.7,2.4-3.5,3.6
		c-2.2,2.9-4.7,6.4-4.2,10.1c1.4,4.5,6.1,4.9,9.2,2.2c2.7-2.8,9.9-9.3,10.3-12.8c0.5-4.1-4.4-5.9-6.6-5.9
		C525.6,219.2,524.9,220.3,523.4,221.4L523.4,221.4z"/>
	<path class="st1" d="M532.4,225.8c1.3-2.5-1.2-4.1-3.2-4.6c-4.5-1.1-11.1,8.6-12.2,11.6c-1,2.7,0.5,4.6,2.9,4.8
		c2.7,0.2,3.8-1.8,5-3.1C526.8,232.4,530.6,229.2,532.4,225.8L532.4,225.8z"/>
</g>
</svg>
