<?xml version="1.0" encoding="utf-8"?>
<!-- Generator: Adobe Illustrator 19.2.1, SVG Export Plug-In . SVG Version: 6.00 Build 0)  -->
<svg version="1.1" id="Layer_1" xmlns="http://www.w3.org/2000/svg" xmlns:xlink="http://www.w3.org/1999/xlink" x="0px" y="0px"
	 viewBox="0 0 600 300" style="enable-background:new 0 0 600 300;" xml:space="preserve">
<style type="text/css">
	.st0{fill-rule:evenodd;clip-rule:evenodd;fill:#4A5F94;}
	.st1{fill-rule:evenodd;clip-rule:evenodd;fill:#B2B3B4;}
	.st2{fill-rule:evenodd;clip-rule:evenodd;fill:#FFFFFF;}
	.st3{fill-rule:evenodd;clip-rule:evenodd;fill:#B1B1B1;}
	.st4{fill-rule:evenodd;clip-rule:evenodd;fill:#ECB244;}
	.st5{fill:#B2B3B4;}
	.st6{fill:#4A5F94;}
	.st7{fill:#ECB244;}
	.st8{fill:none;}
	.st9{font-family:'MyriadPro-Regular';}
	.st10{font-size:24px;}
</style>
<g>
	<polygon class="st0" points="7.8,280.2 591.9,280.2 591.9,286.3 7.8,286.3 5.5,283.1 5.5,277 7.8,280.2 	"/>
	<polygon class="st1" points="5.5,277 589.6,277 589.6,283.1 5.5,283.1 5.5,277 	"/>
	<polygon class="st0" points="591.9,280.2 591.9,286.3 589.6,283.1 589.6,277 591.9,280.2 	"/>
	<polygon class="st0" points="7.8,136.6 591.9,136.6 591.9,142.7 7.8,142.7 5.5,139.5 5.5,133.4 7.8,136.6 	"/>
	<polygon class="st1" points="5.5,133.4 589.6,133.4 589.6,139.5 5.5,139.5 5.5,133.4 	"/>
	<polygon class="st0" points="591.9,136.6 591.9,142.7 589.6,139.5 589.6,133.4 591.9,136.6 	"/>
	<path class="st1" d="M296.6,18.5c-23.4,0-42.4,24.8-42.4,55.5s19,55.5,42.4,55.5c23.4,0,42.4-24.8,42.4-55.5S320,18.5,296.6,18.5
		L296.6,18.5z"/>
	<path class="st2" d="M150.1,164.1c0,0-0.1,0.1-0.1,0.1c-1.8,1.6-3,4.9-3.8,7.2l-25.7,73.9l-14.6-42.5l-13.3,42l-30.7-73.1
		c-1.1-2.6-3.2-7.5-5.8-8.7c-0.6-0.3-1.2-0.4-1.9-0.4c-0.1,0-0.1,0-0.2,0h-3.1v-10.1h45.8v10l-3.1,0.1c-0.5,0-2,0.2-2.4,0.7
		c-0.1,0.1-0.1,0.5-0.1,0.6c0,1.2,0.5,2.6,0.9,3.7l7.4,20.6l14.1-45.2l15.5,45.3l6.6-19.6c0.4-1.3,0.6-3,0.6-4.4
		c0-0.2,0-0.6-0.1-0.8c-0.4-0.6-2.3-0.9-2.9-0.9l-2.9-0.2v-9.9h26.6v4.8c3.5-1.7,6.9-4.3,9.6-6.7l3.5-3.1l11.6,37.5l3.1,0.9
		l-0.7,3.3c-0.1,0.4-0.2,0.7-0.3,1.1l-0.3,0.7l2.2,7.1c0.3,1,1.4,4.9,2.2,5.6c0.3,0.2,0.8,0.3,1.1,0.3l0.9,0l0.2,0
		c0.4,0,1.8-0.2,2.2-0.5c0.2-0.4,0.3-2.1,0.3-2.6v-35.3c-2.4,1.7-3.9,4.4-5.1,7.6l-1.1,3.1l-6.9-2.8l4-23.6l3.9,2.9
		c0.9,0.7,3.2,0.8,4.3,0.8h23c1.1,0,3.3-0.1,4.2-0.8l3.9-2.9l0.6,3.7h32.2c1,0,3.8-0.1,4.6-0.9l4.1-4.6l1.2,6.3
		c0.8,4.3,1.9,9.1,3.7,13l1.6,3.5l-7.6,3.2l-1.4-2.4c-0.1-0.2-0.2-0.3-0.3-0.5v21.3h-8.1l-0.2-3.2c-0.1-1-0.3-2.1-0.9-2.8
		c-0.7-0.9-1.9-1.3-3.1-1.5v12.1c0,0.9,0,4.5,0.7,5.2c0.4,0.4,1.8,0.5,2.3,0.5c5.8,0,10.4-5.4,12.6-10.8l1.3-3.1l7.4,3.6l-3.7,11.5
		l2.4-0.2c0.4,0,1.7-0.2,2.1-0.4c0.2-0.4,0.3-2.1,0.3-2.6v-35.1c0-0.5,0-2.2-0.3-2.6c-0.4-0.3-1.7-0.4-2.1-0.4l-2.9-0.2v-8.9h30.1
		c3.8,0,8.1,0.5,11.7,2.3v-2.3h32.2v9l-3.1,0.1c-0.1,0-0.2,0-0.4,0c0.1,0.4,0.3,0.8,0.3,1.1l4.7,13.8l4.6-12.8
		c0.2-0.6,0.4-1.3,0.4-2c-0.3-0.1-0.6-0.1-0.8-0.1l-3.1-0.1v-9h81.2c1,0,3.8-0.1,4.6-0.9l4.1-4.6l0.8,4.3h45.7v10l-3.1,0.1
		c-0.5,0-2,0.2-2.4,0.7c-0.1,0.1-0.1,0.5-0.1,0.6c0,1.2,0.5,2.6,0.9,3.7l7.4,20.6l14.1-45.2l15.5,45.3l6.6-19.6
		c0.4-1.3,0.6-3,0.6-4.4c0-0.2,0-0.6-0.1-0.8c-0.4-0.6-2.3-0.9-2.9-0.9l-2.9-0.2v-9.9h26.6v9.8l-2.8,0.3c-1.4,0.2-2.9,0.5-4.1,1.5
		c-1.8,1.6-3,4.9-3.8,7.2l-25.7,73.9l-14.6-42.5l-13.3,42l-30.7-73.1c-1.1-2.6-3.2-7.5-5.8-8.7c-0.6-0.3-1.2-0.4-1.9-0.4
		c-0.1,0-0.1,0-0.2,0h-0.7c0.5,1.7,1.1,3.4,1.8,4.9l1.6,3.5l-7.6,3.2l-1.4-2.4c-0.1-0.2-0.2-0.3-0.3-0.5v21.3h-8.1l-0.2-3.2
		c-0.1-1-0.3-2.1-0.9-2.8c-0.7-0.9-1.9-1.3-3.1-1.5v12.1c0,0.9,0,4.5,0.7,5.2c0.4,0.4,1.8,0.5,2.3,0.5c5.8,0,10.4-5.4,12.6-10.8
		l1.3-3.1l7.4,3.6l-6.5,20.5h-74.2v-8.9l2.9-0.2c0.4,0,1.7-0.2,2.1-0.4c0.2-0.4,0.3-2.1,0.3-2.6v-35.1c0-0.5,0-2.2-0.3-2.6
		c-0.4-0.3-1.7-0.4-2.1-0.4l-2.2-0.2v0l-3,0.2c-2.1,0.1-3.4,3.1-4.1,5L338.9,220L319,171.3c-0.5,3.9-2.3,6.9-5.1,8.9
		c4.2,5.1,6,11.6,8.3,18.3c0.3,1.1,1.4,4.4,2.2,5c0.4,0.3,1,0.3,1.4,0.4l3,0.1v9h-59.7v-7.3l-2.3,7.3h-44.3v-8.9l2.9-0.2
		c0.4,0,1.7-0.2,2.1-0.4c0.2-0.4,0.3-2.1,0.3-2.6v-35.1c0-0.5,0-2.2-0.3-2.6c-0.4-0.3-1.7-0.4-2.1-0.4l-0.5,0l1.9,10.8l-6.8,2.8
		l-1.2-3.1c-1.2-3.2-2.7-6-5.1-7.7v35.3c0,0.5,0,2.2,0.3,2.6c0.4,0.3,1.7,0.4,2.1,0.4l2.9,0.2v8.9h-59.4v-9.1h3.1c0.2,0,0.4,0,0.5,0
		c0.3,0,0.9,0,1.2-0.1c0,0,0,0,0,0c0-0.6-0.2-1.3-0.4-1.9l-1.9-6.3h-8.7l-1.5,4.8c-0.2,0.8-0.4,1.8-0.4,2.6c0,0.1,0,0.6,0.1,0.7
		c0.2,0.3,1.2,0.4,1.5,0.4l3,0.2v9H135v-8.9l2.9-0.2c0.8-0.1,1.7-0.2,2.3-0.7c1.4-1,2.3-3.7,2.8-5.3l10-30.8
		c-0.4-0.8-0.9-1.4-1.7-1.9L150.1,164.1L150.1,164.1z M395.3,204.1l1.9-0.1c0.4,0,1.7-0.2,2.1-0.4c0.2-0.4,0.3-2.1,0.3-2.6v-35.1
		c0-0.5,0-2.2-0.3-2.6c-0.4-0.3-1.7-0.4-2.1-0.4l-1.9-0.1l-1.9,0.1c-0.4,0-1.7,0.2-2.1,0.4c-0.2,0.4-0.3,2.1-0.3,2.6v35.1
		c0,0.5,0,2.2,0.3,2.6c0.4,0.3,1.7,0.4,2.1,0.4L395.3,204.1L395.3,204.1z M431.5,169c-2.8-3.5-5.9-5-10.6-5.1v11.4
		c1.5-0.2,3-0.7,3.5-1.5c0.3-0.4,0.4-1,0.4-1.5l0.2-3.3H431.5L431.5,169z M298.6,204.3l2.1-0.3c0.1,0,0.3-0.1,0.5-0.1
		c0-0.2,0-0.6,0-0.7c0-3.7-2.8-10.6-4.3-13.9c-0.3-0.6-0.7-1.5-1.2-2.3v14c0,0.4,0,2.2,0.3,2.6c0.2,0.2,1.1,0.4,1.3,0.5L298.6,204.3
		L298.6,204.3z M259.7,169c-2.8-3.5-5.9-5-10.6-5.1v11.4c1.5-0.2,3-0.7,3.5-1.5c0.3-0.4,0.4-1,0.4-1.5l0.2-3.3H259.7L259.7,169z
		 M295.8,173.9c2-0.5,2.6-2,2.6-5.1c0-2.6-0.9-4-2.6-4.6V173.9L295.8,173.9z M156.6,185.6h2.6l-1.3-4.1L156.6,185.6L156.6,185.6z"/>
	<path class="st0" d="M181.6,186.4l-0.1,0.5C181.5,186.7,181.6,186.6,181.6,186.4L181.6,186.4z M478.6,233.5l13.6-42.9l14.8,42.9
		l22.8-65.4c2.4-6.9,4.6-10.3,10.5-11V154H520v3.1c4,0.3,5.9,2,5.9,5.3c0,2-0.3,4-0.8,5.6l-9.5,28.3l-15.4-45l-14.1,45l-10.5-29.3
		c-0.7-1.9-1.1-3.6-1.1-5c0-3,1.9-4.7,5.5-4.8V154h-39.6v3.1c0.1,0,0.1,0,0.2,0c4.6,0,7.3,3.6,10.5,11.1L478.6,233.5L478.6,233.5z
		 M398.1,207.5h39l4.8-15l-1.9-0.9c-3.3,8.2-9.5,12.9-15.5,12.9c-5.2,0-6.1-2.7-6.1-9.2v-15.8c0.2,0,0.4,0,0.6,0
		c6.2,0,9.2,2.4,9.6,7.7h2v-16.7h-2c-0.3,4.6-3.5,6.4-10.2,6.5v-18.6h2.8c6.9,0,11.5,2.7,15.5,9.5l2-0.8c-1.7-3.8-2.9-8.5-4-13.9
		c-1.2,1.4-3.5,2-6.8,2h-29.8v2.1c4.2,0.3,5.3,1.7,5.3,6.5v35.1c0,4.7-1,6.2-5.3,6.5V207.5L398.1,207.5z M393.9,155.1h-25.6v2.1
		c4.3,0.3,5.3,1.8,5.3,6.5v35.1c0,4.7-1,6.2-5.3,6.5v2.1h25.6v-2.1c-4.3-0.3-5.3-1.8-5.3-6.5v-35.1c0-4.7,1-6.2,5.3-6.5V155.1
		L393.9,155.1z M362.8,155.1h-12.9v2.1c2.6,0.1,3.8,1.2,3.8,3.5c0,1-0.2,2.1-0.6,3.3l-7.6,21.2l-7.6-22.2c-0.4-1.3-0.7-2.3-0.7-3
		c0-1.9,1.2-2.7,3.6-2.8v-2.1h-26v2.1c2.5,0.2,4.2,1.7,5.4,4.8l19.2,47l16.5-44.7c1.7-4.6,4-7,6.9-7.1V155.1L362.8,155.1z
		 M293.3,198.2v-18.9c0.2,0,0.3,0,0.5,0c2.7,0,4.6,2,6.6,6.3c0.5,1.2,1,2.3,1.4,3.3c1.1-0.9,2.3-1.8,3.6-2.2c1.5-0.5,3-0.4,4.5,0.2
		c1.3,0.6,2.5,1.5,2.9,3.1c0.7,2.7-1.4,5.7-2.9,7.6c-1.2,1.5-2.7,3-4.2,4.2c-1.5,1.4-1.6,1.4-3.5,3.4c0,0-0.1,0.1-0.1,0.1
		c-0.1,0.1-0.1,0.3-0.1,0.4l-0.1,0.3l-0.2,0.2v1.2h24.6v-2.1c-3.8-0.2-4.7-2.4-6.5-7.7c-2.7-8.3-4.7-15.7-11.1-20.6
		c5-1.4,7.8-4.9,7.8-9.8c0-7.7-5.7-12.2-16.7-12.2h-27v2.1c4.3,0.3,5.3,1.8,5.3,6.5v35.1c0,4.7-1,6.2-5.3,6.5v2.1h12.8
		C289.2,204.2,290.7,201.2,293.3,198.2L293.3,198.2z M303.3,192.6c0.7,2,1.1,3.7,1.4,5.2c0.5-0.5,1-0.9,1.5-1.4
		c0.9-0.9,1.9-2,2.6-3.1c0.3-0.4,0.7-1.3,0.7-1.9c-0.4-0.6-0.9-1-1.6-1.1C306.5,190,304.7,191.3,303.3,192.6L303.3,192.6z
		 M290.6,207.5h5.2l0.9-1.1c0.3-0.3,0.5-0.6,0.8-0.9v-0.1c-1.7-0.4-2.7-1-3.3-2L290.6,207.5L290.6,207.5z M293.3,175.6v-17.1
		c0.3,0,0.7-0.1,1.1-0.1c5,0,7.8,3.1,7.8,8.3c0,6.1-2.5,8.9-8,8.9C293.9,175.6,293.6,175.6,293.3,175.6L293.3,175.6z M226.4,207.5
		h39l4.8-15l-1.9-0.9c-3.3,8.2-9.5,12.9-15.5,12.9c-5.2,0-6.1-2.7-6.1-9.2v-15.8c0.2,0,0.4,0,0.6,0c6.2,0,9.2,2.4,9.6,7.7h2v-16.7
		h-2c-0.3,4.6-3.5,6.4-10.2,6.5v-18.6h2.8c6.9,0,11.5,2.7,15.5,9.5l2-0.8c-1.7-3.8-2.9-8.5-4-13.9c-1.2,1.4-3.5,2-6.8,2h-29.8v2.1
		c4.2,0.3,5.3,1.7,5.3,6.5v35.1c0,4.7-1,6.2-5.3,6.5V207.5L226.4,207.5z M196.3,158.6v40.3c0,4.7-1.1,6.2-5.4,6.5v2.1h25.6v-2.1
		c-4.3-0.3-5.3-1.8-5.3-6.5v-40.3c5,0.9,8.6,4.4,11.2,11.3l1.5-0.6l-2.7-15.5c-1.2,0.9-3.2,1.4-5.9,1.4h-23c-2.7,0-4.8-0.5-6-1.4
		l-2.7,15.5l1.5,0.6C187.6,163.2,191.2,159.5,196.3,158.6L196.3,158.6z M138.8,207.5h14.8v-2.1c-3-0.2-4.6-1.7-4.6-4.6
		c0-1.2,0.3-2.6,0.6-3.7l2.2-7.1h13.2l2.7,8.7c0.3,1.1,0.5,2.1,0.5,3c0,2.4-1.4,3.6-4.4,3.6c-0.2,0-0.3,0-0.5,0v2.1h26.2v-2.1
		c-3.9-0.1-4.5-2.8-6.2-8.2l-14.2-45.9c-5.5,4.9-10.7,8-15.2,9c1.6,1.2,2.6,2.7,3.3,4.6L146.7,197c-1.8,5.6-3.7,8-7.9,8.3V207.5
		L138.8,207.5z M152.9,187.1l5.8-18.3l5.7,18.3H152.9L152.9,187.1z M92.8,233.5l13.6-42.9l14.8,42.9l22.8-65.4
		c2.4-6.9,4.6-10.3,10.5-11V154h-20.3v3.1c4,0.3,5.9,2,5.9,5.3c0,2-0.3,4-0.8,5.6l-9.5,28.3l-15.4-45l-14.1,45l-10.5-29.3
		c-0.7-1.9-1.1-3.6-1.1-5c0-3,1.9-4.7,5.5-4.8V154H54.6v3.1c0.1,0,0.1,0,0.2,0c4.6,0,7.3,3.6,10.5,11.1L92.8,233.5L92.8,233.5z"/>
	<path class="st1" d="M203.9,100.7c-1.4,0.4-2.4,0.2-3.8,0.2c-7.6,0.4-14.2,10.2-12,19.7c0.4-0.5,0.7-1,1-1.5
		c0.5-0.8,0.7-0.9,1.3-1.6c0.8-0.9,2.1-1.9,3.2-2.5c2.9-1.4,5.2-2.1,9.2-2.1c6.2,0.1,13.2,1.7,18.6,3.6c5.7,1.9,12.2,3,18.3,3.7
		c4.8,0.6,16.4,0.4,20.5-0.9c-6.7-0.7-9.7-0.4-14.8-5.8c-0.7-0.8-0.2-0.3-0.7-1.1c-0.6-1-0.4-0.1-1.2-2.3c-3-7.7,1.6-14,5.7-12.1
		c1.9,0.9,1.7,2.6,1.8,5c2.8-1,4.4-2.6,4.5-6.4c0.2-7-6.1-10.8-12.4-9.6c-9.8,1.8-13.4,15.9-4.9,25c1.8,2,3.8,3.7,6.2,5l3.7,1.8
		c-7.9,1-16.4-5.2-21.8-10.9c-0.5-0.5-0.7-0.7-1.1-1.2c-0.7-0.6-1.4-1.4-2.1-2.2c-1.8-1.8-5.1-5.3-7-6.5c-3.1-2.1-9.1-4.9-13.4-2.3
		C203,98.3,203.4,99,203.9,100.7L203.9,100.7z"/>
	<path class="st1" d="M389.3,100.7c1.4,0.4,2.4,0.2,3.8,0.2c7.6,0.4,14.2,10.2,12,19.7c-0.4-0.5-0.7-1-1-1.5
		c-0.5-0.8-0.7-0.9-1.3-1.6c-0.8-0.9-2.1-1.9-3.2-2.5c-2.9-1.4-5.2-2.1-9.2-2.1c-6.2,0.1-13.2,1.7-18.6,3.6
		c-5.7,1.9-12.2,3-18.3,3.7c-4.8,0.6-16.4,0.4-20.5-0.9c6.7-0.7,9.7-0.4,14.8-5.8c0.7-0.8,0.2-0.3,0.7-1.1c0.6-1,0.4-0.1,1.2-2.3
		c3-7.7-1.6-14-5.7-12.1c-1.9,0.9-1.7,2.6-1.8,5c-2.8-1-4.4-2.6-4.5-6.4c-0.2-7,6.1-10.8,12.4-9.6c9.8,1.8,13.4,15.9,4.9,25
		c-1.8,2-3.8,3.7-6.2,5l-3.7,1.8c7.9,1,16.4-5.2,21.8-10.9c0.5-0.5,0.7-0.7,1.1-1.2c0.7-0.6,1.4-1.4,2.1-2.2c1.8-1.8,5.1-5.3,7-6.5
		c3.1-2.1,9.1-4.9,13.4-2.3C390.2,98.3,389.8,99,389.3,100.7L389.3,100.7z"/>
	<path class="st1" d="M120.5,239.7c0.5,0.9,1.2,1.4,2,2c0.9,0.8,1.1,1.3,2.7,1.3c0.6-2.8,1.9-5.6,2.8-8.4c0.5-1.5,0.9-2.7,1.4-4.2
		c0.3-0.8,0.4-1.3,0.6-2l5.2-14.7c0.5-1.4,1.1-2.8,1.4-4.2c1.5,0.5,2.8,2.7,3.8,2.7h19.2c0-7.2,1.2-6.9-3.8-10.7v7.3h-19.4
		c0.6-1.3,0.2-4.1,0.1-5.6c-0.1-1.1,0.1-0.5,0.1-1.7h2.7c1.3-2.7,8.6-25.1,11-31.3c2-5.3,1.6-3.3,3.5-6.5c-0.9-1.6-2.3-2.5-3.8-3.4
		c-2.4,4-2.6,3.4-4.4,9.1c-0.5,1.7-1.1,3.2-1.8,5c-0.6,1.9-1.1,3.3-1.8,5c-0.6,1.7-1.2,3.3-1.8,5l-1.7,5.1
		c-2.2,7.2-6.3,17.6-8.8,25.3l-7.9,22.6C121.6,239.3,121.9,239.6,120.5,239.7L120.5,239.7z"/>
	<path class="st1" d="M543.1,159c-7.9,0-9.2,4.1-12.3,14c-3.7,11.5-8.5,23.5-12.2,35.2l-11.3,32.2l0.9,0.8c0,0,0.1,0.1,0.1,0.1
		c1,0.9,1.1,1.4,2.5,1.5c0.2-0.8,0.6-1.8,0.9-2.7l15.9-45.7c2.5-6.5,5-14.9,7.4-21.6c1-2.9,2.7-7.7,5-9.4c2-1.5,3.9-1.7,6.4-1.7
		v-8.2c-1.4-0.4-1.9-2-3.3-2.4V159L543.1,159z"/>
	<path class="st1" d="M341.3,216.3c1.4-0.3,2.7-0.8,4.1-1l-0.8-0.3c0.1-1.2,2.1-6,2.5-7.2c0.2-0.6,0.4-1.1,0.7-1.7l3.2-8.9
		c1.9-5.3,10.8-30.3,12.6-32.6c0.6-0.7,1.3-1.2,2.2-1.5c1.3-0.4,3-0.2,4.5-0.2c-0.1-1.2-0.3-1.2-0.3-2.7c-0.9-0.2-1.5-0.5-2.5-0.6
		c-0.5-0.1-0.9,0-1.5-0.1l-0.9-0.2l-0.3,0.3c-2.9,0-4.2-0.4-6.1,3.6l-13.6,36.6c-0.4,1.1-0.9,2.4-1.4,3.7c-0.4,1.2-0.9,2.4-1.4,3.7
		l-2,5.4c-0.6,1.8-0.2,0.3-1,1.6c0.6,0.5,1.5,1.3,2.2,1.5L341.3,216.3L341.3,216.3z"/>
	<path class="st1" d="M400.4,208.4l-0.6,0.6c0.7,0.5,2,1.5,2.7,2.2c1.5,1.5,0.9,1.1,3.6,1.1l26.8,0c0.6,0.1,0,0,0.5,0.1
		c0.6,0.1,0.3,0,0.6,0.2l1.6,0.2c-0.4-0.8-0.6-0.4,0.5-0.5l5,0c0.4-1.8,1-3,1.5-4.8c0.5-1.8,1-3.2,1.5-4.8l3.1-9.4
		c-0.5-0.4-1.3-1.1-1.8-1.6c-0.8-0.8-1.1-1.1-2-1.7l-3,9.2c-0.6,2.1-2.6,7.7-2.8,9.4c-2.9,0.8-26.7,0.3-33.4,0.3l-3.2-0.1
		C400.5,208.7,401,209.2,400.4,208.4L400.4,208.4z"/>
	<path class="st1" d="M284,212.8c0.6-0.3,0.3-0.2,0.7-0.7c0.2-0.3,0.5-0.7,0.7-1c0.4-0.6,0.9-1.4,1.2-1.9c-0.9,0-1.7,0-2.6-0.1
		l-13.8,0.1c-2,0-1.6,0.1-1.6-4.6l-1.4,4.6h-42.4c0.3,0.5,2.8,2.8,3.3,3.1c1.3,0.7,4.2,0.3,6,0.3l34.5,0c1.6,0,2.1,0.4,2.5-0.9
		c0.9,0.6,1,0.9,2.4,0.9C276.4,212.5,282.6,211.9,284,212.8L284,212.8z"/>
	<path class="st1" d="M269.8,168.1c-1.1,0.3-2,0.8-3,1.2c-1,0.4-2.2,1.2-3.3,1.3c-0.6-1.3-1.1-2.6-2.5-3v21.3l-4,0.1
		c-0.8,0.1-1.2,0.1-2.3,0.2c0.4,0.7,1.2,1.2,1.9,1.9c2,2,2.9,1.5,6.6,1.5c0.7,0,0.8-0.1,1.4-0.3c0.8-3.6,0.3-15.3,0.3-20.1
		c2.5,0.8,0.4,3.2,5.5,0.7c1-0.5,1.6-0.9,2.9-1c0-2.2-0.8-2.5-1.7-5.1c-0.5-1.4-1.5-3.9-1.6-5.3c1.7,0.5,0.6,1.5,3.3,1.5
		c0-4.6-1.7-2.7-5.2-3.7V151c-1.3-0.9-2.8-2.2-3.8-3.4c0,1.4,0.6,4.2,0.8,5.5C266.8,162.1,269.6,167.2,269.8,168.1L269.8,168.1z"/>
	<path class="st1" d="M92.1,239.7c0.8,1.3,2.8,3.3,4.4,3.4c0.9-4.5,11.8-36.3,11.8-38.1c0-1.5-1.8-5.1-2.2-7c-0.8,0.7-1.2,3.1-1.8,5
		l-10.9,34.5C93,238.9,93.1,239.4,92.1,239.7L92.1,239.7z"/>
	<path class="st1" d="M441.5,168.1l-6,2.4c-0.7-1.4-1.2-2.6-2.7-3c0,1.7,0.3,2.3,0.3,3.6l-0.1,17.3c-0.2,1.2-0.2,0.6-2.3,0.5
		c-1.3-0.1-2.8,0-4.1,0l1,1.3c0.5,0.5,0.7,0.6,1.2,1.1c2,1.8,2.7,1.3,6.5,1.3c0.7,0,0.8-0.1,1.4-0.3v-20.1c3.4,1,0.1,3.1,5.7,0.6
		c0.9-0.4,2.2-0.8,3-1.2c-0.2-0.7-2.7-6.6-3.3-9.4c0.8,0,1.7,0,2.5,0c1.2,0.1,1,0.3,2.2,0.3c-0.9-3.6-5.1-3.7-7.9-3.7
		c0-6,1-9.6-2.7-10.7c1.5,7.3,1.1,8,3.7,15.4C440.3,164.8,441.4,166.7,441.5,168.1L441.5,168.1z"/>
	<path class="st1" d="M394,202.4l0.4-0.5c-0.5-1.6-0.7-30.2-0.4-35.1c0.2-4.3,0.6-4,7.1-4c-0.3-3.7-0.9-3-4.1-3.4
		c-1.6-0.2-4.8-0.1-6.3,0.7c-0.7,3.2-0.3,27.7-0.3,34.4C390.5,203.8,390.2,199.8,394,202.4L394,202.4z"/>
	<path class="st1" d="M479,240.3c1.1,0.8,1.9,2.1,3.3,2.4c0.9-4.1,11.8-36.4,11.8-37.8c0-0.5-0.8-2.4-1-3.2
		c-0.3-0.8-0.3-0.8-0.6-1.5l-0.6-1.4c-0.2,1-0.5,1.7-0.8,2.5l-10.6,33.6C480,236.9,479.4,238.4,479,240.3L479,240.3z"/>
	<path class="st1" d="M189.5,201.6l-14.3-46.3c-0.3-1.1-0.7-2.3-1.1-3.6c-0.7-2.3-2.4-3.9-4.3-5c0.3,1.3,0.7,2.2,1.1,3.4
		c0.4,1.3,0.7,2.5,1.1,3.7c0.7,2.4,1.5,4.7,2.3,7.2l6.6,21.3c1.3,3.7,4.2,15,5.8,17.6C187.4,201.2,187.7,201.6,189.5,201.6
		L189.5,201.6z"/>
	<path class="st1" d="M95.6,154.4v4.3c-2.5,0-5.5-0.3-5.5,2.4c0,2.1,2.2,7.9,3.2,10.5l4.9,13.5c0.5,1.4,0.5,2.4,1.5,3.2
		c0.3-4.3,2.1-0.1-0.7-8.3c-1.5-4.2-5-12.3-5-16.1c0-2,3.9-1.8,5.5-1.8v-7.9c0-0.8-2.2-2.7-2.7-3.1
		C95.9,150.3,95.6,149.4,95.6,154.4L95.6,154.4z"/>
	<path class="st1" d="M318.6,166c0,4.1-0.5,6.9-3.5,9.8c-0.8,0.7-1.4,0.9-2,1.8c2.1,3.5,2.7,3.4,5.1,8.7c1.9,4.1,3.7,11.1,5.1,13.8
		c0.7,1.3,1.1,1.6,2.9,1.6l-3.9-11.2c-0.9-1.9-1.6-3.3-2.5-5.2c-1-2-2.6-3.8-2.9-4.7c3.4-2,5.9-6.9,5.3-9.9l-2.2-5.5
		c-0.9-2.2-1.1-3.8-2.8-5.1c0.2,1.2,0.6,1.3,0.9,2.7C318.3,163.8,318.6,164.7,318.6,166L318.6,166z"/>
	<path class="st1" d="M301.1,209c0.3,1.1,0,0.2,0.7,1c0.5,0.6,0.5,0.5,0.9,1.1c1,0.3,0.8,0.1,0.5,0.9c1-0.1,1.3-0.5,2.2-0.6
		c0.9-0.1,2.1-0.2,3-0.2c2.6,0,2.9,0.4,4.6,1.4c0.1-0.1,0.2-0.2,0.2-0.1l18.1-0.3c0-1.5,0.2-6.1-0.1-7.2c-0.2-0.6-3.1-3.1-3.7-3.5
		v7.3H301.1L301.1,209z"/>
	<path class="st1" d="M115.6,144.9l-1.1,0c0.8,1.4,6.5,18.6,7.6,21.7l6.5,18.9c0.5,1.3,0.3,1.9,1.2,2.6c0.7-3.2,1.5-2.3,0.4-5.6
		l-11.5-33.3C117.8,146,116.8,147.1,115.6,144.9L115.6,144.9z"/>
	<path class="st1" d="M192.2,213c0.6-0.5,1.1-1.1,1.7-1.9c0.7-0.8,1.2-1.2,1.6-2.2h-34.7c0.4,0.7,1.5,1.5,2.2,2.1
		c1.3,1.2,0.9,1.3,3.3,1.2l26,0V213L192.2,213z"/>
	<path class="st1" d="M482.8,155v4c-7.9,0-5.6,1.9-3.3,9.2c0.8,2.6,6.3,18.5,7.1,19.2c0.2-3.2,1.6-0.6-1.1-7.3l-3.5-9.8
		c-1.1-3.2-1.4-2.8-1.4-6.6c0-1.9,4.1-1.8,5.5-1.8l0.3-7.9c-1.3-0.8-2.1-1.9-3.3-2.7C483,152.8,482.8,153.2,482.8,155L482.8,155z"/>
	<path class="st1" d="M213.1,188.3c2.1-0.3,2.7,0.1,4.1,0.8c-0.9-4,0-17.4-0.3-23.1c-0.1-1.5-0.5-1.6-1.3-2.5
		c-0.7-0.8-1.2-1.2-2.3-1.4C213.3,166.2,213.8,186.3,213.1,188.3L213.1,188.3z"/>
	<path class="st1" d="M343.2,159.6h-3.6c0.1,2,2.1,6.7,2.8,8.8c0.5,1.5,1,2.8,1.5,4.4c0.3,1,1,3.6,1.7,4.2c0.8-3.7,1.8-0.9,0.3-5.9
		c-0.6-2.1-2.5-6.4-2.5-8.2c4.2,0,3.6,0.4,3.6-3.4c0-1.4,0-2.8,0-4.3c-0.8-0.2-2.6-2.1-3.8-3V159.6L343.2,159.6z"/>
	<path class="st1" d="M502.2,145.6c0.3,1.6,1.1,3.7,1.6,5.2l11.7,34.2c0.4,1.2,0.3,1.7,1.1,2.4c0.3-3.3,1.7-0.8-1.1-7.9
		c-0.3-0.9-0.6-1.9-1-2.9C512.3,169.7,506.9,149.1,502.2,145.6L502.2,145.6z"/>
	<path class="st1" d="M388.5,209h-23.4c0.2,0.4,3,3,3.4,3.2c0.9,0.4,17,0.2,18.7,0.2C387.4,213.2,388.3,210.1,388.5,209L388.5,209z"
		/>
	<path class="st1" d="M248.6,195.2c0,5.1,0.8,5.5,3.8,5.5v-15.8l1.1,0.3c-0.2-2.9-2.7-3.6-4.9-3.7V195.2L248.6,195.2z"/>
	<path class="st1" d="M419.6,189.4c0,1.6,0.2,9.1,0.7,10.2c0.6,1.2,2.1,1.1,3.4,1.1c0-1.5-0.3-1.9-0.3-3.6l0-12.2
		c1.3,0.1,0.5,0.4,1.4,0c-0.5-2.6-3.2-3.4-5.2-3.4V189.4L419.6,189.4z"/>
	<path class="st1" d="M225.9,170.6c-1.7,0.4-3.4,1.7-5.2,1.8c0.3,1.1,0.9,1.2,1.6,1.9c0.3,0.3,0.5,0.5,0.9,0.9l0.8,0.9
		c0.9-0.2,1.7-0.6,2.5-0.9c0.9-0.3,1.8-0.9,2.7-1c0-4.9-0.5-7.4-1.4-11.3h1.4c0-4.9-2.5-2.4-4.9-3.7
		C224.3,162.6,225.9,167.9,225.9,170.6L225.9,170.6z"/>
	<path class="st1" d="M186.8,172.7c-1.5-0.8-3.4-1.3-4.9-2.1c0.2,1,0,0.4,0.7,1.1l3,2.4l5.1,1.9c0.7-1.6,1.2-4.1,2.5-6
		c1.5-2.3,1-3.4,1-8C190.3,162.4,187.9,170.2,186.8,172.7L186.8,172.7z"/>
	<path class="st1" d="M248.6,173.6c1,0,3.2-0.6,3.8-0.9c0-2.3,0.4-6.9-0.3-8.5c5.9,0,5.8,1.3,7.9,1.5c-1.6-2.6-6.2-4.9-9.6-4.9h-1.9
		V173.6L248.6,173.6z"/>
	<path class="st1" d="M151.5,198.9c0,2.7-0.2,2.7,3.8,2.7c0.1-0.9,1.5-5.8,2.1-6.2c1.2-1,5.9-0.2,6.7-0.2c-0.1-0.8-0.8-3-1.1-3.7
		c-1.1,0.7-7.1,0.3-8.8,0.3c-1,0-0.1,0.1-0.8-0.3c-0.3,1.5-0.6,2.1-1,3.5C152,196.2,151.5,197.6,151.5,198.9L151.5,198.9z"/>
	<path class="st1" d="M419.8,173.6c4.6-0.1,3.6-0.9,3.6-9.4l4.5,0.4c1.6,0.3,1.8,1,3.1,1.1c-1.2-2-4.2-3.9-6.4-4.4
		c-2.5-0.6-2.3-0.5-4.8-0.5V173.6L419.8,173.6z"/>
	<path class="st1" d="M269.9,201.6c2.2,0,2.4-0.2,4.1-0.6c0.6-2.7,0.3-6.8,0.3-9.8c0-0.8-0.4-0.9-0.8-1.2
		C272.9,193,270.6,198.6,269.9,201.6L269.9,201.6z"/>
	<path class="st1" d="M156.1,183.7h4.4c-0.2-2.2-1.8-5.2-1.9-7H158C157.8,179,156.3,181.2,156.1,183.7L156.1,183.7z"/>
	<path class="st1" d="M58.7,162.3c-0.3-1.4-1.7-2.5-2.8-3c-1.5-0.8-2.7-0.7-4.9-0.7c0.3,0.8,2.2,2.5,2.8,2.9
		c0.8,0.6,1.2,0.4,2.4,0.4C57.6,162,57.7,162.2,58.7,162.3L58.7,162.3z"/>
	<path class="st1" d="M156.9,152.3c0,1.1-0.1,2.7,0.3,3.7l3.6-1.8c-0.3-1.3-1-1.4-2.3-2.6c-0.7-0.7-0.7-0.8-1.5-1V152.3L156.9,152.3
		z"/>
	<path class="st1" d="M135.9,162h1.9c0-3.3-2-3.4-5.7-3.4C132.4,159.3,135.2,162,135.9,162L135.9,162z"/>
	<path class="st1" d="M223.7,158.1l0.3-5.8h1.6c-0.3-0.5-2.6-2.5-3.3-2.7L223.7,158.1L223.7,158.1z"/>
	<path class="st1" d="M523.3,161.7h1.1c-0.1-2.7-2.7-2.7-4.7-2.7C520,159.4,522,161.7,523.3,161.7L523.3,161.7z"/>
	<path class="st1" d="M213.6,203.7c1.8,0,2.2,0.3,3.6,0v-2.1c-1.7,0-1.3-0.2-2.7,1.2L213.6,203.7L213.6,203.7z"/>
	<path class="st1" d="M350.9,162.3c1.8-3.7-3.2-2.7-3.3-2.7c0,0,0.1,0,0.1,0.1C347.8,159.7,350.1,162.1,350.9,162.3L350.9,162.3z"/>
	<polygon class="st1" points="302.8,211.1 302.5,211.1 302.7,211.4 302.8,211.1 	"/>
	<polygon class="st3" points="300.7,207.4 300.4,207.4 300.6,207.8 300.7,207.4 	"/>
	<path class="st2" d="M219.7,185.6c1,0.4,1.8,1.4,2.3,2.5c0.6,1.3,0.9,2.7,0.5,4.1c-1.1,4.6-9.2,11.5-12.7,15.4h-4.9
		c0.6-0.5,1.1-1.1,1.7-1.6c3.4-3.6,7-7,10.1-10.9c0.4-0.5,0.9-0.9,1.3-1.4c0.8-1,1.7-2.7,1-4.1c-0.4-0.8-1.2-1.1-2-1.3
		c-0.2,0-0.9,0.3-1.1,0.4c-0.8,0.4-1.6,1.1-2.3,1.6c-2,1.7-4,3.7-5.8,5.6c-2.8,3-5.5,6.1-8.1,9.2l-1.9,2.4h-4.5
		c0.1-0.2,0.2-0.3,0.4-0.5c0.6-0.8,1-1.1,1.5-1.9c2.1-3.5,9.7-11.6,13.1-14.6l0.7-0.7c0.6-0.6,1.2-1.2,1.8-1.8
		c1.4-1.4,2.6-2.4,4.4-3.2l0.1-0.1l0.1,0C217.2,184.5,217.9,184.7,219.7,185.6L219.7,185.6z"/>
	<path class="st1" d="M196.8,255.5c-0.1-1,0.2-1.1,0.7-1.7c1-1.1,8.6-6.9,10.1-6.9c1.6,2.5,0.2,4.5,5.2,6.4c-0.8,1.1-2.6,1-3.8,1.2
		C206.8,254.9,198.2,255.8,196.8,255.5L196.8,255.5z M273,222.8c2.4-0.9,2.3,1.1,1.7,3.1c-0.9,2.9-2.8,4.2-4.7,6.3
		c-1,1.1-1.5,1.9-2.5,3c-1.1,1.3-9.5,9.7-11.3,10.7c-2.3,1.3-2.1-1-1.3-2.6C257.7,237.6,267.6,224.8,273,222.8L273,222.8z
		 M194.9,248.5c-0.1-2.9,3.6-7.9,4.9-9.7c1-1.3,2-2.4,3.3-4c3.3-3.9,7.6-6.6,11.6-9.6c3.5-2.7,5.7-4.8,9.5-4.4
		c-0.2,1.6-0.5,1.7-1.2,2.7c-5.2,6.8-4.4,6.5-12.1,12.7c-1.4,1.2-2.5,2.2-3.8,3.3l-9.8,8C196.4,248.1,196.1,248.4,194.9,248.5
		L194.9,248.5z M172.8,260.1c-0.9-3.3,6-14.7,7.6-17.6c1.6-2.8,3.1-5,4.8-7.7c4-6.5,14.2-20,19-24.9c1-1,2.1-1.9,3.1-3
		c3.4-3.7,7.4-7.5,10.6-11.4c0.5-0.6,0.9-0.9,1.3-1.5c2.9-3.9,1.3-7-1.7-7.5c-3.4-0.6-16.3,14.7-19,18l-11.1,13.9
		c-0.9,1.1-1.7,2.3-2.6,3.5l-5.1,7.4c-4.3,6-13.3,22.1-14.8,29.2c-0.5,2.5-0.4,3.3-2.8,3.5c-2.2,0.1-9.1-0.3-7.4,4.4
		c1.5,4.2,11.8,1.6,14.3,1.2c3.4-0.5,7-0.7,10.3-1.3c1.7-0.3,3.1-0.9,4.9-1.2c4.9-1,10.1-2.1,15.1-2.7c12-1.3,21.3-1.9,33.3-2.2
		c1.7,0,4.4,0.4,4.7-1.3c0.3-1.7-1.3-2.7-2.4-3.4c-6.9-3.7-16.9-0.3-21-1.9c0.7-1.4,4.7-3.8,5.9-4.1l2.1,2.3
		c3.4,0.3,6.2-5.6,8.7-7.5c2-1.5,6.3-6.7,8.9-6.9c0,2.3-4.1,8-1.7,12.8c2.3,4.4,8.9-2.2,10.4-1.8c1.4,0.8,1.7,2.1,3.5,2.8
		c4.6,1.7,8.7-4.6,12.1-5.1c1.2,1,2,3.5,3.9,2.7c1.1-0.5,2.2-2.9,3.3-3.7c1,0.5,1.9,1.5,3,2.2c3.7,2.4,8.3,2.8,12.6,2.4
		c4.6-0.4,11.8-3.9,12.6-7.6c-0.1-2.4-6.3-4.9-8.4-5.6c-1.8-0.6-1.7-0.5-2.8-1.7c-1-2.8,5.9-9.4,7.6-11.2c2.4-2.6,4.5-4.3,7.8-6.2
		c1.2-0.7,1.7-1.4,3.3-1c-0.1,1.7-3,4.3-4.1,5.9c-2,2.8-3.7,3.6-2.1,6.5c4.2,0.3,6.2-3.1,8.1-5.5c1.5-1.8,4.9-6.3,5.1-8.8
		c0.2-4.4-5.1-5.3-8.8-4.2c-3.4,1-8.1,3.5-10.5,6.3c-1.8,2.2-3.8,3.2-8.3,9.1c-6.1,8-8,12.3,1.9,15.1c1.6,0.5,3.6,1.1,4,2.6
		c-1.8,2.2-6.8,2.2-10.2,2.1c-2.6,0-7.4-2.5-8.5-4c-0.2-2.4,4-7.9,5-9c1.7-1.9,9.7-12.5,11.7-15.7l12.5-15
		c13.3-10.5,6.8-14,2.1-11.1c-3.4,2.1-8.3,9.1-11.5,12.5c-0.7,0.7-1,1.2-1.6,1.8l-9.2,11.4c-3.5,5.9-3.7,0.3-8,0.5
		c-5.9,0.2-12.3,6.7-16,11.1c-1.1,1.3-1.8,2.6-2.9,3.8c-1.1,1.3-2.2,2.2-3,4c-0.8,1.8-1.2,3-2.2,4.5c-0.9,1.4-5.6,6-7.3,6
		c-0.4-2.8,5.7-11.1,7.9-13.3c1.8-1.8,3.7-3.3,5.4-5.3c1.1-1.3,4.3-4.9,1.6-7.1c-4.9-1.5-9.7,5.6-13.2,5.6c-1-1.3-2.4-6.9-7.1-1.5
		c-2.5,2.8-3.7,4.2-6.1,7c-1.1,1.3-1.7,2.3-2.9,3.8c-1.6,1.8-5.1,4.1-7.1,5.8c-1.2,1-2.2,2.4-3.9,2.4c0.3-2.1,2.2-4.2,3.1-5.6
		c1.1-1.7,2.3-3.5,3.6-4.8c2.2-2.1,2.1-2.8,3-5.8c0.8-2.4,2.1-3.2,3.3-5.2c3.1-5.2,0.2-8.7-5.1-9.1c-2.8-0.2-4.6,0.5-6.8,1.5
		c-3.2,1.4-8.2,3.3-10.8,5.9c-2.8,2.7-6.1,5.3-8.7,8.3c-2.6,3-5.7,5.8-7.4,9.7c-2.2,4.9-5.9,11-1.4,16c1,1,1.5,0.6,2.3,1.6
		C191.2,256.8,174.9,260.5,172.8,260.1L172.8,260.1z"/>
	<path class="st1" d="M386.9,265c0.1-2,3.4-4.4,4.9-5.2c4.8-2.6,14-9.3,20.1-9.1c-0.4,2.3-2.6,5-3.8,6.5
		C402.5,264.2,389.1,266.6,386.9,265L386.9,265z M305.2,244.5c-2.9-5.2,9.1-19.3,12.5-19.1c2.3,0.2,0.4,3-0.2,4.1
		c-0.9,1.8-0.5,3.8,1.1,4.3c1.7,0.5,2.7-1.5,4.3-1.7C321.9,236.3,309.1,245.2,305.2,244.5L305.2,244.5z M370.7,223.4
		c1.3,4.3-12.4,21.6-17.1,17.4c-2.6-2.3,5.2-9.2,6.5-10.5c2.4-2.3,4.9-3.9,7.6-5.9C368.6,223.7,369.3,223.1,370.7,223.4L370.7,223.4
		z M325.9,243.4c-1.8-6.2,8.5-17.6,12.7-20.9c1.1-0.9,1.9-1.5,3.2-2.3c3.7-2.2,5.2-2.1,2.8,3.4c-0.5,1.3-1.3,2.3-2.1,3.5
		c-3.7,5.5-3.2,5.4-7.4,9.8C333.1,238.8,328.3,244.1,325.9,243.4L325.9,243.4z M432.7,218.3c0.8,2.2-2.4,5.1-3.3,6.3
		c-5,6.4-4.5,5.5-11.1,10.8l-2.6,2.1c-1.7,1-1.5,0.1-1.5,0.1c-1.2-1.4,1.9-6.2,2.4-7C419.3,226.6,428.3,217.5,432.7,218.3
		L432.7,218.3z M377.9,224.7c-1.4-2.2,0.6-4.1-3.5-6.4c-1.2-0.7-2-1-3.6-0.6c-0.5,0.1-1.5,0.5-2,0.6c-3,0.3,0.2-2.7-0.4-4.6
		c-0.4-1.3-1.8-1.8-3.3-1.5c-1.5,0.4-4.1,3.7-5,4.8c-1.5,1.9-2.5,3.9-3.9,6c-0.7,1.1-1.4,1.7-2.2,2.8c-1.2,1.7-6.9,12.8-10.7,13.3
		c-0.2-1.4,0.6-2.3,1.2-3.3c0.4-0.5,0.7-1,1-1.4c0.3-0.5,0.5-1,0.9-1.5c3.9-5.9,3.4-6,3.5-9.9c0-1.5,0.4-2.6,0.5-4
		c0.3-2.9-1.6-4.7-3.7-5.4c-6-2-10.8,3.6-14.4,6.6c-2.8,2.3-5.6,7.3-6.3,6.7c-1.1-1.8,1.8-7.3-2.8-9.1c-3.3-1.3-5.9,0.7-8.2,2.2
		c-5.7,3.6-2.8,1.9-6.7,5.4c-3.9,3.4-8.1,9.9-8.8,15.4c-0.4,3.2,2.2,7,4.3,7.5c7.5,1.9,13.8-6.3,16.4-6.3c1,1.1,1.3,3.3,2.7,4.6
		c2.6,2.5,7.2,0.1,9.6-2c5.7-5,3.2-2.7,6.7,0.6c1,0.9,2.5,1.4,2,3.8c-1.6,6.4-2.9,6.7-1.2,10c1.6,0,1.9,0.1,2.7-1.3
		c1.3-2.2,2.7-5.3,3.9-7.9c0.7-1.5,1.8-4.1,2.8-5.1c1.5-1.6,3.8,0.1,5.7,0.2c9.8,0.8,15.5-11.6,18.4-12.2c0.6,2.7-1.7,7.4,0.9,9.3
		c3,2.2,5.3-2,7.8-2c0.9,1.1,0.8,1.7,1.8,2.5c2.1,1.7,2.7-1,4.6-3c3.4-3.7,7.2-9.5,10.6-10.2c0.1,1.4-1,3-1.7,6.3
		c-1.9,8.9,4.9,7.1,6.7,5.6c1.3-1,2.3-2.9,4.6-2.8c1,1.1,1,1.9,1.8,2.8c0.8,1,1.6,1.2,1.7,2.9c-0.9,0.8-4.9,2.2-6.4,2.9
		c-2.3,1.1-3.8,2-5.9,3.1c-5.8,2.9-12.5,6.1-17.2,10.7c-1.4,1.3-3.4,4.2-1.7,6.7c1.8,2.5,12.2,1.4,15.3,0.6c1.4-0.4,2.4-0.4,3.7-1
		c8.8-3.9,10.9-6.6,17.3-14.8c3.9-5,4-7.5,9-9.8c1.9-0.9,4.6-2.1,6.4-2.6c2.4-0.7,5.3-0.2,6.8-2.2c0.1-2.9-2.6-2.4-4.9-2
		c-1,0.2-2.1,0.4-3,0.6c-1.1,0.3-2.8,0.9-2.7-0.4c0-0.7,3.6-6.1,4.1-6.9l3.7-5.3c0.4-0.6,0.8-0.9,1.2-1.7c0-0.1,2.2-7.7-0.2-10.1
		c-3.2-3.1-9.8-0.1-12.9,1.9c-1.8,1.1-8.3,6.6-9.4,8.1c-0.9,1.2-1.7,1.9-2.7,3.4c-2.5,3.9-1.2,3-5,6.6c-2,1.9-2.2,2.4-3.5,2.1
		c0.7-4.1,6.4-10.7,9.1-13.8c2.8-3.3,0.4-5.6-3.5-4.5c-2.5,0.7-5.5,3.4-7.6,3.5c0.1-1.9,1.2-3.5-0.6-4.6c-1.4-0.8-3.4-0.4-4.4,0.4
		c-2.3,1.8-5.7,7.7-7.4,10.3c-1.6,2.5-6.4,7-8.8,8.4c0.1-2.8,7-11.2,7.5-14.2c0.6-3.5-3.7-3.7-5.8-1.2
		C381.8,220,378.8,224.3,377.9,224.7L377.9,224.7z"/>
	<path class="st0" d="M220,252.2h-1.9C218.6,251.4,219.6,250.5,220,252.2L220,252.2z M245.7,242.2L245.7,242.2L245.7,242.2z
		 M245.7,242.2c0.3-1.4,3.5-5.7,4.7-6.4C250.3,238.3,247.5,241.6,245.7,242.2L245.7,242.2z M279.6,235.4c-0.1,0.7,1.1,2.6,1.5,3
		c3.1,3.7,7.4,2.5,8.7,4.6c-7.9,2.1-10.1,0.7-15-2.1c0-1.4,0.8-2.2,1.9-4.3c0.3-0.5,0.8-1.3,1.2-1.8c0.7-0.9,1-0.8,1.3-1.9h0.8
		L279.6,235.4L279.6,235.4z M348.6,232.1L348.6,232.1L348.6,232.1z M348.6,232.1c0.2-1,1-2.2,1.6-2.7
		C350,230.4,349.2,231.6,348.6,232.1L348.6,232.1z M385.8,227.8C385.8,227.8,385.9,227.9,385.8,227.8L385.8,227.8L385.8,227.8z
		 M407.9,230c-0.2-0.2,1.5-2.3,1.6-2.5c0.8-1.2,0.7-1.3,1.4-1.5c-0.4,0.8-0.5,1.1-1,1.9C409.5,228.7,408.3,230.2,407.9,230
		L407.9,230z M411,225.4C411,225.4,411,225.4,411,225.4L411,225.4C411,225.5,410.9,225.4,411,225.4L411,225.4z M298.5,226.3
		c0,3.7,1.8,3.7,4.1,3.7c-0.7,1.5-1.5,2.3-2.2,4c-0.4,0.9-1.6,3.8-1.6,4.9c-0.8-0.2-1.5-0.8-2.1-1.3c-1.4-1-4.3-2.1-6-2.7
		c-1.1-0.4-1.9-0.7-0.5-3.2c1-1.6,7.2-8.7,8.5-9.8c1.6-1.4,2.5-1.8,4.3-2.9c-0.2,0.9-0.6,1.1-1.1,1.8c-0.5,0.6-0.8,0.9-1.3,1.6
		C299.9,223.5,298.5,224.9,298.5,226.3L298.5,226.3z M377.9,224.7c1-0.5,3.9-4.8,4.8-5.9c2.1-2.5,6.4-2.3,5.8,1.2
		c-0.5,3-7.4,11.4-7.5,14.2c2.4-1.4,7.2-5.9,8.8-8.4c1.7-2.6,5.1-8.5,7.4-10.3c1-0.8,2.9-1.2,4.4-0.4c1.9,1.1,0.7,2.7,0.6,4.6
		c2.1-0.1,5.1-2.8,7.6-3.5c3.9-1.1,6.4,1.2,3.5,4.5c-2.7,3.2-8.4,9.8-9.1,13.8c1.3,0.2,1.5-0.3,3.5-2.1c3.8-3.6,2.6-2.7,5-6.6
		c0.9-1.5,1.8-2.3,2.7-3.4c1.1-1.5,7.7-7,9.4-8.1c3.1-2,9.7-5,12.9-1.9c2.4,2.3,0.2,10,0.2,10.1c-0.4,0.8-0.8,1.1-1.2,1.7l-3.7,5.3
		c-0.5,0.8-4.1,6.2-4.1,6.9c-0.1,1.3,1.6,0.6,2.7,0.4c0.9-0.2,2-0.4,3-0.6c2.2-0.4,4.9-0.9,4.9,2c-1.5,1.9-4.4,1.5-6.8,2.2
		c-1.8,0.5-4.5,1.7-6.4,2.6c-4.9,2.3-5.1,4.8-9,9.8c-6.4,8.2-8.5,10.9-17.3,14.8c-1.3,0.6-2.3,0.6-3.7,1c-3.2,0.9-13.6,1.9-15.3-0.6
		c-1.8-2.5,0.3-5.4,1.7-6.7c4.7-4.6,11.4-7.8,17.2-10.7c2.2-1.1,3.6-2.1,5.9-3.1c1.5-0.7,5.5-2.1,6.4-2.9c-0.1-1.8-0.9-2-1.7-2.9
		c-0.8-1-0.9-1.7-1.8-2.8c-2.3-0.2-3.3,1.7-4.6,2.8c-1.8,1.4-8.6,3.2-6.7-5.6c0.7-3.3,1.8-4.9,1.7-6.3c-3.3,0.7-7.1,6.4-10.6,10.2
		c-1.9,2.1-2.5,4.7-4.6,3c-1-0.8-0.9-1.5-1.8-2.5c-2.5,0-4.8,4.2-7.8,2c-2.6-1.9-0.3-6.5-0.9-9.3c-2.9,0.6-8.6,12.9-18.4,12.2
		c-1.9-0.2-4.2-1.8-5.7-0.2c-1,1-2.1,3.6-2.8,5.1c-1.2,2.5-2.5,5.7-3.9,7.9c-0.9,1.4-0.8,1.4-2.7,1.3c-1.7-3.2-0.4-3.6,1.2-10
		c0.6-2.4-1-2.9-2-3.8c-3.5-3.4-1-5.6-6.7-0.6c-2.4,2.1-6.9,4.4-9.6,2c-1.4-1.3-1.7-3.5-2.7-4.6c-2.6,0.1-8.9,8.2-16.4,6.3
		c-2-0.5-4.7-4.3-4.3-7.5c0.6-5.5,4.9-12,8.8-15.4c3.9-3.4,1-1.7,6.7-5.4c2.4-1.5,4.9-3.5,8.2-2.2c4.5,1.8,1.7,7.3,2.8,9.1
		c0.6,0.7,3.6-3.9,6.4-6.2c3.5-3.6,9-8.7,14.3-7.1c2.2,0.7,4,2.6,3.7,5.4c-0.1,1.4-0.5,2.5-0.5,4c-0.1,3.9,0.4,4-3.5,9.9
		c-0.3,0.5-0.6,1-0.9,1.5c-0.2,0.4-0.6,0.8-1,1.4c-0.6,0.9-1.4,1.8-1.2,3.3c3.9-0.5,9.5-11.6,10.7-13.3c0.8-1.1,1.4-1.6,2.2-2.8
		c1.4-2.1,2.4-4.1,3.9-6c0.9-1.1,3.5-4.5,5-4.8c1.5-0.4,2.9,0.2,3.3,1.5c0.6,1.9-2.6,4.9,0.4,4.6c0.5-0.1,1.5-0.5,2-0.6
		c1.6-0.4,2.4-0.1,3.6,0.6C378.5,220.7,376.4,222.5,377.9,224.7L377.9,224.7z M172.8,260.1c2.1,0.4,18.4-3.3,19.6-4.2
		c-0.8-1-1.4-0.6-2.3-1.6c-4.5-4.9-0.9-11.1,1.4-16c1.8-3.9,4.8-6.7,7.4-9.7c2.6-3,5.9-5.5,8.7-8.3c2.7-2.6,7.7-4.5,10.8-5.9
		c2.2-1,4-1.7,6.8-1.5c5.3,0.4,8.2,3.9,5.1,9.1c-1.1,1.9-2.5,2.8-3.3,5.2c-1,2.9-0.9,3.6-3,5.8c-1.3,1.3-2.5,3.2-3.6,4.8
		c-0.9,1.4-2.8,3.5-3.1,5.6c1.7,0,2.7-1.3,3.9-2.4c2-1.7,5.6-4,7.1-5.8c1.3-1.4,1.9-2.5,2.9-3.8c2.4-2.7,3.6-4.1,6.1-7
		c4.7-5.4,6,0.2,7.1,1.5c3.6-0.1,8.4-7.1,13.2-5.6c2.8,2.2-0.5,5.8-1.6,7.1c-1.7,2-3.6,3.5-5.4,5.3c-2.2,2.2-8.3,10.5-7.9,13.3
		c1.6-0.1,6.4-4.7,7.3-6c1.1-1.5,1.4-2.7,2.2-4.5c0.8-1.7,1.9-2.7,3-4c1.1-1.2,1.7-2.5,2.9-3.8c3.7-4.4,10.1-10.9,16-11.1
		c4.4-0.1,4.6,5.5,8-0.5l9.2-11.4c0.6-0.6,1-1.2,1.6-1.8c3.2-3.3,8.1-10.4,11.5-12.5c4.7-2.8,11.2,0.6-2.1,11.1l-12.5,15
		c-2,3.2-10,13.7-11.7,15.7c-1,1.1-5.2,6.7-5,9c1.1,1.5,5.9,3.9,8.5,4c3.3,0,8.4,0.1,10.2-2.1c-0.4-1.5-2.3-2.1-4-2.6
		c-9.9-2.9-8-7.1-1.9-15.1c4.5-5.9,6.5-6.9,8.3-9.1c2.4-2.9,7.1-5.3,10.5-6.3c3.7-1.1,9-0.2,8.8,4.2c-0.1,2.4-3.6,6.9-5.1,8.8
		c-1.9,2.4-3.9,5.9-8.1,5.5c-1.6-2.9,0.1-3.7,2.1-6.5c1.1-1.5,4-4.1,4.1-5.9c-1.6-0.4-2,0.3-3.3,1c-3.3,1.9-5.4,3.6-7.8,6.2
		c-1.7,1.9-8.6,8.5-7.6,11.2c1,1.3,1,1.1,2.8,1.7c2,0.7,8.2,3.2,8.4,5.6c-0.8,3.7-7.9,7.2-12.6,7.6c-4.3,0.4-9,0-12.6-2.4
		c-1.1-0.7-1.9-1.7-3-2.2c-1.1,0.8-2.1,3.2-3.3,3.7c-1.9,0.8-2.7-1.7-3.9-2.7c-3.4,0.5-7.4,6.9-12.1,5.1c-1.8-0.7-2.1-2-3.5-2.8
		c-1.5-0.3-8.1,6.2-10.4,1.8c-2.5-4.7,1.7-10.5,1.7-12.8c-2.6,0.2-6.9,5.4-8.9,6.9c-2.5,1.9-5.3,7.8-8.7,7.5l-2.1-2.3
		c-1.1,0.3-5.2,2.8-5.9,4.1c4.1,1.6,14.1-1.8,21,1.9c1.1,0.6,2.8,1.6,2.4,3.4c-0.4,1.8-3,1.3-4.7,1.3c-12,0.2-21.3,0.9-33.3,2.2
		c-5.1,0.6-10.2,1.6-15.1,2.7c-1.8,0.4-3.2,0.9-4.9,1.2c-3.3,0.6-6.9,0.8-10.3,1.3c-2.5,0.4-12.8,3-14.3-1.2
		c-1.7-4.7,5.2-4.2,7.4-4.4c2.4-0.2,2.3-1,2.8-3.5c1.5-7.1,10.5-23.2,14.8-29.2l5.1-7.4c0.9-1.2,1.7-2.4,2.6-3.5l11.1-13.9
		c2.7-3.3,15.6-18.6,19-18c3,0.5,4.6,3.6,1.7,7.5c-0.5,0.6-0.9,1-1.3,1.5c-3.2,3.9-7.2,7.7-10.6,11.4c-1,1.1-2.1,2-3.1,3
		c-4.8,4.9-14.9,18.4-19,24.9c-1.7,2.7-3.2,4.9-4.8,7.7C178.7,245.4,171.9,256.7,172.8,260.1L172.8,260.1z M195.4,205.9
		c-0.4,0.8-2.6,3.4-3.3,4c-8.6,11.3-15.3,20.5-22.2,33.2c-0.7,1.6-1.5,2.8-2.3,4.5c-1.5,3.3-3.3,6.4-4.1,10.1
		c-0.8,4.1-0.2,2.3-4,2.9c-2.1,0.3-3.5,0-5.1,1.4c-1.2,1.1-2.2,2.9-1.2,5.1c2.6,5.9,16.1,1.8,21.5,1.3c7.6-0.6,14.7-3.5,22.2-4.2
		c7.9-0.8,16.1-2.1,24.1-2.1l6.3-0.3c3.9,0,10,1,11.2-2.2c0.7-1.9-0.4-3.8-1.8-4.6c-3.2-2-5.9-2.6-10.8-2.6c0.1-1.3,0.7-1.6,1.5-2.3
		c0,0,0.1-0.1,0.1-0.1c0,0,0.1-0.1,0.1-0.1c1.9-1.9,6.6-8.1,8.9-8.3c-1.3,3-1.4,9.6,1.3,11.1c2.5,1.4,5.7,0.2,7.8-1.3
		c0.8-0.5,1.4-0.8,2.1-1.3c8,6,7.5,2.6,15.6-2.1c2.6,4.3,5.4,3.2,7.4-0.9c0.7,0.4,0.7,0.5,1.3,1c6.3,4.9,17.7,4.3,23.9-0.3l2.7-2.2
		c2.3,3.9,4.5,6.5,10.6,4.8c3.2-0.9,8.3-5.5,10.5-5.7c0.8,3.9,4.4,6.1,7.9,4.9c1.6-0.6,3.1-1.3,4.5-2.3c1.4-1,2.4-2.2,3.7-3.1
		c0.8,1.3,2.4,3.8,3.8,4.3c-0.8,3.8-4,10.1-0.7,12.4c3.8,2.7,6.3-4.6,7.5-7.3c0.6-1.3,1-2.4,1.6-3.7l2-3.6c1.2,0,2,0.4,3.2,0.7
		c0.9,0.2,2.3,0.4,3.6,0.2c3.5-0.3,5.5-1.9,8-3.9c3.1-2.4,4.8-5.4,6.5-5.9c0,1.8-0.2,3.4,0.4,4.7c2.4,5.5,8.1,0.9,9.5,0.1
		c3.3,7,6.7,0.4,7.8-0.8l5.6-6.6c0.5-0.6,0.8-1,1.6-1.2c-0.8,3.7-2.5,8.5,1.7,10.6c1.7,0.8,4.4,0.4,5.8-0.4c1.7-1,2.3-2.8,4.3-2.9
		c0.5,2.4,1.6,1.3,1.6,3.7c-4.1,1.4-22.7,11.3-26.9,14.8c-1,0.9-1.9,1.5-2.6,2.6c-1.3,2.1-2.3,5.5-0.3,7.7c0.9,1,2.3,1.3,3.8,1.6
		c7.4,1.5,18.2-1.2,24.3-6.2c4.8-3.9,9-8.7,12.5-14.1c0.7-1.2,1.4-2.2,2.2-3.3c2.4-3.2,6.4-4.1,9.9-5.4c2-0.8,6.5-0.4,7.8-2.6
		c0.8-1.5,0.4-3.5-0.7-4.2c-2.8-1.7-5.3,0-8.5,0c1.8-3,3.6-6.2,5.7-8.9c0.6-0.8,1.6-2,2.1-2.8c0.9-1.5,0.5-2.3,0.8-4.3
		c0.2-2,1-4.1,0.1-6c-0.9-1.9-2.2-3-4.2-3.3l-1.6-0.2c-5.7,0-11.4,4.3-15.7,8.2c-0.6,0.6-1.3,1.4-2.1,1.6c0,0,0-0.2,0-0.1
		c0,0,0.1-4.6-4.3-4.8c-1.8,0-2.8,0.4-4,1c-0.6,0.3-1,0.6-1.6,0.9c-0.1,0-0.7,0.4-0.7,0.4c-1.4,0.6-1.2-0.4-1.6-1.1
		c-0.9-1.7-2.3-2.6-4.3-2.5c-3.3,0.2-5.4,3.5-7.3,6.3l-2,2.7c-0.7,1-1,1.9-1.7,3c-0.9,1.4-0.9,1.4-2.2,2.4c0.6-2.8,4.1-5.6,3.5-8.8
		c-0.5-2.5-2.4-3.4-4.9-3.1c-1.9,0.3-4.2,3-5.4,4.7c-0.6,0.9-0.2,0.8-1.2,1.1c-0.5-2.4-1.3-3.1-3.1-4.2c-2.6-1.5-3-1-5.9-0.7
		c0.2-0.9,1.7-3.8-1.6-5.5c-0.7-0.3-1.4-0.4-2.5-0.3c-1.6,0.2-2.4,1-3.4,2.1c-2,2.3-3.3,3.6-5,6.4l-3.3,4.9
		c-2.3,2.7-2.2,4.3-3.4,5.3c0.5-2.2,1.3-2,0.9-5.3c-0.2-2,0.8-3.8,0.7-5.7c-1.2-9.1-12.5-6.9-18.4-0.7l-4.8,4.7
		c-0.7,0.9-0.5,1.1-1.4,1.7c-0.7-13.2-12-6.3-14.8-4.3c0.9-2,2-2.5,2.5-5.1c1.1-5.9-5.9-7-9.6-6.4c-0.9,0.1-1.2,0.5-2.2,0.6
		c-2.4,0.6-7.8,4.6-8.8,4.9c0.2-0.8,3.6-4.7,4.7-6c2.3-2.6,3.2-4.1,6-6.5c12.4-10.5,4.5-14.5,0.8-13.2c-5.3,1.9-16.3,17.7-23.3,25.3
		c-0.7,0.7-1,1.1-1.5,2c-3.5,5.4-2.1-4.3-12.4,1.4c-1.7,1-2.9,1.8-4.5,2.9c-1.7,1.1-1.8,1.5-2.9,2.5c-0.6,0.5-0.4,0.5-1.3,0.7
		c0-10.6-12.9,1-15,1.2c-0.7-2.7-3.9-4.4-6.6-2.5c-4,2.9-9.6,12-13.1,14.3l-3.2,2.2c0.2-0.9,1-1.8,1.6-2.5c2.7-3.4,3.7-2.8,4.7-7.6
		c0.4-1.8,0.4-1.5,1.4-2.7c1.6-1.8,4.1-6,3.3-9c-4.4-15-29.5,5-35,11.1c-4.9,5.4-14.4,16.8-10.6,25c0.6,1.4,1.2,1.6,1.5,2.9
		l-7.3,1.6c-1.2,0.2-2.4,0.5-3.7,0.7c-1.2,0.2-2.9,0.3-3.7,0.7c0.2-0.8,0.7-1.9,1-2.8c0.4-1,0.8-1.8,1.2-2.7
		c1.9-4.3,4.4-8.3,6.8-12.2c5.3-8.7,8.5-12.9,14.4-20.6c0.3-0.4,0.5-0.5,0.8-0.9l6.2-7.5c0.8-0.9,1.1-1.1,1.9-1.8
		c0.7-0.6,1.2-1.3,1.8-2c1.3-1.5,2.3-2.7,3.8-4c2.4-2.2,9.5-9.6,10.2-12.7c0.6-2.4-1-4.8-2.4-5.4c-1.4-0.7-2-1-4.1-0.8
		c-2.9,1.3-4.2,3.2-6.1,5l-0.7,0.7c-0.5,0.5-0.8,0.8-1.3,1.3C205.4,194.5,196.1,204.7,195.4,205.9L195.4,205.9z"/>
	<path class="st0" d="M196.7,245.8c5.2-11,13.1-15.6,21.3-21.7c0.6-0.5,3.3-2.5,3.9-1.8c0.5,0.5,0.4-0.1-0.1,0.8l-2,2.7
		c-4,5.4-5.5,5.6-9.3,9.1l-6.6,5.8C202.3,242,198.4,245.7,196.7,245.8L196.7,245.8z M194.9,248.5c1.2-0.1,1.5-0.3,2.3-1l9.8-8
		c1.3-1.1,2.4-2.2,3.8-3.3c7.7-6.3,6.9-5.9,12.1-12.7c0.8-1,1-1.1,1.2-2.7c-3.8-0.4-6,1.7-9.5,4.4c-4,3-8.3,5.7-11.6,9.6
		c-1.3,1.6-2.3,2.7-3.3,4C198.4,240.6,194.7,245.6,194.9,248.5L194.9,248.5z"/>
	<path class="st0" d="M327,241.9c0-3.5,1.9-5.9,3.6-8.5l0.8-1c3.3-3.6,3.9-6,9.6-10c0.9-0.6,2-1.5,3.2-1.6c-0.5,1.1-0.9,2.1-1.5,3.2
		l-3.9,5.7c-2.4,3.8-5.7,7.2-9,10.1C329,240.6,328.1,241.5,327,241.9L327,241.9z M325.9,243.4c2.4,0.7,7.3-4.6,9.2-6.6
		c4.2-4.4,3.7-4.3,7.4-9.8c0.8-1.2,1.6-2.2,2.1-3.5c2.4-5.5,0.9-5.6-2.8-3.4c-1.2,0.7-2.1,1.4-3.2,2.3
		C334.4,225.8,324.1,237.2,325.9,243.4L325.9,243.4z"/>
	<path class="st0" d="M256.9,243.4c0.1-3.8,16.6-22.7,16.5-18.2c0,0.6-0.8,1.9-1.1,2.4c-0.4,0.5-3.4,3.5-5.4,6.2l-0.8,1
		c-0.8,1-1.4,1.2-2.2,2.1l-2.3,2.3C260.5,240.4,258.3,242.6,256.9,243.4L256.9,243.4z M273,222.8c-5.4,1.9-15.3,14.8-18,20.5
		c-0.8,1.6-1.1,3.9,1.3,2.6c1.7-0.9,10.2-9.3,11.3-10.7c0.9-1.2,1.4-1.9,2.5-3c1.9-2.1,3.8-3.5,4.7-6.3
		C275.3,223.9,275.4,222,273,222.8L273,222.8z"/>
	<path class="st0" d="M315.8,230.9c0,2.1,0.7,4.1,2.7,4.3c-0.3,1.1-0.2,0.7-1,1.4l-7.7,5.1c-1.4,0.8-2,1-3.7,1.4
		c0-2.6,0.5-3.5,1.4-5.2c1.6-3,6.6-10,9.3-10.7C316.7,229,315.8,229.3,315.8,230.9L315.8,230.9z M305.2,244.5
		c3.9,0.7,16.7-8.2,17.7-12.4c-1.6,0.2-2.6,2.2-4.3,1.7c-1.6-0.5-1.9-2.5-1.1-4.3c0.5-1.1,2.4-4,0.2-4.1
		C314.3,225.1,302.3,239.3,305.2,244.5L305.2,244.5z"/>
	<path class="st0" d="M369.1,225.4c-0.6,2.8-6.5,10.4-9.3,12.4c-1.7,1.2-2.8,1.9-5.4,1.9c0.3-1.6,2-3.2,2.9-4.3
		c2.2-2.5,4.9-5.1,7.4-7C365.6,227.7,368.3,225.7,369.1,225.4L369.1,225.4z M369.1,225.4L369.1,225.4L369.1,225.4z M370.7,223.4
		c-1.4-0.3-2.1,0.4-3,1.1c-2.7,2-5.1,3.6-7.6,5.9c-1.3,1.2-9.1,8.1-6.5,10.5C358.3,244.9,372,227.6,370.7,223.4L370.7,223.4z"/>
	<path class="st0" d="M388.5,264.1c1-1.6,5.7-4.6,7-5.3c2.7-1.3,1.9-1.5,5.2-3c2.8-1.3,5.8-3.3,9.1-3.6c-0.3,1.3-0.7,1.6-1.5,2.6
		c-1.6,2.2-4.3,4.7-6.6,6.1C398.7,262.9,392.2,264.1,388.5,264.1L388.5,264.1z M386.9,265c2.3,1.6,15.6-0.9,21.1-7.9
		c1.2-1.5,3.4-4.1,3.8-6.5c-6.1-0.2-15.2,6.5-20.1,9.1C390.3,260.6,386.9,263,386.9,265L386.9,265z"/>
	<path class="st0" d="M415.3,236.1c2.7-6.2,9.9-14.8,16.1-16.5c-0.2,0.5-0.1,0.3-0.3,0.6c-3.4,5.7-9.8,12.1-15.2,15.4
		C415.6,235.9,415.9,235.8,415.3,236.1L415.3,236.1z M432.7,218.3c-4.3-0.8-13.4,8.4-16,12.3c-0.5,0.8-3.6,5.6-2.4,7
		c0,0-0.3,0.9,1.5-0.1l2.6-2.1c6.5-5.3,6-4.4,11.1-10.8C430.3,223.4,433.5,220.5,432.7,218.3L432.7,218.3z"/>
	<path class="st0" d="M400.3,202.5c-1.3,2.9-4.1,5.6-5.6,7.3c-1,1.1-1.8,2.8-3.8,2.6c-1.8-0.2-2.9-1.8-2.2-4
		c0.8-2.5,5.7-10.6,9.1-9.7C399.4,199.2,401.3,200.5,400.3,202.5L400.3,202.5z M393.6,198.9l-0.4,0.5c-0.8,0.8-2,2-2.6,3
		c-0.8,1.1-1.4,2.7-2.2,3.5c-0.5,2.5-1.3,1.4-1,4.9c1.1,3.7,4.6,4.1,6.9,1.8l1.3-1.6c0.6-0.7,0.9-1,1.6-1.6c0.9-0.8,2-2.4,2.6-3.5
		l0.6-0.6c0.6-1.1,1.5-1.8,1.6-3.4c0.4-3.4-3.3-4.9-4.9-4.9C395.3,197.1,394.8,198,393.6,198.9L393.6,198.9z"/>
	<path class="st0" d="M200.3,253.7c0.4-1.2,5.8-4.8,6.8-4.9c0.2,2.5,1.5,2.4,1.6,4.3C206,253.1,203.3,253.7,200.3,253.7L200.3,253.7
		z M196.8,255.5c1.4,0.4,10-0.6,12.3-1c1.2-0.2,2.9-0.1,3.8-1.2c-5-1.9-3.6-3.9-5.2-6.4c-1.5,0-9.1,5.8-10.1,6.9
		C197,254.3,196.7,254.4,196.8,255.5L196.8,255.5z"/>
	<polygon class="st1" points="302.6,208 302.4,208 302.6,208.4 302.6,208 	"/>
	<path class="st4" d="M299.9,107.2c0,1.2-0.2,0.4-0.4,0.7c-0.2-0.2-0.4,0.6-0.4-0.9c0-1.5,0-0.2,0.4-0.8
		C299.7,106.5,299.9,105.5,299.9,107.2L299.9,107.2z M308.7,125.1c-7.7,0-15.3,0-23,0c2.1-0.3,4.4-0.4,6.7-0.5c0,0-0.1-0.1-0.1-0.1
		c0.4-0.3,1.1-0.2,1.3-2.5c0.1-1.2,0.3-2.5,0.1-3.7c-0.7-0.5-0.7-0.4-1.5-0.7c-1.3,1.3-2,1.1-3.4,0c-0.9-0.7-0.5,0-0.6-1.5
		c-2.6-0.3-0.3,0.7-2.5,1l-0.7-1.9c-2.7-1-2.2,0.1-4.3,0.1l-0.5-2.3l2.2-0.8l0.5-3.4c5.1-0.8,3.8-2.1,5.8-1.9c0.8,1.4,0.1,1.6,2,1.7
		c0.3,2.4,1.5,2.3,3.2,1.6c-0.4-0.8-1.3-1.5-2.2-1.9l-0.8-0.4c0.5-1.8,0.5-0.2,1.4-1.7c0.4,0,0.7,0.1,1.1-0.1c1-0.4,0.4-0.3,0.7-0.7
		c-0.1-1.7-0.1-0.8-0.2-0.9c-0.1,0-0.2-0.2-0.3-0.7c-1.4,0-1.3-0.2-2.3-0.3c-3,3.2-1.8,0.8-4.4,1.2c-0.9,0.1-2,0.5-2.5,0.9
		c-0.8-0.2-0.3,0-0.8-0.4c-1.7,2.7-1.6-0.2-1.8-0.8c0,0-0.6-0.9-0.7-1c-3.5,0.1-1.4,0.1-2.9-1.7c-0.4-0.4-0.1,0-0.4-0.6
		c0.4-1.2,0.6-1.3,1.5-1.9c-3.2-2.1-0.7-2-2.5-3.4c-1.2,0.6-0.8,1.8-2,2.3c-1.6,0.6-1.5-0.2-2.8,1.4l-1.2,0l-1.5-2.9
		c-0.7-1.5-1.3-1.1-0.7-3.2c0.6-2.1-0.8-2,1.5-4.5c2.3-2.5,4.9,0.5,4.3-3.5c-0.4-2.9-2-0.1-2.3-4c0.1-0.1,0.1-0.2,0.2-0.2
		c0,0,1.9-0.7,2.9-2.6c2.1,0.1,1.6,0.4,3.1-0.7c0.8,0,1.8,0,2.5,0c1.5-0.2,0.4-0.5,1.8-0.6c0.4-0.3,0.4-0.6,0.5-0.7l-0.5-0.5
		c-0.1-0.3-0.2,0-0.2-0.6c0-0.1,0.1-0.4,0.1-0.5l-1.8-0.1c-1.7,2.4-2.3,2.2-3.3,0.5l-2.1-0.1c0-0.6,0.2-1.5,0.2-1.8c0-1.9-1-1,0.8-3
		c0.9-1,0.6-0.3,1.5-1.1c0.1-0.8,0.1-0.9,0.3-1.5c0.4-1.2,0.4,0.4,0.4-1.6c-1.5,0-0.9,0.2-1.6,1.2c-0.4,0.5-0.1,0.2-0.6,0.6
		c-1.2,0.9-1.5,0.9-3.2,0.8c-1.4-0.1-1.8,0.5-2.4,1.4c-0.9,1.2-1.4,0.9-3.3,0.8l-1.2-1.6c-0.1-0.3-0.1-0.7-0.2-1.1l-2-0.2
		c0.1-1.3,0.1-1.1,0.8-1.6l-0.3-3.5c0.6-0.4,0.8-0.6,1.3-1.2c-1.4-4.4,1.9-2.7,3.4-3.2l0.1-2.7c2.9-1.4,7.3-2.4,10.8-2.2l0.4-1.2
		c1.1,0,1.3,0.2,2.2-0.2c-0.2-2-0.1-0.7-3.6-1c-2-0.2-2.6,0.7-4.4,0.6l-0.5-1.7c-2,0-0.8,0.8-3.2,0.7c-0.1,0-1.7-1.3-1.6-2.8
		c0.8-0.7,0.9-0.2,1.5-1.4c0.5-0.9,0.3-1.2,1.4-1.5c0.2-2.9,0.6-0.2,3-2.9c0.7-0.8,5.7,1.3,6.8-2.3c-0.3-0.3-0.4-0.3-0.7-0.7
		c-0.4-0.4-0.4-0.2-0.6-0.9c1.5-3.2,4.4-3,5.6-3.3c3.8-1.2,4.1-0.1,7.2,0.2l1.1-1.1c2.9-0.3,2.9,1.1,5.5-0.2
		c0.6-0.3,1.7-0.5,2.7-0.5c1.4,0,1.3,0.2,1.8,1.2c2.9,0.4,4.1,0.5,6,1.7c0.8,0.5,0.8,0.9,0.8,2.1c2.8,0.3,2.3,1.2,2.3,2.5
		c0,0.4,0.4-0.1,0,0.7c-0.5,1-2.6,0.2-5.3,0.7c2,2,4.8-0.2,6.8,0.6c2.1,2,2,0.2,3.2,1.2c1.5,1.3,1.3,2.3,1.3,4.2
		c-0.2,0-1.2,0.1-1.2,0.1c-1.4,0.6-0.5,0.1-0.9,1c2.3,0.2,4.3-0.5,6.2,0.8c0.1,0,0.1,0.1,0.2,0.1c0.1,0,0.1,0.1,0.2,0.1
		c2,1.6,1.6-0.2,2.3,1.4c0.1,0.2,0.5,4.2,0.5,4.5c-2.1,0.2-2.9-0.5-4.3-0.1c-2.2,0.6-1.3,1.8-3.4,1.7c-0.6,0.9-0.4,1.2-1.7,1.4
		c-0.1-0.2-1.8-3.4-3.2-1.9c0,0-1,0.3-0.1,1.6c1.2,1.6,1.9,0.8,3.2,0.9c1.4,0.1,0.8,0.3,1.4,0.9c1.9,1.8,1.3-1.1,1.9,3.2
		c1.2,0.7,1-0.6,2.9-0.5c1.3,0.1,2.4,0.6,3.4,0.9l-0.7,1.4c3.1,0.7,2.3-0.1,4.1,1.9l0.5,0.5v0.7c-1,2,0.6,3.4-2.3,4
		c-0.7,0.2-2,0.6-2.4,0.6c-1.9-0.2-2.2-1.5-4.8-1.2l0.1,1.4c0.9,0.7,0.4,0.7,1,1.5c0.6,0.8,1,0.4,1.6,1.3c1.4,1.8,1.5,0.5,1.8,3.9
		c-0.9,0.5-0.7,0.2-1.5,0.9l0.2,3.4c-3.1,1.6-4.2-0.9-7.2,0.2c-2.6,0.9-2.9,1.8-4.9,0.8c-0.9-0.5-0.8-0.3-1.9-0.3
		c-0.4-0.4-0.3-0.5-1.1-0.6l-1.4,0c0.2,1.4-0.2,0.4,0.6,1.3l1.1,1.8l-1.5,0l-0.2,1.4c4,0.2,2.9,0.3,3.7,1.4c0.8,1.1,0.8,0.4,0.8,2.5
		c-1.1,1-1,0.5-1.7,2.1c-0.7-0.1-0.6-0.3-1.2,0.1c-0.1,0.5-0.1,0.7-0.4,1.2c-0.9,1.7-0.2-0.8-3.1,3c-7.2,0.1-2.2-0.4-5.7-0.9
		c-0.3,0.6-0.5,1-0.7,1.8c1.1,0.4,0.5-0.2,1.2,0.1c0.8,0.4,0.1,0.1,0.9,1.5c1.4,0.3,2.2-0.2,3.8,0.3c2.2,0.8-0.8,0.9,4.2,1
		c1.6,2.1,2.7,3.6,1.6,6.2c-0.6,1.3-1,1.3-1.3,1.7c-1.1,1.6-0.1,2.9-1.9,4c-0.9,0.5-4.2,1-5-0.9c-0.6-1.5-0.6-1.5-0.5-3.1l-1.8,0.2
		c0.4,2.8,1.1-0.3,1.1,2.1c-0.7,0.4-0.9,0.2-1.9,0.3c-0.6,0.8-0.9,1.1-1,2.2l1.3,0.5c-0.3,1.9-2.4,0.7-2.3,3.2c0,1,1,3.7,1.2,4.7
		c0.3,0,1,0,1.2,0c1.3,0.2,0.3,0,0.7,0.3c0,0-0.1,0.1-0.1,0.1C303.3,124.7,306,124.9,308.7,125.1L308.7,125.1z M278.2,87.6l0.8,0.1
		l-0.1-1.2l0.3,0.5c0.5,1.1,0.1-0.3,0.1,0.7C278,88.5,278.4,87.8,278.2,87.6L278.2,87.6z M298.4,79.6c-1,0.4-0.6,0.7-0.7-0.7
		c0.4-0.4,0.1,0,0.9-0.2L298.4,79.6L298.4,79.6z M297.3,52.5c-0.7,0.3,0,0.4-1.1,0.1l0.2-1.7l0.7-0.2L297.3,52.5L297.3,52.5z
		 M294.5,54.1l0.6,0.1l-0.4,0.7L294.5,54.1L294.5,54.1z M289,76c-0.4,0.7-0.6,0.9-1.2,1.3l0.1,1.1l-0.5-0.5c0.3-1,0.1-0.4,0.7-1
		c0.1-0.1,0.4-0.4,0.4-0.4C288.9,75.9,288.3,76.3,289,76L289,76z M292.9,66.2c-1.1-0.9-1.1-0.9-1.1-0.9c-0.3-0.4-0.8,0.7,0-2l2.6,1
		C294.6,65.7,294.1,66,292.9,66.2L292.9,66.2z M299.8,104.3c-0.9-0.6-0.6-0.7,0.2-1.3C300.1,103.9,300.4,103.4,299.8,104.3
		L299.8,104.3z M289.2,100.8c0.8,0,1.4,0.2,1.8,1.3c-0.6,0.5-1.3,0.6-2.4,0.5L289.2,100.8L289.2,100.8z M294.1,96.4
		c-1.1,0.7-0.9,0.1-1.1,0C292.7,95.5,293.5,94.8,294.1,96.4L294.1,96.4z M298.4,93.1c-0.8-0.5-0.2-0.5,0-0.8c0,0.1,0.1,0.2,0.2,0.2
		C299.1,94.2,298.8,92.4,298.4,93.1L298.4,93.1z M293.9,89.5c-1.1-0.5-0.3-0.4,0-0.9c0,0.1,0.2,0.1,0.2,0.2v0.4v0c0,0,0,0,0,0
		C294.1,89.2,294,89.4,293.9,89.5L293.9,89.5z M299.6,81.3c1.5-1,2-5.2,3.2-1.7l2.1,0.1c-0.3,2.4-0.9,0.1-3.4,1.8
		c0.3,2.5-0.4,1-0.2,2.5l4.3-0.1c0.4,0.6,0.3,0.4,0.5,1.1c-1.2,0.2-1.8,0.3-2.5,0.2c-0.7-0.1-1.8-0.4-2.2,0.3c-1.5,2.3,2,2,2,2.1
		c0.8,0.2,0.5,0.5,0.6,0.9c-1.3,0.9-1.9,0-3.6,0.4c-0.8,1.3-0.2,1.8-1.9,1.7c-1.2-1.6-0.6-4.1,0.6-6.1l1.7-0.3
		c0-1.5,0.1-0.6-0.4-1.4C300.1,82.5,299.9,82,299.6,81.3L299.6,81.3z M291.7,76.4l0.7,0c0.6,0.9,0.6,1.4,0.6,2.9
		c-0.9-0.3-0.6,0.1-1.6-0.5C291.1,77.7,291.1,77.3,291.7,76.4L291.7,76.4z M294.8,73.2c0.5,1,0.3,0.7-0.1,1.8
		C294,74,294,74,294.8,73.2L294.8,73.2z M307.5,74.4c-1.2,1.1-0.6-0.3-1,1l-0.7-0.3c-0.1,0-0.1-0.1-0.2-0.1l-1.4-0.4
		c-0.4-0.7-0.6-0.8-0.7-1.6c1.7-0.3,1.1-0.3,2.4-0.9C307.3,74.9,306.8,72.5,307.5,74.4L307.5,74.4z M293.3,70.1l0.8-0.1
		c0-0.1,0.1,0.1,0.2,0.1C293.9,70.4,293.9,70.6,293.3,70.1L293.3,70.1z M296.6,59.9c1.9,0.4,0.8,2.3-0.2,2.8L296.6,59.9L296.6,59.9z
		 M300,60.6c0.2-0.6,0.2-0.8,0.6-1.4l2.3-2.5l1.3,0.2c0.4,1.6-0.4,0.7,0.3,2.1l-1,0.5c0.7,1.1,0.6-0.1,0.9,1.6
		C303,61.2,301.1,61.2,300,60.6L300,60.6z M300.7,56.2c0,1.1,0.3,0.4-0.4,1.1C299.1,56.6,299.7,56.4,300.7,56.2L300.7,56.2z
		 M291,52.4c0-0.8,0.1-0.9,0.5-1.4c0.8,0.7,1.1,1.6,0.3,2.6C291.1,53.4,291,53.3,291,52.4L291,52.4z M315.3,49c-1.1-0.1-1,0-1-1.1
		C315.3,47.9,315.1,47.7,315.3,49L315.3,49z"/>
	<path class="st0" d="M296.6,20.5c-11.2,0-21.3,5.9-28.6,15.5c-7.4,9.7-12,23.1-12,37.9c0,14.8,4.6,28.3,12,37.9
		c7.3,9.6,17.5,15.5,28.6,15.5c11.2,0,21.3-5.9,28.6-15.5c7.4-9.7,12-23.1,12-37.9c0-14.8-4.6-28.3-12-37.9
		C317.9,26.5,307.7,20.5,296.6,20.5L296.6,20.5z M265.2,33.5c8-10.5,19.1-17,31.4-17c12.3,0,23.3,6.5,31.4,17
		c7.9,10.4,12.9,24.7,12.9,40.5c0,3.5-0.2,6.9-0.7,10.3c9-4,26-2,23.2,21.2c0.9-0.3,1.1-0.7,1.7-1.4l4.8-4.7
		c1.9-2.1,4.2-4.3,6.6-5.7c1.4-0.8,2.5-1.3,4.3-1.9c7-2.4,10.2,0.3,14.3,1.3c0,1.9-0.3,2.4-0.3,4c0.6,0.2,1.2,0.4,1.7,0.5
		c3.6,0.9,6.3,3.3,8.8,6.1c3.7,4.2,4.3,10.1,4.3,15.9c0,5.1-5.4,7.3-8.1,3.3l-1.6-2.4c-6.8-7.5-23.4-0.3-30.7,1.3
		c-6.5,1.4-13.1,2.2-19.7,3.1c-5.3,0-14.2,0.3-18.5-1.6c-3.5-1.6-3-6.9,1-7.8c1.7-0.4,12.1,0.3,13.7-6.1c-4.8-2.4-6.5-2.6-10.6-6.3
		c-1.9,4.3-4.3,8.3-6.9,11.8c-8,10.5-19.1,17-31.4,17c-12.3,0-23.3-6.5-31.4-17c-2.7-3.5-5-7.5-6.9-11.8c-4.1,3.7-5.9,4-10.6,6.4
		c1.5,6.5,12,5.7,13.7,6.1c4,0.9,4.6,6.2,1,7.8c-4.3,2-13.2,1.6-18.5,1.6c-6.6-0.9-13.1-1.7-19.7-3.1c-7.3-1.6-23.9-8.8-30.7-1.3
		l-1.6,2.4c-2.7,4-8.1,1.8-8.1-3.3c0-5.8,0.6-11.8,4.3-15.9c2.5-2.8,5.2-5.2,8.8-6.1c0.5-0.1,1.1-0.4,1.7-0.5c0-1.5-0.3-2.1-0.3-4
		c4.2-1.1,7.3-3.7,14.3-1.3c1.8,0.6,2.8,1.1,4.3,1.9c2.5,1.4,4.7,3.7,6.6,5.7l4.8,4.7c0.7,0.7,0.8,1.2,1.7,1.4
		c-2.8-23.2,14.2-25.2,23.2-21.2c-0.5-3.3-0.7-6.8-0.7-10.3C252.4,58.2,257.3,43.9,265.2,33.5L265.2,33.5z M243.1,87
		c-9.8,1.8-13.4,15.9-4.9,25c1.8,2,3.8,3.7,6.2,5l3.7,1.8c-7.9,1-16.4-5.2-21.8-10.9c-0.5-0.5-0.7-0.7-1.1-1.2
		c-0.7-0.6-1.4-1.4-2.1-2.2c-1.8-1.8-5.1-5.3-7-6.5c-3.1-2.1-9.1-4.9-13.4-2.3c0.4,2.5,0.8,3.3,1.3,4.9c-1.4,0.4-2.4,0.2-3.8,0.2
		c-7.6,0.4-14.2,10.2-12,19.7c0.4-0.5,0.7-1,1-1.5c0.5-0.8,0.7-0.9,1.3-1.6c0.8-0.9,2.1-1.9,3.2-2.5c2.9-1.4,5.2-2.1,9.2-2.1
		c6.2,0.1,13.2,1.7,18.6,3.6c5.7,1.9,12.2,3,18.3,3.7c4.8,0.6,16.4,0.4,20.5-0.9c-6.7-0.7-9.7-0.4-14.8-5.8
		c-0.7-0.8-0.2-0.3-0.7-1.1c-0.6-1-0.4-0.1-1.2-2.3c-3-7.7,1.6-14,5.7-12.1c1.9,0.9,1.7,2.6,1.8,5c2.8-1,4.4-2.6,4.5-6.4
		C255.7,89.4,248.7,86,243.1,87L243.1,87z M337.6,96.6c0.1,3.8,1.7,5.4,4.5,6.4c0.1-2.4,0-4.1,1.8-5c4.1-1.9,8.7,4.4,5.7,12.1
		c-0.8,2.1-0.7,1.3-1.2,2.3c-0.5,0.8,0,0.3-0.7,1.1c-5.1,5.5-8.1,5.1-14.8,5.8c4.1,1.3,15.7,1.5,20.5,0.9c6.1-0.7,12.6-1.8,18.3-3.7
		c5.4-1.8,12.3-3.5,18.6-3.6c4,0,6.2,0.7,9.2,2.1c1.2,0.5,2.4,1.6,3.2,2.5c0.6,0.7,0.8,0.8,1.3,1.6c0.3,0.5,0.6,1.1,1,1.5
		c2.2-9.5-4.3-19.4-12-19.7c-1.4-0.1-2.4,0.1-3.8-0.2c0.5-1.6,0.9-2.4,1.3-4.9c-4.4-2.6-10.3,0.2-13.4,2.3c-1.9,1.2-5.2,4.8-7,6.5
		c-0.8,0.8-1.5,1.6-2.1,2.2c-0.5,0.5-0.7,0.7-1.1,1.2c-5.4,5.6-13.9,11.8-21.8,10.9l3.7-1.8c2.4-1.2,4.4-3,6.2-5
		c8.5-9.1,5-23.2-4.9-25C344.5,86,337.4,89.4,337.6,96.6L337.6,96.6z"/>
	<path class="st2" d="M401.7,206.8c-0.8,1.3-1.8,2.8-2.8,3.7c-0.5,0.5-0.9,0.9-1.4,1.5l-1.3,1.6l0,0c-3.1,3.1-7.6,2.1-8.9-2.4l0-0.1
		l0-0.1c-0.1-1.3-0.2-2.6,0.4-3.7c1-1.9,1.1-2.2,2.2-4.2c0.3-0.5,0.6-1,0.9-1.5c0.8-1.1,1.8-2.2,2.8-3.1l0.5-0.6l0.1-0.1
		c0.5-0.4,0.9-0.8,1.4-1.1c0.8-0.6,1.7-0.9,2.7-1c1.4,0,3,0.6,4.1,1.5c1.5,1.2,2.3,2.9,2.1,4.9c-0.1,1.1-0.5,2-1.1,2.9
		c-0.2,0.4-0.5,0.7-0.7,1.1l-0.1,0.1L401.7,206.8L401.7,206.8z M400.3,201.9c0.1-0.2,0.2-0.5,0.1-0.7c-0.2-0.6-1.1-1-1.7-1.1
		c-1.4-0.4-3.7,2.4-4.5,3.4c-0.7,1-1.4,2-2,3.1c-0.4,0.7-0.8,1.5-1.1,2.3c-0.4,1.2-0.1,2,1.1,2.2c1.3,0.1,2-1.2,2.8-2.2
		C396.7,206.7,399.1,204.6,400.3,201.9L400.3,201.9z"/>
	<path class="st0" d="M401.4,202.5c-1.3,2.9-4.1,5.6-5.6,7.3c-1,1.1-1.8,2.8-3.8,2.6c-1.8-0.2-2.9-1.8-2.2-4
		c0.8-2.5,5.7-10.6,9.1-9.7C400.5,199.2,402.3,200.5,401.4,202.5L401.4,202.5z M394.7,198.9l-0.4,0.5c-0.8,0.8-2,2-2.6,3
		c-1.6,2.4-3.5,5.3-3.2,8.4c1.1,3.7,4.6,4.1,6.9,1.8c2-2.3,7.4-7.7,7.7-10.7c0.4-3.4-3.3-4.9-4.9-4.9
		C396.3,197.1,395.8,198,394.7,198.9L394.7,198.9z"/>
	<path class="st1" d="M401.4,202.5c0.9-2.1-0.9-3.4-2.4-3.8c-3.4-0.9-8.3,7.1-9.1,9.7c-0.7,2.2,0.4,3.8,2.2,4c2,0.2,2.8-1.5,3.8-2.6
		C397.2,208.1,400.1,205.4,401.4,202.5L401.4,202.5z"/>
</g>
<rect x="34.4" y="6.9" class="st5" width="31.5" height="31.5"/>
<rect x="34.4" y="50.4" class="st6" width="31.5" height="31.5"/>
<rect x="34.4" y="94" class="st7" width="31.5" height="31.5"/>
<rect x="80.7" y="12" class="st8" width="108.5" height="28.4"/>
<text transform="matrix(1 0 0 1 80.657 29.04)" class="st5 st9 st10"># b2b3b4</text>
<rect x="80.7" y="56.2" class="st8" width="108.5" height="28.4"/>
<text transform="matrix(1 0 0 1 80.657 73.2642)" class="st6 st9 st10"># 4a5f94</text>
<rect x="80.7" y="100.4" class="st8" width="108.5" height="28.4"/>
<text transform="matrix(1 0 0 1 80.657 117.4884)"><tspan x="0" y="0" class="st7 st9 st10">#</tspan><tspan x="11.9" y="0" class="st9 st10"> </tspan><tspan x="17" y="0" class="st7 st9 st10">ecb244</tspan></text>
<rect x="117.8" y="20.4" class="st8" width="63.4" height="3.6"/>
</svg>
