<?xml version="1.0" encoding="utf-8"?>
<!-- Generator: Adobe Illustrator 19.2.1, SVG Export Plug-In . SVG Version: 6.00 Build 0)  -->
<svg version="1.1" id="tree_x5F_logo" xmlns="http://www.w3.org/2000/svg" xmlns:xlink="http://www.w3.org/1999/xlink" x="0px"
	 y="0px" viewBox="0 0 110.3 51" style="enable-background:new 0 0 110.3 51;" xml:space="preserve">
<style type="text/css">
	.st0{fill-rule:evenodd;clip-rule:evenodd;fill:#B1B2B3;}
	.st1{fill-rule:evenodd;clip-rule:evenodd;fill:#E4AF4D;stroke:#F3F3F2;stroke-miterlimit:10;}
	.st2{fill-rule:evenodd;clip-rule:evenodd;fill:#4C5F8E;stroke:#F3F3F2;stroke-miterlimit:10;}
</style>
<path class="st0" d="M55,1.8c-11.2,0-20.2,10.6-20.2,23.7s9,23.7,20.2,23.7c11.2,0,20.2-10.6,20.2-23.7S66.2,1.8,55,1.8L55,1.8z"/>
<path class="st0" d="M10.9,36.9C10.2,37.1,9.7,37,9,37.1c-3.6,0.2-6.8,4.4-5.7,8.4c0.2-0.2,0.3-0.4,0.5-0.7c0.2-0.3,0.3-0.4,0.6-0.7
	c0.4-0.4,1-0.8,1.5-1.1c1.4-0.6,2.5-0.9,4.4-0.9c3,0,6.3,0.7,8.8,1.5c2.7,0.8,5.8,1.3,8.7,1.6c2.3,0.2,7.8,0.2,9.8-0.4
	c-3.2-0.3-4.6-0.2-7-2.5c-0.3-0.3-0.1-0.1-0.3-0.5c-0.3-0.4-0.2,0-0.6-1c-1.4-3.3,0.8-6,2.7-5.2c0.9,0.4,0.8,1.1,0.9,2.1
	c1.3-0.4,2.1-1.1,2.2-2.7c0.1-3-2.9-4.6-5.9-4.1c-4.7,0.8-6.4,6.8-2.3,10.7c0.9,0.8,1.8,1.6,2.9,2.1l1.8,0.8
	c-3.8,0.4-7.8-2.2-10.4-4.6c-0.2-0.2-0.3-0.3-0.5-0.5c-0.3-0.3-0.7-0.6-1-0.9c-0.8-0.8-2.4-2.3-3.3-2.8c-1.5-0.9-4.3-2.1-6.4-1
	C10.4,35.9,10.6,36.3,10.9,36.9L10.9,36.9z"/>
<path class="st0" d="M99.2,36.9c0.7,0.2,1.1,0.1,1.8,0.1c3.6,0.2,6.8,4.4,5.7,8.4c-0.2-0.2-0.3-0.4-0.5-0.7
	c-0.2-0.3-0.3-0.4-0.6-0.7c-0.4-0.4-1-0.8-1.5-1.1c-1.4-0.6-2.5-0.9-4.4-0.9c-3,0-6.3,0.7-8.8,1.5c-2.7,0.8-5.8,1.3-8.7,1.6
	c-2.3,0.2-7.8,0.2-9.8-0.4c3.2-0.3,4.6-0.2,7-2.5c0.3-0.3,0.1-0.1,0.3-0.5c0.3-0.4,0.2,0,0.6-1c1.4-3.3-0.8-6-2.7-5.2
	c-0.9,0.4-0.8,1.1-0.9,2.1c-1.3-0.4-2.1-1.1-2.2-2.7c-0.1-3,2.9-4.6,5.9-4.1c4.7,0.8,6.4,6.8,2.3,10.7c-0.9,0.8-1.8,1.6-2.9,2.1
	l-1.8,0.8c3.8,0.4,7.8-2.2,10.4-4.6c0.2-0.2,0.3-0.3,0.5-0.5c0.3-0.3,0.7-0.6,1-0.9c0.8-0.8,2.4-2.3,3.3-2.8c1.5-0.9,4.3-2.1,6.4-1
	C99.6,35.9,99.4,36.3,99.2,36.9L99.2,36.9z"/>
<path class="st1" d="M56.6,39.7c0,0.5-0.1,0.2-0.2,0.3c-0.1-0.1-0.2,0.2-0.2-0.4c0-0.6,0-0.1,0.2-0.3C56.5,39.4,56.6,39,56.6,39.7
	L56.6,39.7z M60.8,47.4c-3.6,0-7.3,0-10.9,0c1-0.1,2.1-0.2,3.2-0.2c0,0,0,0,0,0c0.2-0.1,0.5-0.1,0.6-1.1c0.1-0.5,0.1-1.1,0.1-1.6
	c-0.3-0.2-0.3-0.2-0.7-0.3c-0.6,0.6-1,0.5-1.6,0c-0.4-0.3-0.3,0-0.3-0.7c-1.2-0.1-0.1,0.3-1.2,0.4l-0.3-0.8c-1.3-0.4-1.1,0-2,0
	l-0.2-1l1-0.4l0.2-1.5c2.4-0.3,1.8-0.9,2.8-0.8c0.4,0.6,0,0.7,0.9,0.7c0.1,1,0.7,1,1.5,0.7c-0.2-0.3-0.6-0.6-1-0.8L52.4,40
	c0.2-0.8,0.3-0.1,0.7-0.7c0.2,0,0.3,0,0.5,0c0.5-0.2,0.2-0.1,0.3-0.3c-0.1-0.7,0-0.4-0.1-0.4c0,0-0.1-0.1-0.2-0.3
	c-0.7,0-0.6-0.1-1.1-0.1c-1.4,1.4-0.9,0.3-2.1,0.5c-0.4,0.1-1,0.2-1.2,0.4c-0.4-0.1-0.2,0-0.4-0.2c-0.8,1.2-0.7-0.1-0.9-0.4
	c0,0-0.3-0.4-0.3-0.4c-1.7,0-0.7,0-1.4-0.7c-0.2-0.2,0,0-0.2-0.2c0.2-0.5,0.3-0.5,0.7-0.8c-1.5-0.9-0.3-0.9-1.2-1.5
	c-0.6,0.3-0.4,0.8-1,1c-0.8,0.3-0.7-0.1-1.3,0.6l-0.6,0l-0.7-1.3c-0.3-0.7-0.6-0.5-0.3-1.4c0.3-0.9-0.4-0.9,0.7-1.9
	c1.1-1.1,2.3,0.2,2-1.5c-0.2-1.2-1,0-1.1-1.7c0,0,0.1-0.1,0.1-0.1c0,0,0.9-0.3,1.4-1.1c1,0,0.8,0.2,1.5-0.3c0.4,0,0.9,0,1.2,0
	c0.7-0.1,0.2-0.2,0.9-0.3c0.2-0.1,0.2-0.3,0.2-0.3l-0.2-0.2c-0.1-0.1-0.1,0-0.1-0.3c0,0,0-0.2,0.1-0.2l-0.9,0
	c-0.8,1-1.1,0.9-1.6,0.2l-1,0c0-0.2,0.1-0.7,0.1-0.8c0-0.8-0.5-0.4,0.4-1.3c0.4-0.4,0.3-0.1,0.7-0.5c0.1-0.3,0-0.4,0.1-0.7
	c0.2-0.5,0.2,0.2,0.2-0.7c-0.7,0-0.4,0.1-0.8,0.5c-0.2,0.2,0,0.1-0.3,0.2c-0.6,0.4-0.7,0.4-1.5,0.3c-0.7-0.1-0.9,0.2-1.2,0.6
	c-0.4,0.5-0.7,0.4-1.6,0.3l-0.6-0.7c-0.1-0.1-0.1-0.3-0.1-0.4l-1-0.1c0-0.6,0-0.5,0.4-0.7l-0.2-1.5c0.3-0.2,0.4-0.2,0.6-0.5
	c-0.7-1.9,0.9-1.1,1.6-1.4l0-1.2c1.4-0.6,3.5-1,5.1-0.9l0.2-0.5c0.5,0,0.6,0.1,1.1-0.1c-0.1-0.8-0.1-0.3-1.7-0.4
	c-0.9-0.1-1.2,0.3-2.1,0.2l-0.2-0.7c-0.9,0-0.4,0.3-1.5,0.3c0,0-0.8-0.5-0.7-1.2c0.4-0.3,0.4-0.1,0.7-0.6c0.2-0.4,0.2-0.5,0.7-0.7
	c0.1-1.2,0.3-0.1,1.4-1.2c0.3-0.3,2.7,0.6,3.2-1c-0.1-0.1-0.2-0.1-0.4-0.3c-0.2-0.2-0.2-0.1-0.3-0.4c0.7-1.4,2.1-1.3,2.7-1.4
	c1.8-0.5,2,0,3.4,0.1L54,8.4c1.4-0.1,1.4,0.5,2.6-0.1c0.3-0.1,0.8-0.2,1.3-0.2c0.6,0,0.6,0.1,0.9,0.5c1.4,0.2,2,0.2,2.9,0.7
	C62,9.6,62,9.8,62,10.3c1.3,0.1,1.1,0.5,1.1,1.1c0,0.2,0.2-0.1,0,0.3c-0.2,0.4-1.2,0.1-2.5,0.3c0.9,0.8,2.3-0.1,3.2,0.3
	c1,0.8,0.9,0.1,1.5,0.5c0.7,0.5,0.6,1,0.6,1.8c-0.1,0-0.5,0-0.6,0.1c-0.7,0.2-0.2,0-0.4,0.4c1.1,0.1,2-0.2,2.9,0.3
	c0,0,0.1,0,0.1,0.1c0,0,0.1,0,0.1,0.1c0.9,0.7,0.8-0.1,1.1,0.6c0,0.1,0.2,1.8,0.2,1.9c-1,0.1-1.4-0.2-2.1-0.1
	c-1,0.3-0.6,0.8-1.6,0.7c-0.3,0.4-0.2,0.5-0.8,0.6c-0.1-0.1-0.8-1.5-1.5-0.8c0,0-0.5,0.1,0,0.7c0.6,0.7,0.9,0.3,1.5,0.4
	c0.7,0.1,0.4,0.1,0.6,0.4c0.9,0.8,0.6-0.5,0.9,1.4c0.6,0.3,0.5-0.3,1.4-0.2c0.6,0,1.1,0.3,1.6,0.4L69,21.9c1.5,0.3,1.1,0,2,0.8
	l0.2,0.2v0.3c-0.5,0.8,0.3,1.5-1.1,1.7c-0.3,0.1-1,0.3-1.2,0.3c-0.9-0.1-1.1-0.6-2.3-0.5l0,0.6c0.4,0.3,0.2,0.3,0.5,0.7
	c0.3,0.3,0.5,0.2,0.8,0.5c0.7,0.8,0.7,0.2,0.9,1.7c-0.4,0.2-0.3,0.1-0.7,0.4l0.1,1.5c-1.5,0.7-2-0.4-3.4,0.1
	c-1.2,0.4-1.4,0.8-2.3,0.3c-0.4-0.2-0.4-0.1-0.9-0.1c-0.2-0.2-0.2-0.2-0.5-0.3l-0.7,0c0.1,0.6-0.1,0.2,0.3,0.5l0.5,0.8l-0.7,0
	L60.4,32c1.9,0.1,1.4,0.1,1.8,0.6c0.4,0.5,0.4,0.2,0.4,1.1c-0.5,0.4-0.5,0.2-0.8,0.9c-0.3-0.1-0.3-0.1-0.6,0c-0.1,0.2,0,0.3-0.2,0.5
	c-0.5,0.7-0.1-0.4-1.5,1.3c-3.4,0-1-0.2-2.7-0.4c-0.1,0.3-0.2,0.4-0.3,0.8c0.5,0.2,0.3-0.1,0.6,0.1c0.4,0.2,0,0,0.4,0.6
	c0.6,0.1,1-0.1,1.8,0.1c1,0.3-0.4,0.4,2,0.4c0.7,0.9,1.3,1.6,0.8,2.7c-0.3,0.6-0.5,0.5-0.6,0.7c-0.5,0.7,0,1.3-0.9,1.7
	c-0.4,0.2-2,0.4-2.4-0.4c-0.3-0.7-0.3-0.7-0.3-1.3l-0.9,0.1c0.2,1.2,0.5-0.1,0.5,0.9c-0.3,0.2-0.4,0.1-0.9,0.1
	c-0.3,0.3-0.5,0.5-0.5,0.9l0.6,0.2c-0.2,0.8-1.1,0.3-1.1,1.4c0,0.4,0.5,1.6,0.6,2c0.1,0,0.5,0,0.6,0c0.6,0.1,0.2,0,0.4,0.1
	c0,0,0,0-0.1,0C58.2,47.2,59.5,47.3,60.8,47.4L60.8,47.4z M46.3,31.4l0.4,0.1l0-0.5l0.2,0.2c0.2,0.5,0-0.1,0,0.3
	C46.2,31.7,46.4,31.4,46.3,31.4L46.3,31.4z M55.9,28c-0.5,0.2-0.3,0.3-0.3-0.3c0.2-0.2,0,0,0.4-0.1L55.9,28L55.9,28z M55.4,16.3
	c-0.3,0.1,0,0.1-0.5,0l0.1-0.7l0.3-0.1L55.4,16.3L55.4,16.3z M54,17l0.3,0l-0.2,0.3L54,17L54,17z M51.4,26.4
	c-0.2,0.3-0.3,0.4-0.6,0.5l0,0.4l-0.3-0.2c0.2-0.4,0-0.2,0.3-0.4c0,0,0.2-0.2,0.2-0.2C51.4,26.4,51.1,26.5,51.4,26.4L51.4,26.4z
	 M53.3,22.2c-0.5-0.4-0.5-0.4-0.5-0.4c-0.2-0.2-0.4,0.3,0-0.9l1.3,0.4C54.1,22,53.9,22.1,53.3,22.2L53.3,22.2z M56.5,38.5
	c-0.4-0.3-0.3-0.3,0.1-0.6C56.7,38.3,56.8,38.1,56.5,38.5L56.5,38.5z M51.5,37c0.4,0,0.7,0.1,0.9,0.6c-0.3,0.2-0.6,0.3-1.1,0.2
	L51.5,37L51.5,37z M53.9,35.1c-0.5,0.3-0.4,0-0.5,0C53.2,34.7,53.6,34.4,53.9,35.1L53.9,35.1z M55.9,33.7c-0.4-0.2-0.1-0.2,0-0.3
	c0,0,0.1,0.1,0.1,0.1C56.2,34.2,56.1,33.4,55.9,33.7L55.9,33.7z M53.8,32.2c-0.5-0.2-0.1-0.2,0-0.4c0,0,0.1,0.1,0.1,0.1v0.2v0
	c0,0,0,0,0,0C53.8,32.1,53.8,32.1,53.8,32.2L53.8,32.2z M56.5,28.7c0.7-0.4,0.9-2.2,1.5-0.7l1,0.1c-0.1,1-0.4,0-1.6,0.8
	c0.2,1.1-0.2,0.4-0.1,1.1l2,0c0.2,0.3,0.2,0.2,0.2,0.5c-0.6,0.1-0.9,0.1-1.2,0.1c-0.3,0-0.9-0.2-1.1,0.1c-0.7,1,1,0.9,1,0.9
	c0.4,0.1,0.2,0.2,0.3,0.4c-0.6,0.4-0.9,0-1.7,0.2c-0.4,0.5-0.1,0.8-0.9,0.7c-0.6-0.7-0.3-1.8,0.3-2.6L57,30c0-0.6,0-0.2-0.2-0.6
	C56.7,29.2,56.6,29,56.5,28.7L56.5,28.7z M52.7,26.6l0.3,0c0.3,0.4,0.3,0.6,0.3,1.2c-0.4-0.1-0.3,0.1-0.8-0.2
	C52.4,27.1,52.4,26.9,52.7,26.6L52.7,26.6z M54.2,25.2c0.3,0.4,0.2,0.3,0,0.8C53.8,25.5,53.8,25.6,54.2,25.2L54.2,25.2z M60.2,25.7
	c-0.6,0.5-0.3-0.1-0.5,0.4L59.4,26c0,0-0.1,0-0.1,0l-0.7-0.2c-0.2-0.3-0.3-0.4-0.3-0.7c0.8-0.1,0.5-0.1,1.1-0.4
	C60.1,25.9,59.9,24.9,60.2,25.7L60.2,25.7z M53.5,23.9l0.4-0.1c0,0,0.1,0,0.1,0.1C53.7,24,53.8,24.1,53.5,23.9L53.5,23.9z
	 M55.1,19.5c0.9,0.2,0.4,1-0.1,1.2L55.1,19.5L55.1,19.5z M56.6,19.8c0.1-0.3,0.1-0.3,0.3-0.6l1.1-1l0.6,0.1c0.2,0.7-0.2,0.3,0.1,0.9
	l-0.5,0.2c0.4,0.5,0.3-0.1,0.4,0.7C58.1,20.1,57.2,20.1,56.6,19.8L56.6,19.8z M57,17.9c0,0.5,0.1,0.2-0.2,0.5
	C56.2,18.1,56.5,18,57,17.9L57,17.9z M52.3,16.3c0-0.3,0-0.4,0.2-0.6c0.4,0.3,0.5,0.7,0.1,1.1C52.4,16.7,52.4,16.7,52.3,16.3
	L52.3,16.3z M63.9,14.8c-0.5,0-0.5,0-0.5-0.5C63.9,14.4,63.9,14.3,63.9,14.8L63.9,14.8z"/>
<path class="st2" d="M55,2.7c-5.3,0-10.1,2.5-13.6,6.6c-3.5,4.1-5.7,9.9-5.7,16.2c0,6.3,2.2,12.1,5.7,16.2c3.5,4.1,8.3,6.6,13.6,6.6
	c5.3,0,10.1-2.5,13.6-6.6c3.5-4.1,5.7-9.9,5.7-16.2c0-6.3-2.2-12.1-5.7-16.2C65.2,5.2,60.3,2.7,55,2.7L55,2.7z M40.1,8.2
	C43.9,3.7,49.2,1,55,1C60.9,1,66.2,3.7,70,8.2c3.8,4.4,6.1,10.6,6.1,17.3c0,1.5-0.1,3-0.3,4.4c4.3-1.7,12.4-0.9,11,9.1
	c0.4-0.1,0.5-0.3,0.8-0.6l2.3-2c0.9-0.9,2-1.9,3.2-2.4c0.7-0.3,1.2-0.6,2-0.8c3.4-1,4.8,0.1,6.8,0.6c0,0.8-0.1,1-0.1,1.7
	c0.3,0.1,0.6,0.2,0.8,0.2c1.7,0.4,3,1.4,4.2,2.6c1.8,1.8,2.1,4.3,2.1,6.8c0,2.2-2.6,3.1-3.9,1.4l-0.8-1c-3.3-3.2-11.2-0.1-14.6,0.5
	c-3.1,0.6-6.2,0.9-9.4,1.3c-2.5,0-6.8,0.1-8.8-0.7c-1.7-0.7-1.4-3,0.5-3.3c0.8-0.2,5.8,0.1,6.5-2.6c-2.3-1-3.1-1.1-5.1-2.7
	c-0.9,1.8-2,3.5-3.3,5c-3.8,4.5-9.1,7.3-14.9,7.3c-5.8,0-11.1-2.8-14.9-7.3c-1.3-1.5-2.4-3.2-3.3-5c-1.9,1.6-2.8,1.7-5.1,2.7
	c0.7,2.8,5.7,2.5,6.5,2.6c1.9,0.4,2.2,2.6,0.5,3.3c-2.1,0.8-6.3,0.7-8.8,0.7c-3.1-0.4-6.3-0.7-9.4-1.3C17,45.2,9.1,42.2,5.9,45.4
	l-0.8,1c-1.3,1.7-3.9,0.8-3.9-1.4c0-2.5,0.3-5,2.1-6.8C4.5,37,5.7,36,7.4,35.6c0.3-0.1,0.5-0.2,0.8-0.2c0-0.7-0.1-0.9-0.1-1.7
	c2-0.5,3.5-1.6,6.8-0.6c0.9,0.3,1.3,0.5,2,0.8c1.2,0.6,2.2,1.6,3.2,2.4l2.3,2c0.3,0.3,0.4,0.5,0.8,0.6C21.9,29.1,30,28.2,34.3,30
	c-0.2-1.4-0.3-2.9-0.3-4.4C34,18.8,36.3,12.7,40.1,8.2L40.1,8.2z M29.5,31.1c-4.7,0.8-6.4,6.8-2.3,10.7c0.9,0.8,1.8,1.6,2.9,2.1
	l1.8,0.8c-3.8,0.4-7.8-2.2-10.4-4.6c-0.2-0.2-0.3-0.3-0.5-0.5c-0.3-0.3-0.7-0.6-1-0.9c-0.8-0.8-2.4-2.3-3.3-2.8
	c-1.5-0.9-4.3-2.1-6.4-1c0.2,1.1,0.4,1.4,0.6,2.1C10.2,37.1,9.7,37,9,37.1c-3.6,0.2-6.8,4.4-5.7,8.4c0.2-0.2,0.3-0.4,0.5-0.7
	c0.2-0.3,0.3-0.4,0.6-0.7c0.4-0.4,1-0.8,1.5-1.1c1.4-0.6,2.5-0.9,4.4-0.9c3,0,6.3,0.7,8.8,1.5c2.7,0.8,5.8,1.3,8.7,1.6
	c2.3,0.2,7.8,0.2,9.8-0.4c-3.2-0.3-4.6-0.2-7-2.5c-0.3-0.3-0.1-0.1-0.3-0.5c-0.3-0.4-0.2,0-0.6-1c-1.4-3.3,0.8-6,2.7-5.2
	c0.9,0.4,0.8,1.1,0.9,2.1c1.3-0.4,2.1-1.1,2.2-2.7C35.6,32.1,32.2,30.7,29.5,31.1L29.5,31.1z M74.6,35.2c0.1,1.6,0.8,2.3,2.2,2.7
	c0.1-1,0-1.8,0.9-2.1c1.9-0.8,4.2,1.9,2.7,5.2c-0.4,0.9-0.3,0.5-0.6,1c-0.2,0.3,0,0.1-0.3,0.5c-2.4,2.3-3.8,2.2-7,2.5
	c2,0.6,7.5,0.6,9.8,0.4c2.9-0.3,6-0.8,8.7-1.6c2.6-0.8,5.9-1.5,8.8-1.5c1.9,0,3,0.3,4.4,0.9c0.6,0.2,1.2,0.7,1.5,1.1
	c0.3,0.3,0.4,0.3,0.6,0.7c0.2,0.2,0.3,0.5,0.5,0.7c1.1-4.1-2.1-8.3-5.7-8.4c-0.7,0-1.2,0.1-1.8-0.1c0.2-0.7,0.4-1,0.6-2.1
	c-2.1-1.1-4.9,0.1-6.4,1c-0.9,0.5-2.5,2-3.3,2.8c-0.4,0.3-0.7,0.7-1,0.9c-0.2,0.2-0.3,0.3-0.5,0.5c-2.6,2.4-6.6,5.1-10.4,4.6
	l1.8-0.8c1.1-0.5,2.1-1.3,2.9-2.1c4.1-3.9,2.4-9.9-2.3-10.7C77.8,30.7,74.5,32.1,74.6,35.2L74.6,35.2z"/>
</svg>
